<?xml version="1.0" encoding="UTF-8" standalone="no"?>
<svg
   xmlns:dc="http://purl.org/dc/elements/1.1/"
   xmlns:cc="http://creativecommons.org/ns#"
   xmlns:rdf="http://www.w3.org/1999/02/22-rdf-syntax-ns#"
   xmlns:svg="http://www.w3.org/2000/svg"
   xmlns="http://www.w3.org/2000/svg"
   width="210mm"
   height="297mm"
   viewBox="0 0 210 297"
   version="1.1"
   id="svg8">
  <defs
     id="defs2" />
  <metadata
     id="metadata5">
    <rdf:RDF>
      <cc:Work
         rdf:about="">
        <dc:format>image/svg+xml</dc:format>
        <dc:type
           rdf:resource="http://purl.org/dc/dcmitype/StillImage" />
        <dc:title></dc:title>
      </cc:Work>
    </rdf:RDF>
  </metadata>
  <g
     id="layer1">
    <path
       id="path22"
       d="m -332.01633,150.29311 0.85719,7.71466 2.85729,35.71604 66.57469,-6.85748 18.00089,-23.14399 v -0.85719 h 3.42874 c 0,0 -0.85718,0 1.14291,0 2.0001,0 2.0001,0.28573 2.0001,0.28573 l 1.14292,6.00029 3.71446,18.57235 2.0001,5.42883 2.57156,1.71437 3.42874,0.57146 c 0,0 0,0.85718 4.00019,-1.14291 4.0002,-2.0001 -2.28582,1.42864 4.28593,-2.0001 6.57175,-3.42874 10.00049,-6.0003 10.00049,-6.0003 0,0 2.57156,-1.42864 2.28583,-1.71437 -0.28573,-0.28572 -0.28573,-0.28572 -0.28573,-0.28572 l 0.57146,-2.0001 2.28582,-7.71467 h 0.57146 l 8.57185,23.42973 26.28701,14.00068 51.14537,25.1441 23.143993,-46.00226 1.142913,-1.42865 -81.432576,-36.57322 c 0,0 -25.14409,17.42943 -23.71545,9.71476 1.42864,-7.71467 1.14291,-3.42874 1.14291,-3.42874 l -0.28573,-3.42874 2.28583,-5.71456 -9.71476,-10.85768 -4.0002,-0.28573 -5.71457,-2.28583 c 0,0 -2.57155,-1.42864 0,-2.28582 0,0 0.57146,0.85718 5.42884,-1.71437 4.85738,-2.57156 4.85738,-2.57156 4.85738,-2.57156 0,0 0.85719,0 3.71447,-3.42874 2.85728,-3.42874 1.14291,-0.85718 3.14301,-3.42874 2.0001,-2.57155 2.0001,-2.85728 2.0001,-2.85728 0,0 0.57146,-0.28573 1.71437,-4.28593 1.14291,-4.00019 0,1.42865 1.14291,-4.00019 1.14292,-5.42884 1.14292,-6.0003 1.14292,-6.0003 v -3.42874 c 0,0 0.28573,-2.0001 0,-5.143108 -0.28573,-3.143012 0,0.285728 -0.57146,-3.143012 -0.57146,-3.42874 0.85719,0.857185 -0.57146,-3.42874 -1.42864,-4.285925 0.28573,-0.571457 -1.71437,-4.285925 -2.00009,-3.714469 -2.00009,-3.714469 -2.00009,-3.714469 l -2.85729,-4.285925 -3.14301,-4.571653 -2.85728,-2.000098 -3.71447,-2.000099 -4.57166,-1.428642 -4.00019,-0.857185 c 0,0 -0.28573,-0.285728 -4.28593,0 -4.00019,0.285729 -4.00019,0.285729 -4.00019,0.285729 l -4.85739,1.142913 -4.85738,1.71437 c 0,0 -0.85718,-1.71437 -3.71447,1.71437 -2.85728,3.42874 -2.85728,3.42874 -2.85728,3.42874 l -3.42874,2.857284 c 0,0 0,2.000098 -1.42864,0.857185 -1.42864,-1.142914 -1.42864,-1.142914 -1.42864,-1.142914 l -2.57156,-1.71437 h -1.42864 c 0,0 -0.57146,2.285827 0.28573,3.714469 0.85718,1.428641 0.85718,1.428641 0.85718,1.428641 l 1.71437,2.000099 -1.42864,3.42874 c 0,0 -1.42864,-0.285729 -2.28582,4.285925 -0.85719,4.571653 -0.85719,4.571653 -0.85719,4.571653 0,0 -0.57146,1.71437 -0.57146,7.143212 0,5.42884 0,5.42884 0,5.42884 l 2.0001,4.57165 1.71437,5.14311 3.42874,4.85738 2.85729,4.28593 4.28592,2.57155 4.28593,3.42874 2.85728,2.0001 c 0,0 7.71466,-1.14291 3.42874,1.42864 -4.28593,2.57156 -4.57165,2.57156 -4.57165,2.57156 l -2.28583,1.14291 -3.71447,2.0001 -0.57146,1.14291 0.85719,2.57156 1.14291,2.85728 1.14292,2.28583 -2.57156,1.14291 -2.85728,1.42864 -3.71447,3.42874 c 0,0 -1.14291,0.57146 -1.42864,-1.14291 -0.28573,-1.71437 1.42864,-0.57146 -0.28573,-1.71437 -1.71437,-1.14292 0.57146,0.85718 -1.71437,-1.14292 -2.28583,-2.00009 -2.57156,-2.00009 -2.57156,-2.00009 l -15.1436,-12.28632 z"
       style="fill:none;stroke:#000000;stroke-width:0.264583px;stroke-linecap:butt;stroke-linejoin:miter;stroke-opacity:1" />
  </g>
</svg>
