<?xml version="1.0" encoding="UTF-8" standalone="no"?>
<svg
   xmlns:dc="http://purl.org/dc/elements/1.1/"
   xmlns:cc="http://creativecommons.org/ns#"
   xmlns:rdf="http://www.w3.org/1999/02/22-rdf-syntax-ns#"
   xmlns:svg="http://www.w3.org/2000/svg"
   xmlns="http://www.w3.org/2000/svg"
   width="210mm"
   height="297mm"
   viewBox="0 0 210 297"
   version="1.1"
   id="svg8">
  <defs
     id="defs2" />
  <metadata
     id="metadata5">
    <rdf:RDF>
      <cc:Work
         rdf:about="">
        <dc:format>image/svg+xml</dc:format>
        <dc:type
           rdf:resource="http://purl.org/dc/dcmitype/StillImage" />
        <dc:title></dc:title>
      </cc:Work>
    </rdf:RDF>
  </metadata>
  <g
     id="layer1">
    <g
       id="g84"
       transform="matrix(0.70251239,0,0,0.59879345,-309.37695,56.584745)">
      <path
         id="path78"
         d="m 117.97227,-57.665647 -4.77474,13.354306 -7.95791,14.9254 -6.366323,15.710947 -8.75368,17.2820424 -10.34527,20.4242306 -9.54949,18.06759 -8.75369,16.496495 -4.77474,10.212117 -3.97895,6.284376 h -3.18316 l -3.18316,9.426566 v 2.35665 l -11.93685,23.566417 -13.52843,29.06525 -11.93685,26.70861 -3.97896,12.56876 -70.825311,-204.242315 -4.774741,2.356643 12.732642,36.135178 11.93685,33.778538 8.75369,25.923058 8.753691,25.923061 11.141061,31.421897 8.753694,25.13751 9.549477,23.56643 -4.774736,10.99766 -5.570534,-12.56876 -6.36632,-8.64102 -7.162111,-4.71328 h -7.957899 l -11.936853,3.92773 -7.957901,5.49884 -7.957899,10.99766 -3.978951,10.99767 -3.97895,10.2121 -1.591581,11.78322 -0.795789,12.56876 0.795789,17.28205 3.978952,10.99766 7.16211,9.42656 7.957901,7.85547 h 9.549479 l 8.753693,-2.35663 7.957899,-4.71331 2.38737,-3.14216 3.18316,13.3543 c 0,0 0,-5.49883 3.183163,-0.78553 3.183159,4.71325 3.183159,4.71325 3.183159,4.71325 0,0 0,-2.35663 4.77474,-2.35663 4.774736,0 4.774736,0 4.774736,0 h 4.77475 l 1.59157,-4.71329 -7.162108,-7.06994 4.774747,-2.35663 5.570521,3.92773 3.97896,10.21213 7.9579,3.1422 4.77473,-7.06992 c 0,0 2.38738,-7.06994 4.77475,1.5711 2.38736,8.64099 0.79579,2.35662 2.38736,8.64099 1.59159,6.2844 1.59159,6.2844 1.59159,6.2844 0,0 -3.18316,1.57109 2.38737,1.57109 5.57053,0 6.36632,0 6.36632,0 l -4.77474,-7.06992 c 0,0 -1.59158,-0.78557 -1.59158,-5.49884 0,-4.71329 0,-5.49882 0,-5.49882 l 10.34527,-8.64104 6.36632,-10.99766 6.36633,1.5711 v -3.1422 l -4.77475,-4.71327 v -6.28439 l 2.38737,-8.64101 v -3.14219 c 0,0 -8.75369,0.78554 0,-3.1422 8.75369,-3.92773 8.75369,-3.92773 8.75369,-3.92773 h 8.75369 l -1.59157,-5.49884 -3.18316,-0.78554 -5.57054,2.35663 -11.14106,0.78555 7.9579,-14.9254 0.79579,-6.28438 1.59158,-4.71328 -3.97894,-3.92773 h -4.77475 l -1.59158,3.92773 -7.9579,-0.78554 h -3.97895 l 3.97895,-4.71329 111.410623,-37.70627 -2.38738,-4.71329 -113.002193,40.06291 -7.9579,0.78555 v 6.28439 l -7.16211,-3.14219 c 0,0 6.36631,3.14219 -2.38737,4.71328 -8.7537,1.57109 -12.73264,1.57109 -12.73264,1.57109 H 3.378497 0.195332 l 8.753695,-18.06759 14.32422,-29.8508 14.32422,-29.06525 15.9158,-29.850797 v -2.35665 l 5.57054,-9.42656 7.95789,-18.853136 11.93685,-22.780873 12.73264,-25.923065 11.141073,-23.566421 10.34527,-21.209779 7.16211,-14.139853 3.97895,-10.212115 z"
         style="fill:none;stroke:#000000;stroke-width:0.276728px;stroke-linecap:butt;stroke-linejoin:miter;stroke-opacity:1" />
      <path
         id="path80"
         d="m -46.152493,204.39393 21.92262,-15.875 -17.386905,18.14286 27.214284,22.67857 c 0,0 18.1428538,26.45833 -3.023809,6.04762 -21.166666,-20.41072 -21.922618,-20.41072 -21.922618,-20.41072 l -5.291666,9.82739 5.291666,-9.82739 -5.291666,9.82739 c 1.329613,0.41604 -4.378725,-9.13984 -1.511906,-20.41072 z"
         style="fill:none;stroke:#000000;stroke-width:0.264583px;stroke-linecap:butt;stroke-linejoin:miter;stroke-opacity:1" />
    </g>
  </g>
</svg>
