<?xml version="1.0" encoding="utf-8"?>
<!-- Generator: Adobe Illustrator 24.1.2, SVG Export Plug-In . SVG Version: 6.00 Build 0)  -->
<svg version="1.1" id="レイヤー_1" xmlns="http://www.w3.org/2000/svg" xmlns:xlink="http://www.w3.org/1999/xlink" x="0px"
	 y="0px" viewBox="0 0 595.28 841.89" style="enable-background:new 0 0 595.28 841.89;" xml:space="preserve">
<style type="text/css">
	.st0{fill:none;stroke:#E60012;stroke-width:0.1;stroke-miterlimit:10;}
</style>
<path class="st0" d="M293.33,336.24l-7.95-10.7l-52.39-26.88c0,0-25.51-5.76-62.26-2.47c-36.75,3.29-50.47,13.17-50.47,13.17
	l66.1,41.97l60.07,12.62c0,0-4.98,5.55-4.29,10.47c-2.85,0.88-3.93,0-3.93,0l-13.77-12.98l-2.65-0.88l0.29,2.95l13.86,12.98
	l-46.31,15.83c0,0-11.7,6.69-15.93,10.13s-12.59,13.47-12.59,13.47l-7.18,18.88l-1.77,3.54l0.59,26.55l12,25.47
	c0,0,21.93,24.68,23.6,26.25c1.67,1.57,30.29,20.16,30.29,20.16s35.2,11.6,36.77,13.08c2.46-0.29,36.18,2.95,37.46,3.05
	c6.88-0.39,31.96-5.51,31.96-5.51s18.88-10.13,24.58-14.45c4.33-4.62,15.44-18.78,15.44-18.78l1.08-7.18l4.33-17.5l-2.46-18.78
	l-1.67-4.52l16.72,9.93l61.55,38.25l22.91-15.73l0.59-2.75l10.13-14.75l2.65-15.93l-3.44-18.88c0,0-3.93-13.47-18.78-32.35
	c-10.23-5.21-47.39-24.58-47.39-24.58l-28.02-13.86l-35.69-8.75c0,0-14.36-17.01-31.07-22.91
	C299.56,337.93,294.87,336.42,293.33,336.24z"/>
<path class="st0" d="M265.08,504.36c0,0-10.55,6.64-7.59,17.78c2.96,11.15,16.95,7.71,16.95,7.71s9.13-4.27,7-14.7
	c-2.13-10.43-12.57-10.79-12.57-10.79H265.08z"/>
<rect x="267.92" y="516.46" class="st0" width="1.9" height="2.73"/>
<rect x="271.72" y="526.89" class="st0" width="1.78" height="1.78"/>
<polygon class="st0" points="277.6,514.2 279.13,514.2 279.13,511.92 277.45,511.92 "/>
<rect x="264.06" y="506.75" class="st0" width="1.71" height="2.24"/>
<path class="st0" d="M258.92,521.01l1.07,0.42v2.43l-1.33-0.3C258.66,523.56,257.94,522.04,258.92,521.01z"/>
<path class="st0" d="M218.72,486.2c0,0-1.33-0.74-2.29,0s-11.99,17.24-11.99,17.24s-1.55,2.86-0.59,4.43
	c3.03,1.64,18.8,12.74,18.8,12.74s1.85,0.81,3.4,0c1.26-1.41,12.36-19.02,12.36-19.02s0.37-1.33-0.74-2.81
	C236.55,497.3,218.72,486.2,218.72,486.2z"/>
<path class="st0" d="M220.57,495.01c0,0-2.66-0.37-3.26,0c-0.59,0.37-5.25,6.96-5.25,6.96s0,2.66,0.74,3.48
	c0.74,0.81,8.2,5.99,8.2,5.99s2.61,0.52,3.42,0c0.81-0.52,5.33-7.07,5.33-7.07s-0.07-2.47-1.33-3.58
	C227.15,499.67,220.57,495.01,220.57,495.01z"/>
<path class="st0" d="M218.57,497.74l-2.81,2.96c0,0-0.74,2.15,0,3.4c1.48,1.18,6.07,4.37,6.07,4.37s1.33-0.02,2.07-0.6
	c0.74-0.58,0.74-0.58,0.74-0.58l2.29-3.55c0,0,0.15-1.7-1.55-2.52c-1.7-1.41-4.88-3.48-4.88-3.48S219.22,497.06,218.57,497.74z"/>
<path class="st0" d="M184.08,455.34L169.8,469.4c0,0-1.41,1.41,0,3.48c1.41,2.07,10.66,14.73,10.66,14.73s1.92,0.89,3.03,0.37
	s14.65-14.65,14.65-14.65s1.41-1.18,0-3.48c-1.41-2.29-11.77-13.84-11.77-13.84S185.12,455.04,184.08,455.34z"/>
<path class="st0" d="M182.6,463.26l-6.14,5.03c0,0-1.41,2.52,0.37,4.59s5.11,6.36,5.11,6.36s1.7,0.74,2.81,0
	c1.11-0.74,5.7-4.96,5.7-4.96s0.59-3.92,0-4.44c-0.59-0.52-5.18-6.29-5.18-6.29S183.2,462.77,182.6,463.26z"/>
<polygon class="st0" points="183.32,458.52 172.17,469.33 172.83,470.36 172.69,471.71 172.17,471.71 172.17,473.55 180.83,485.24 
	181.79,484.13 183.32,483.91 183.64,484.94 194.44,474.51 194.44,471.03 196,470.73 195.7,469.48 185.78,458.15 185.49,459.26 
	184.08,459.48 "/>
<path class="st0" d="M179.35,469.25c0,0-1.18,1.14-0.52,2.46c0.67,1.32,3.48,4.35,3.48,4.35s1.33,0.22,2.22-0.37
	s2.96-2.59,2.96-2.59s0.67-2.15,0.37-2.52s-3.26-3.77-3.26-3.77s-1.26-0.89-1.85-0.67C182.16,466.37,179.35,469.25,179.35,469.25z"
	/>
<path class="st0" d="M218.7,488.71c0,0-0.05,2.04-1.12,2.04c-1.07,0-2.53-0.31-2.16-1.02c-1.36,2.04-8.68,13.69-8.68,13.69
	s1.27,0.41,1.17,1.93s-1.17,1.58-1.17,1.58l15.57,10.94c0,0,1.22-1.48,1.83-1.88c0.61-0.41,2.44,0.41,2.44,0.41l8.91-13.44
	c0,0-2.29-0.6-1.83-1.47c0.1-1.73,1.53-1.73,1.53-1.73L218.7,488.71z"/>
<path class="st0" d="M179.73,432.09c0,0-5.79-5.73-12.77,3.04c-3.04,3.22-6.45,8.24-4.6,12.77c4.42,0.9,8.17,2.69,13.58-2.93
	c1.95-2.39,3.68-4.6,4.45-6.51C181.16,436.57,180.38,432.61,179.73,432.09z"/>
<rect x="169.82" y="438.77" class="st0" width="1.67" height="1.85"/>
<path class="st0" d="M175.93,431.91c0,0-0.2,1.55-0.98,1.67c-0.78,0.12-1.67,0-1.43-0.84c0.24-0.84,0.54-0.84,0.54-0.84H175.93z"/>
<path class="st0" d="M178.12,438.77h-1.43c0,0-1.03,0.78-0.75,1.43c0.27,0.66,1.89,0.42,1.89,0.42L178.12,438.77z"/>
<path class="st0" d="M164.09,440.67h1.25v-1.89C165.34,438.77,164.03,439.87,164.09,440.67z"/>
<rect x="165.82" y="446.65" class="st0" width="1.55" height="1.37"/>
<path class="st0" d="M204.25,401.63c0,0-5.8-2.52-14.67,6.13c-8.87,8.65-7.17,12.37-7.17,12.37s3.45,2.73,9.63,0.82
	s10.89-9.49,10.89-9.49s2.96-3.97,2.46-6.16S204.25,401.63,204.25,401.63z"/>
<rect x="192.76" y="410" class="st0" width="1.92" height="1.75"/>
<rect x="189.97" y="417.89" class="st0" width="1.86" height="1.31"/>
<polygon class="st0" points="184.16,416.08 185.37,416.08 185.37,417.67 183.78,417.67 "/>
<polygon class="st0" points="200.31,412.58 198.89,412.58 199.6,410.55 201.35,410.55 "/>
<polygon class="st0" points="203.82,405.08 202.23,405.08 201.9,404.04 202.86,403.21 203.49,403.21 "/>
<polygon class="st0" points="197.14,404.15 198.23,404.15 198.51,402.89 197.14,403.21 "/>
<path class="st0" d="M357.67,483.52c0,0-7.68,7.19-3.52,15.3s3.88,5.78,6.63,7.05c2.75,1.27,2.89-6.63,2.89-6.63
	s0.63-6.77-1.48-10.01C360.07,485.98,359.64,485.14,357.67,483.52z"/>
<polygon class="st0" points="358.73,493.6 358.33,495.29 360,495.78 360.49,494.02 "/>
<rect x="354.15" y="491.98" class="st0" width="1.41" height="1.62"/>
<polygon class="st0" points="358.33,486.97 359.41,486.97 358.33,484.93 357.46,485.49 "/>
<polygon class="st0" points="361.97,495.78 362.96,495.78 362.96,497.69 361.55,497.69 "/>
<polygon class="st0" points="359.41,504.36 359.41,501.71 357.46,501.71 357.81,503.75 "/>
<path class="st0" d="M348.58,456.94c0,0,0.85,15.79,8.32,17.77c2.54-2.33,2.89-5.99,2.89-5.99l-1.35-5.99L348.58,456.94z"/>
<polygon class="st0" points="350.41,462.86 351.61,462.86 351.96,464.2 350.76,464.2 "/>
<polygon class="st0" points="354.85,471.81 354.85,470.69 356.05,470.69 356.05,472.52 "/>
<polygon class="st0" points="358.94,468.71 357.46,468.71 357.46,467.09 358.33,467.09 "/>
<polygon class="st0" points="352.91,460.32 352.91,461.66 354.85,461.66 "/>
<path class="st0" d="M305.8,342.83c0,0,47.89,16.1,37.02,35.64c-7.98,4.95-24.22,2.2-24.22,2.2s-28.35-5.09-41.15-13.9
	c-12.8-8.81-21.06-16.93-19.82-23.95c1.24-7.02,19.95-7.02,19.95-7.02S305.25,339.11,305.8,342.83z"/>
<path class="st0" d="M257.51,365.12l2.05-0.69v-1.65c0,0-0.93-1.51-2.05-1.51s-2.77-1.51-2.77-1.51v-11.42c0,0-0.95-1.54-1.03-3.59
	s1.2-3.51,1.2-3.51l0.46-1.47h-2.35l-0.15,0.89h-4.82v2.16h-2.74l0.19,1.04l2.43-0.08l-0.08,0.93l1.66,0.04l0.12,1.89l-1-0.04
	l-0.04,0.89l-3.43,0.15v-1l-1.35,0.08v-1.04l-1.81,0.04l-0.31-1.2l-0.89,0.04v-0.77l-1.97-0.12v0.93l-5.17,0.04v1.12l1.97-0.04
	l0.08,1.04l2.12-0.04l-0.04,0.96h1.85l-0.04,2.08h-1v0.77l-3.97,0.08v1l-5.09,0.04v1.16l3.05-0.04l-0.04,0.89l2.12,0.19l-0.23,0.96
	l1.97-0.08l0.04,1.81l-1.77,0.08v0.93l-4.05,0.23l0.04-0.93l-0.81-0.08l-0.31-1.04l-1.97-0.12v-0.93l-0.85,0.08v-0.85l-0.96-0.12v-1
	h-1.85l-0.19,1.74l-2.08,0.19v0.93l-2.78-0.15v-0.69l-0.89-0.12l-1.23,0.04v-1.04l-1,0.04v-0.96h-2.08v-0.96l-2.82-0.15v-1.74
	l-2.16-0.08v-1.16l-1.89,0.12l-0.15-1.2l-1.89,0.12v0.73l-3.43,0.15l0.19,1l-1.62-0.12l-0.19-0.73l-0.85-0.04v1.12h-1l-0.23,0.85
	l-1.7-0.12l-0.15,1.12l-1.31-0.04l29.86,6.83l22.14,4.71l1.62,0.27c0,0,0.89-0.54,1.43-0.62s3.86-0.23,5.28,1.04
	c1.43,1.27,1.66,1.58,1.66,1.58L257.51,365.12z"/>
<polygon class="st0" points="227.91,337.67 233.92,341.42 239.66,339.55 232.35,334.97 226.99,336.89 "/>
<polygon class="st0" points="251.07,331.84 256.65,335.41 260.57,333.62 255.17,330.01 "/>
<path class="st0" d="M191.76,350.3l-16.55-10.53l-3.05-1.58l-44.85-27.87c0,0,0.52-0.96,6.18-0.7c1.74-1.13,2.61-1.39,2.61-1.39
	h5.31l0.96-0.61h0.96h1.57l-1.92-2.53l0.44-1.05h3.83v-1.22h-2.18l-0.17-0.87c0,0-6.36,1.05-20.64,7.05
	c0.44,0.7,0.96,1.92,0.96,1.92l61.32,38.24L191.76,350.3z"/>
<path class="st0" d="M284.08,327.83h-4.09c0,0-0.87,1.83,2.05,2.87c2.92,1.05,5.79,2,5.79,2L284.08,327.83z"/>
<path class="st0" d="M204.05,297.55l2.33,2.08l10.75-1.04C217.13,298.59,210.47,296.6,204.05,297.55z"/>
<path class="st0" d="M221.47,298.74c0,0,2.01,1.95,2.39,1.89c0.38-0.06,8.11-0.94,8.11-0.94S226.5,298.11,221.47,298.74z"/>
<polygon class="st0" points="348.58,406.13 355.45,410.74 359.79,406.13 351.96,401.52 "/>
<polygon class="st0" points="365.62,389.29 363.32,392.66 369.7,396.73 372.53,393.01 "/>
<path class="st0" d="M315.28,391.95c0,0-16.48-0.53-19.85-2.66c3.54,4.96,27.29,42.01,27.29,42.01l8.86-8.33l-18.08-10.63l3.37-3.9
	l-6.74-3.9c0,0-0.53-1.95,3.37-4.25C314.57,396.56,312.63,396.56,315.28,391.95z"/>
<path class="st0" d="M321.66,391.77c0,0,3.54,5.32,1.95,7.44c-1.6,2.13-1.95,3.72-1.95,3.72h2.36l11.64-9.04l6.73,3.46l12.45-9.3
	l-6.27-4.43l1.83-2.18l7.05,3.96l1.48-2.3l-6.03-4.08l4.55-4.08l-5.5-2.66l1.92-1.6l-5.3-1.42c0,0,0.74,6.2-2.45,9.75
	c-3.19,3.54-4.47,7.56-13.65,11.7C327.34,391.42,321.66,391.77,321.66,391.77z"/>
<polygon class="st0" points="375.01,379.72 377.67,376.35 364.2,372.81 "/>
<path class="st0" d="M443.96,503.42l1.95-12.4l10.46,5.71l2.84-16.88l9.57,3.66l2.48-47.26c0,0,10.63,32.43,4.61,42.01
	c-6.03,9.57-10.81,17.52-10.81,17.52l-18.61,13.21l-3.72-1.12L443.96,503.42z"/>
<path class="st0" d="M456.9,415.52l-1.6,8.51c0,0,6.73,2.84,6.73,3.37s0,3.9,0,3.9l6.2,2.48
	C468.24,433.78,461.52,420.28,456.9,415.52z"/>
<path class="st0" d="M315.31,426.2l-22.69-36.31v-2.57c0,0,5.14-0.62,6.47-2.92c1.6,0.53,1.87,2.57,1.87,2.57l5.57,2.33l6.97,0.33
	l0.74-1.06l1.95,0.73l1.42,0.69l11.43,0.09c0,0,6.44-1.52,10.1-6.56c-4.79,0.35-14.27,0.62-15.51,0s-18.52-3.54-19.67-4.17
	s-22.07-6.2-25.7-8.6s-17.28-12.58-17.37-13.47c-0.09-0.89-3.9-6.82-3.9-6.82l-0.89,8.17c0,0,3.9,1.85,4.43,2.82
	c0.53,0.97,1.15,3.9,0.44,5.05s-2.3,1.95-2.3,1.95s-0.23,3.19-1.18,4.34s0.47,5.05,0.47,5.05l-1.86,2.84l-4.25,0.09l-5.05-3.19
	c0,0-3.1-1.24-4.17-0.89c-1.06,0.35-1.42,2.04-1.42,2.04l-0.62,1.95l-1.33,0.09c0,0-0.62,4.61,0,8.15s5.05,9.39,5.05,9.39
	s-6.58,2.99-5.33,5.84c0.81,4.09,1.6,8.7,5.15,10.91c3.72,1.95,5.41,2.13,7.62,0.35c2.22-1.77,2.75-5.12,2.75-5.12h2.13
	c0,0,7.27,6.09,10.99,6.98c-1.33,1.95-1.42,5.45-0.44,6.76c0.97,1.31,3.1,4.85,5.76,6.18c2.66,1.33,7,0.71,8.24,0
	c1.24-0.71,4.08-1.86,3.81-5.67c7.36,1.77,18.96,2.84,20.56,2.3c-0.35,3.81-1.95,10.9-3.72,12.67s-4.21,3.54-4.21,3.54l-2.62,0.44
	c0,0-0.71,5.49,1.42,7.18s2.92,2.84,5.05,2.84c2.13,0,4.52-1.42,4.25-2.84c-0.27-1.42-0.97-3.99-0.97-3.99l-0.44-3.37l1.68-2.39
	l-0.8-3.46l2.3-4.34l1.51-1.84l-0.18-3.48C308.84,427.82,315.23,428.31,315.31,426.2z"/>
<path class="st0" d="M247.79,402.94c0,0-3.86-1.84-6.2,0.28c-0.62,3.78,0.62,10.42,3.54,11.05c2.92,0.62,5.32,0.81,6.03-2.7
	s-1.42-6.49-1.42-6.49L247.79,402.94z"/>
<path class="st0" d="M276.32,416.56c0,0-7.62,1.06-7.27,3.99c0.35,2.92,0.89,6.29,5.49,7.27c4.61,0.97,7.71,0.14,8.06-1.61
	c0.35-1.75,1.06-3.7-0.62-5.65C280.31,418.6,276.32,416.56,276.32,416.56z"/>
<path class="st0" d="M249.89,364.68c0,0-4.26,2.51-4.2,3.7c0.06,1.19-1.13,3.38,1.38,6.2c2.51,2.82,6.89,0.25,8.02-2.51
	c1.13-2.76-0.44-6.08-1.13-6.61C253.28,364.93,249.89,364.68,249.89,364.68z"/>
<path class="st0" d="M285.17,420.1l-0.46-8.54c0,0-6.56-2.76-7.47-2.03c-1.28,1.64-6.47,6.55-6.47,6.55s3.64-1.85,5.74-1.46
	c2.1,0.38,4.01,1.25,5.92,3.05C284.35,419.46,285.17,420.1,285.17,420.1z"/>
<path class="st0" d="M258.66,407.07l2.46-5.79c0,0-2.55-5.06-6.2-5.78c-3.83,1.09-9.48,3.64-9.48,3.64s4.19,0.74,6.2,3.74
	c2,3,2.64,5.52,2.64,5.52s2.28,0.15,3.01,0C258.02,408.26,258.66,407.07,258.66,407.07z"/>
</svg>
