<?xml version="1.0" encoding="UTF-8" standalone="no"?>
<svg
   xmlns:dc="http://purl.org/dc/elements/1.1/"
   xmlns:cc="http://creativecommons.org/ns#"
   xmlns:rdf="http://www.w3.org/1999/02/22-rdf-syntax-ns#"
   xmlns:svg="http://www.w3.org/2000/svg"
   xmlns="http://www.w3.org/2000/svg"
   xmlns:sodipodi="http://sodipodi.sourceforge.net/DTD/sodipodi-0.dtd"
   xmlns:inkscape="http://www.inkscape.org/namespaces/inkscape"
   inkscape:version="1.0 (4035a4f, 2020-05-01)"
   sodipodi:docname="NASA_logo4bento_fromWikimedia.svg"
   id="svg1301"
   version="1.1"
   width="110"
   viewBox="0 0 110 92"
   height="92">
  <metadata
     id="metadata1307">
    <rdf:RDF>
      <cc:Work
         rdf:about="">
        <dc:format>image/svg+xml</dc:format>
        <dc:type
           rdf:resource="http://purl.org/dc/dcmitype/StillImage" />
        <dc:title></dc:title>
      </cc:Work>
    </rdf:RDF>
  </metadata>
  <defs
     id="defs1305" />
  <sodipodi:namedview
     inkscape:current-layer="g1299"
     inkscape:window-maximized="0"
     inkscape:window-y="26"
     inkscape:window-x="0"
     inkscape:cy="37.854068"
     inkscape:cx="48.464804"
     inkscape:zoom="5.8126236"
     showgrid="false"
     id="namedview1303"
     inkscape:window-height="874"
     inkscape:window-width="1440"
     inkscape:pageshadow="2"
     inkscape:pageopacity="0"
     guidetolerance="10"
     gridtolerance="10"
     objecttolerance="10"
     borderopacity="1"
     bordercolor="#666666"
     pagecolor="#ffffff" />
  <circle
     style="fill:#000000"
     r="40.139999"
     id="circle1205"
     fill="#0b3d91"
     cy="45"
     cx="50.049" />
  <g
     id="g1299"
     fill="#fff">
    <circle
       id="circle1207"
       r=".45"
       cy="12.57"
       cx="47.679" />
    <circle
       id="circle1209"
       r=".45"
       cy="13.17"
       cx="52.299" />
    <circle
       id="circle1211"
       r=".45"
       cy="21.33"
       cx="58.359" />
    <circle
       id="circle1213"
       r=".45"
       cy="63.33"
       cx="25.119" />
    <circle
       id="circle1215"
       r=".45"
       cy="66.93"
       cx="26.289" />
    <circle
       id="circle1217"
       r=".337"
       cy="63.87"
       cx="20.709" />
    <circle
       id="circle1219"
       r=".338"
       cy="70.942"
       cx="39.009" />
    <circle
       id="circle1221"
       r=".337"
       cy="64.98"
       cx="67.711" />
    <circle
       id="circle1223"
       r=".338"
       cy="55.92"
       cx="76.052" />
    <circle
       id="circle1225"
       r=".337"
       cy="23.962"
       cx="35.169" />
    <circle
       id="circle1227"
       r=".337"
       cy="17.22"
       cx="44.349" />
    <circle
       id="circle1229"
       r=".337"
       cy="16.56"
       cx="43.352" />
    <circle
       id="circle1231"
       r=".337"
       cy="15.9"
       cx="42.452" />
    <circle
       id="circle1233"
       r=".337"
       cy="25.703"
       cx="36.609" />
    <circle
       id="circle1235"
       r=".337"
       cy="8.16"
       cx="50.131" />
    <circle
       id="circle1237"
       r=".337"
       cy="17.88"
       cx="52.352" />
    <circle
       id="circle1239"
       r=".337"
       cy="15.982"
       cx="48.849" />
    <circle
       id="circle1241"
       r=".337"
       cy="18.563"
       cx="42.849" />
    <circle
       id="circle1243"
       r=".337"
       cy="73.883"
       cx="69.309" />
    <circle
       id="circle1245"
       r=".338"
       cy="65.61"
       cx="24.549" />
    <circle
       id="circle1247"
       r=".338"
       cy="69.96"
       cx="48.009" />
    <circle
       id="circle1249"
       r=".338"
       cy="65.34"
       cx="31.531" />
    <circle
       id="circle1251"
       r=".338"
       cy="70.103"
       cx="34.449" />
    <circle
       id="circle1253"
       r=".337"
       cy="67.103"
       cx="55.929" />
    <circle
       id="circle1255"
       r=".337"
       cy="60.42"
       cx="67.771" />
    <circle
       id="circle1257"
       r=".337"
       cy="64.522"
       cx="76.749" />
    <circle
       id="circle1259"
       r=".337"
       cy="66.48"
       cx="79.809" />
    <circle
       id="circle1261"
       r=".337"
       cy="61.14"
       cx="80.312" />
    <circle
       id="circle1263"
       r=".337"
       cy="53.58"
       cx="35.671" />
    <circle
       id="circle1265"
       r=".45"
       cy="61.32"
       cx="35.799" />
    <circle
       id="circle1267"
       r=".45"
       cy="67.02"
       cx="38.499" />
    <circle
       id="circle1269"
       r=".45"
       cy="61.08"
       cx="70.839" />
    <circle
       id="circle1271"
       r=".45"
       cy="60.42"
       cx="82.479" />
    <circle
       id="circle1273"
       r=".45"
       cy="57.96"
       cx="76.719" />
    <circle
       id="circle1275"
       r=".45"
       cy="58.2"
       cx="70.839" />
    <path
       id="path1277"
       d="M58.71 12.288l1.119-.107-1.117-.063c-.035-.216-.208-.385-.426-.413l-.107-1.114-.064 1.123c-.202.045-.357.214-.382.424l-1.144.104 1.152.062c.042.193.198.344.394.38l.104 1.148.061-1.146C58.507 12.651 58.671 12.492 58.71 12.288z" />
    <path
       id="path1279"
       d="M39.824 24.746l1.119-.107-1.117-.063c-.034-.216-.208-.385-.426-.413l-.107-1.114-.063 1.123c-.203.045-.358.214-.383.424l-1.144.104 1.152.062c.042.193.198.344.394.38l.104 1.148.062-1.146C39.622 25.11 39.786 24.95 39.824 24.746z" />
    <path
       id="path1281"
       d="M81.659 57.684l1.119-.107-1.117-.063c-.034-.216-.208-.385-.426-.413l-.107-1.114-.063 1.123c-.202.045-.357.214-.382.424l-1.144.104 1.152.062c.042.193.198.344.394.38l.104 1.148.062-1.146C81.456 58.048 81.62 57.889 81.659 57.684z" />
    <path
       id="path1283"
       d="M36.044 74.906l1.119-.107-1.117-.063c-.035-.216-.208-.385-.426-.413l-.107-1.113-.063 1.122c-.203.045-.358.214-.383.424l-1.144.104 1.152.062c.042.193.198.345.394.38l.104 1.148.062-1.146C35.841 75.27 36.006 75.11 36.044 74.906z" />
    <path
       id="path1285"
       d="M78.104 66.506l1.119-.107-1.117-.063c-.034-.216-.208-.385-.426-.413l-.107-1.114-.063 1.122c-.202.045-.357.214-.382.424l-1.144.104 1.152.062c.042.193.198.344.394.38l.104 1.148.062-1.146C77.901 66.87 78.066 66.71 78.104 66.506z" />
    <path
       style="fill:#000000"
       id="path1287"
       fill="#fc3d21"
       d="M59.568 35.385c-4.667 1.814-9.219 3.433-13.06 4.635-7.805 2.444-29.16 9.06-42.06 17.4l1.08.42c7.86-4.44 12.969-5.835 17.88-7.38 5.34-1.68 22.603-5.72 30.42-7.92 2.641-.743 5.734-1.716 9.01-2.9-.762-1.063-1.566-2.129-2.412-3.193C60.143 36.088 59.856 35.734 59.568 35.385zM65.27 43.244c-1.13.763-2.077 1.372-2.74 1.756-3.84 2.22-22.561 15-26.82 17.94s-16.08 14.1-19.56 17.34l-.12 1.319c11.22-10.08 14.74-12.566 19.2-15.959 5.52-4.2 16.939-11.97 20.82-14.46 3.71-2.38 7.056-4.569 10.059-6.572-.049-.082-.098-.164-.147-.247C65.736 43.99 65.505 43.618 65.27 43.244zM82.809 24.72c-5.466 3.204-14.081 7.071-22.439 10.352.2.245.399.492.597.741.934 1.176 1.815 2.36 2.644 3.545 6.57-2.42 13.779-5.668 19.499-9.599-2.725 2.582-11.734 9.315-17.227 13.068.283.461.557.922.822 1.381 8.322-5.569 13.922-9.668 17.185-12.409 4.5-3.78 14.76-12.24 18.66-23.58C95.709 16.92 87.621 21.899 82.809 24.72z" />
    <path
       sodipodi:nodetypes="ccccccccccccccsccscccccccccs"
       id="path1289"
       d="m 44.884,54.939 c -0.885,-1.114 -2.109,-2.606 -3.028,-3.763 -1.229,-1.547 -2.366,-3.11 -3.408,-4.671 -0.34,0.085 -0.679,0.17 -1.018,0.255 1.258,1.963 2.655,3.923 4.177,5.839 1.112,1.4 2.123,2.527 2.641,3.228 0.105,0.142 1.266,1.841 1.547,2.259 0.324,-0.22 0.894,-0.62 1.224,-0.844 -0.319,-0.347 -1.83,-1.919 -2.135,-2.303 z m 6.46,5.864 c -0.727,-0.688 -2.49,-1.837 -4.325,-3.561 -0.405,0.278 -0.814,0.56 -1.224,0.844 1.185,1.67 2.799,3.721 4.063,4.319 1.904,0.902 2.417,-0.72 1.486,-1.602 z m 9.623,-24.99 C 50.475,22.607 37.658,15.352 32.132,19.743 c -4.292,3.41 -2.53,13.376 3.386,23.845 0,0 3.401001,5.402 3.411511,5.346177 0.01546,-0.0821 1.267185,0.06035 1.267185,0.06035 0,0 -3.836734,-5.693729 -3.769696,-5.716522 -5.971,-10.2 -7.605,-19.679 -3.557,-22.896 5.087,-4.042 17.37,3.241 27.558,16.064 2.109,2.654 3.963,5.318 5.533,7.915 6.012,9.95 7.857,18.948 3.703,22.621 -1.271,1.124 -5.155,1.565 -10.243,-0.725 -0.071,0.089 0.043,0.33 0.132,0.389 4.392,1.766 8.599,2.439 10.723,0.752 5.104,-4.056 1.183,-18.379 -9.309,-31.585 z" />
    <path
       id="path1291"
       d="M15.969 37.38h6.72l5.64 9.57c0 0 0-6.93 0-7.47 0-.84-1.065-1.935-1.44-2.1.45 0 4.38 0 4.65 0-.285.075-1.2 1.185-1.2 2.1 0 .45 0 10.5 0 10.98 0 .675.975 1.605 1.44 1.965h-6.48l-5.73-9.615c0 0 0 7.17 0 7.56 0 .75.735 1.47 1.5 2.085h-4.95c.705-.3 1.38-1.245 1.44-1.995s0-10.425 0-10.845C17.559 38.7 16.674 37.95 15.969 37.38z" />
    <path
       sodipodi:nodetypes="ccscccccccsccccccccccccc"
       id="path1293"
       d="m 77.439,52.425 h 8.94 c -0.495,-0.12 -1.05,-0.705 -1.35,-1.485 -0.3,-0.78 -5.04,-13.56 -5.04,-13.56 H 76.59 c -0.964,0.694 -1.997,1.426 -3.1,2.197 -0.003,0.028 -0.006,0.056 -0.011,0.083 -0.148,0.9 -2.808,10.534 -2.97,11.01 -0.225,0.66 -1.38,1.395 -1.845,1.785 h 4.815 c -0.48,-0.54 -0.87,-1.065 -0.78,-1.665 0.09,-0.6 0.36,-1.8 0.36,-1.8 h 4.98 c 0.225,0.6 0.393,1.139 0.48,1.65 0.105,0.615 -0.525,1.305 -1.08,1.785 z m -3.93,-5.355 1.68,-5.49 2.22,5.49 z m -0.757,-9.142 c 0.117453,-0.08654 0.717647,1.700682 0.717647,1.700682 C 73.479,39.66 76.460453,37.47598 76.59,37.38 h -4.401 c 0.13,0.12 0.345,0.309 0.563,0.548 z" />
    <path
       id="path1295"
       d="M38.559 50.79c.09-.6.36-1.8.36-1.8h4.98c.225.6.393 1.139.48 1.65.105.615-.525 1.305-1.08 1.785h7.871c.164-.11.327-.22.49-.329-.305-.27-.586-.675-.771-1.156-.3-.78-5.04-13.56-5.04-13.56h-7.8c.375.345 1.455 1.275 1.29 2.28-.147.9-2.808 10.534-2.97 11.01-.225.66-1.38 1.395-1.845 1.785h4.815C38.859 51.915 38.469 51.39 38.559 50.79zM41.049 41.58l2.22 5.49h-3.9L41.049 41.58z" />
    <path
       sodipodi:nodetypes="cccscccccccccccccsccsccccccccc"
       id="path1297"
       d="m 65.748,44.848 c -1.468,0.978 -3.017,1.999 -4.649,3.065 0.732,0.355 1.315,0.801 1.371,1.377 0.104,1.082 -2.07,1.605 -4.035,1.38 -0.393,-0.045 -0.779,-0.148 -1.147,-0.286 -0.57828,-0.1627 -1.703,-0.911 -1.703,-0.911 -0.425,0.273 -0.477,0.321 -1.066,0.709 l 0.001,3.548 c 0.39,-0.765 1.243,-1.45 1.905,-1.485 0.285,-0.015 1.275,0.9 5.355,0.675 1.98,-0.109 5.805,-2.22 5.745,-4.65 -0.036,-1.436 -0.786,-2.556 -1.777,-3.422 z M 54.519,48.6 v 1.582 C 54.88,49.941 55.236,49.704 55.585,49.473 55.036,49.091 54.647,48.734 54.519,48.6 Z M 65.748,44.848 C 65.578417,44.747589 65.130012,44.33886 64.652624,44.030142 64.060286,43.647089 63.423326,43.355349 63.219,43.259 c -1.92,-0.9 -3.93,-1.065 -4.35,-2.28 -0.296,-0.857 0.54,-1.65 2.58,-1.62 2.04,0.03 3.93,1.245 4.44,1.68 v -3.87 c -0.15,0.15 -0.808,0.905 -1.41,0.78 -1.155,-0.24 -3.12,-0.553 -5.37,-0.54 -2.58,0.015 -4.8,2.009 -4.875,4.53 -0.105,3.525 2.715,4.485 4.305,5.04 0.164,0.057 2.357,0.869 2.56,0.934 1.525,-0.992 1.828231,-0.939251 2.534231,-1.346251 C 64.107231,46.293749 65.02,45.327 65.748,44.848 Z" />
  </g>
</svg>
