<?xml version="1.0" encoding="UTF-8" standalone="no"?>
<svg
   xmlns:dc="http://purl.org/dc/elements/1.1/"
   xmlns:cc="http://creativecommons.org/ns#"
   xmlns:rdf="http://www.w3.org/1999/02/22-rdf-syntax-ns#"
   xmlns:svg="http://www.w3.org/2000/svg"
   xmlns="http://www.w3.org/2000/svg"
   xmlns:sodipodi="http://sodipodi.sourceforge.net/DTD/sodipodi-0.dtd"
   xmlns:inkscape="http://www.inkscape.org/namespaces/inkscape"
   width="210mm"
   height="297mm"
   viewBox="0 0 210 297"
   version="1.1"
   id="svg8"
   inkscape:version="1.0 (4035a4fb49, 2020-05-01)"
   sodipodi:docname="HESSI-REESSI.svg">
  <defs
     id="defs2" />
  <sodipodi:namedview
     id="base"
     pagecolor="#ffffff"
     bordercolor="#666666"
     borderopacity="1.0"
     inkscape:pageopacity="0.0"
     inkscape:pageshadow="2"
     inkscape:zoom="1.0932131"
     inkscape:cx="-649.70376"
     inkscape:cy="476.37392"
     inkscape:document-units="mm"
     inkscape:current-layer="layer1"
     inkscape:document-rotation="0"
     showgrid="false"
     inkscape:window-width="1920"
     inkscape:window-height="1051"
     inkscape:window-x="-9"
     inkscape:window-y="-9"
     inkscape:window-maximized="1" />
  <metadata
     id="metadata5">
    <rdf:RDF>
      <cc:Work
         rdf:about="">
        <dc:format>image/svg+xml</dc:format>
        <dc:type
           rdf:resource="http://purl.org/dc/dcmitype/StillImage" />
        <dc:title></dc:title>
      </cc:Work>
    </rdf:RDF>
  </metadata>
  <g
     inkscape:label="レイヤー 1"
     inkscape:groupmode="layer"
     id="layer1">
    <path
       d="m -1162.5449,-53.193359 c -1.0652,-0.01736 -2.0996,-0.01552 -3.0957,0.0039 -5.3126,0.105758 -9.5607,0.749667 -11.8731,2.048828 -14.3497,8.062001 -10.9016,16.584239 18.793,46.4570312 15.1675,15.2584178 33.2641,33.7864238 40.2148,41.1738278 6.9508,7.3874 20.292,21.094162 29.6465,30.458985 14.8512,14.867482 34.0403,34.515141 123.59182,126.546871 10.10559,10.3855 29.22945,29.9371 42.49805,43.44727 13.26856,13.51016 36.62649,37.3158 51.90625,52.90234 15.27972,15.58662 29.16701,29.48777 30.85937,30.89063 1.82242,1.51055 -2.45136,15.95577 -10.47851,35.42578 l -13.55274,32.87695 -19.78906,6.02539 c -10.88424,3.31427 -23.85077,7.01502 -28.8125,8.22266 -16.6258,4.04644 -92.96938,25.61719 -106.61718,30.125 -7.4217,2.45136 -26.353,7.45665 -42.0703,11.12109 -15.7174,3.66448 -38.7074,9.73058 -51.0879,13.48047 -12.3805,3.74982 -36.6973,10.88564 -54.0391,15.85742 -17.3417,4.97175 -34.9061,10.10491 -39.0312,11.40821 -4.1251,1.30337 -31.8367,8.97571 -61.5801,17.04882 -39.6746,10.76924 -56.2242,16.93364 -62.1367,23.14454 -9.4109,9.8858 -9.5295,11.96006 -2.1973,38.3457 4.4725,16.09455 10.1445,25.73564 29.502,50.14258 20.5697,25.93527 50.0858,52.66819 66.7422,60.44922 v 0.002 c 5.0868,2.3763 30.0908,9.64005 29.9589,5.59375 -0.055,-1.67373 -20.4606,-11.7877 -22.7421,-10.91406 -4.2329,1.62089 -15.2728,-5.09209 -37.461,-22.7793 -18.9355,-15.09437 -54.174,-63.13208 -59.8086,-81.5332 -9.3526,-30.54301 -5.376,-39.45276 20.5664,-46.08594 9.2153,-2.35627 20.1271,-5.40587 24.25,-6.77734 4.1229,-1.37141 15.6096,-4.66046 25.5254,-7.31055 9.9158,-2.65005 30.1887,-8.36375 45.0508,-12.69531 14.8621,-4.33149 29.7295,-8.48965 33.0391,-9.24219 3.3095,-0.75251 31.012,-8.68899 61.5605,-17.63672 30.5484,-8.94773 62.31,-17.85416 70.582,-19.79102 47.46219,-11.11241 186.04543,-52.71794 188.0352,-56.45117 1.2952,-2.43008 2.42409,-3.0302 2.50195,-1.33398 0.0808,1.69644 2.13326,1.24771 4.56055,-0.99805 3.19498,-2.95744 4.44854,-2.95957 4.54492,0.004 0.0987,3.02536 1.7176,3.19395 6.22461,0.64844 5.03516,-2.84418 5.87676,-6.4588 4.8457,-20.84571 -0.94673,-13.20962 -2.11182,-16.6069 -4.82812,-14.09375 -2.77304,2.56545 -2.82082,0.49135 -0.2168,-9.20508 1.84853,-6.88338 6.57623,-14.27362 10.50781,-16.42382 3.9315,-2.15021 6.81986,-5.5591 6.41602,-7.57618 -0.40373,-2.01707 3.47153,-7.96398 8.61328,-13.21484 5.14178,-5.2509 7.07588,-6.39402 4.29687,-2.53906 -4.83889,6.7123 -4.76723,7.31407 1.70899,14.21289 6.73334,7.17265 6.74532,7.16949 2.91601,-0.98828 -3.22401,-6.86821 -3.06169,-8.14056 0.99805,-7.86133 2.66358,0.18321 4.10224,1.76246 3.19727,3.50976 -1.86735,3.60546 10.47763,3.63793 15.88281,0.043 2.37067,-1.57725 3.00708,-0.58417 1.91797,2.99414 -0.8967,2.9461 -3.61494,5.22156 -6.04102,5.05469 -2.42736,-0.16695 -3.46948,1.42392 -2.32031,3.53516 1.44053,2.64645 3.31802,2.70043 6.04687,0.17578 1.48486,-1.37377 7.50288,-9.90541 15.30469,-21.39258 -0.0711,-1.67645 0.0295,-3.33348 0.79102,-4.93164 0.90153,-1.35594 0.9693,-1.64064 2.34765,-2.78516 0.9354,-0.77669 2.43009,-1.47766 3.44727,-2.06054 0.005,-0.003 0.009,-0.005 0.0137,-0.008 19.91168,-29.71837 45.95044,-70.08432 45.88672,-72.03906 -0.0428,-1.31242 -3.05477,0.42937 -6.69336,3.8711 l -6.61523,6.25781 5.46484,-7.46875 c 3.00612,-4.10818 6.49566,-6.67888 7.75391,-5.71094 3.2496,2.49984 29.93419,-37.64949 33.45898,-50.3418 2.03006,-7.31033 5.20347,-10.73819 10.24805,-11.07226 3.62165,-0.23985 7.77401,0.45688 12.00976,1.58398 2.18056,-1.10818 5.25235,-2.84439 8.06446,-2.88476 1.70074,-0.0244 3.30424,0.57368 4.55468,2.30664 0.24654,0.34167 0.43183,0.68794 0.58594,1.03711 0.37515,-0.0172 0.80924,-0.0332 1.4336,-0.0117 2.32711,0.0801 5.83999,0.48958 6.47265,1.69531 0.62315,1.1876 1.02705,2.49447 1.2832,3.82617 0.35258,0.0963 0.69405,0.21787 0.99219,0.42969 0.0232,0.0165 0.0452,0.0465 0.0684,0.0644 1.60987,-0.17384 1.82894,0.60934 1.4082,1.8086 0.0328,0.0554 0.0751,0.11514 0.10547,0.16797 0.0544,0.013 0.0932,0.0199 0.14844,0.0332 0.14798,0.35853 0.1239,0.31604 0.16992,0.43359 0.12051,0.0308 0.25411,0.0708 0.36914,0.0977 -0.64507,1.83145 -0.40628,1.80645 0.80274,0.16406 1.51467,0.24663 2.37224,-0.002 2.33984,-0.99609 -0.0133,-0.40697 -0.21184,-0.93168 -0.55469,-1.54297 0.19333,-0.27946 0.27441,-0.38256 0.48828,-0.69336 5.684,-8.24758 5.45947,-17.09224 -0.58789,-23.15234 -6.27103,-6.28425 -6.06439,-10.7327 1.06641,-22.83204 l 5.98828,-10.1582 -1.4707,9.2207 c -1.06348,6.67149 -0.055,9.93979 3.64648,11.81836 7.27291,3.69117 11.22987,-2.21678 5.39844,-8.06054 -6.99602,-7.01078 -6.11992,-11.78326 1.82227,-9.9336 4.29467,1.00018 6.7925,3.86786 6.66211,7.64453 -0.23709,6.87219 12.07134,13.79202 13.65625,7.67774 0.55906,-2.15679 3.9736,-3.86085 7.58789,-3.78711 0.84964,0.0174 1.44864,-0.0179 1.92773,-0.0801 3.91478,4.02984 31.18087,21.07711 38.61133,29.7793 7.9934,9.36139 14.55167,18.93151 14.57812,21.26562 0.0254,2.33411 -1.43613,1.36599 -3.25,-2.15039 -1.8139,-3.51641 -5.28191,-6.53059 -7.70507,-6.69726 -5.89796,-0.40568 -5.44348,3.09945 1.21484,9.37695 3.0099,2.83764 8.17692,4.44093 11.48242,3.56445 7.75559,-2.05651 10.60209,-1.79859 18.96289,1.71485 10.4939,4.40978 12.64954,-7.15344 3.01367,-16.16602 -9.59153,-8.97128 -14.30809,-9.34333 -16.2832,-1.28125 -1.35844,5.54479 -3.41504,4.21855 -15.28125,-9.85937 -7.21557,-8.56044 -43.05334,-35.7591 -45.69141,-31.07813 -1.05113,-0.58511 -2.6979,-1.32744 -5.09375,-2.28516 -9.06413,-3.62287 -9.63099,-4.54784 -5.60156,-9.1289 2.46584,-2.80342 4.39829,-6.97087 4.30078,-9.26172 -0.10688,-2.441851 -1.32819,-2.05879 -2.95312,0.92773 -2.46403,4.52892 -2.80284,4.50564 -3.03906,-0.20898 -0.11532,-2.300472 -0.26799,-3.461175 -0.67774,-3.511719 -0.40975,-0.05054 -1.07664,1.010659 -2.2168,3.156249 -1.78423,3.35776 -6.88494,4.35078 -15.88086,3.0918 -14.45503,-2.02306 -20.50356,2.61206 -25.63476,19.64844 -2.40091,7.97147 -1.62577,11.03783 5.17383,20.4746 6.73909,9.3531 7.50677,12.33486 4.88476,18.95118 -0.0793,0.20014 -0.10079,0.26354 -0.17578,0.45312 -5.30588,-6.93976 -22.58902,-20.22217 -31.50195,-19.05859 -7.05491,0.92102 -16.5903,1.30315 -21.18945,0.84961 -7.10669,-0.70095 -8.3146,0.60404 -8.05079,8.6914 0.24775,7.59633 -9.37798,20.51439 -47.71093,64.0293 -44.7574,50.80787 -48.43742,54.14476 -54.13672,49.09375 -3.36321,-2.98062 -20.01574,-19.30171 -37.00781,-36.26758 -16.99208,-16.96582 -53.45177,-53.30173 -81.01954,-80.74609 -27.56772,-27.44442 -53.65212,-53.589187 -57.96679,-58.099611 -4.31471,-4.51042 -19.11695,-19.212742 -32.89059,-32.673828 -13.7754,-13.461055 -25.7595,-25.424168 -26.6309,-26.583984 -7.901,-10.516539 -72.0647,-70.263388 -80.2656,-74.740235 -10.8537,-5.924917 -33.9594,-10.284606 -49.9375,-10.544921 z m 526.10935,219.421879 c -0.0551,-0.0131 -0.0962,-0.0205 -0.15039,-0.0332 -0.0403,0.10618 -0.0997,0.22442 -0.14844,0.33594 0.19243,0.0552 0.36808,0.0995 0.54883,0.14648 -0.0811,-0.14909 -0.11726,-0.21862 -0.25,-0.44921 z m -568.75785,513.77734 c 0.1583,4.85261 5.374,3.18654 53.0235,-16.94141 26.0202,-10.99135 71.5365,-29.93912 101.1465,-42.10742 29.6098,-12.1683 70.57801,-29.02135 91.04098,-37.45117 20.46297,-8.42986 37.62842,-15.29769 38.14648,-15.26367 0.51802,0.0356 1.06203,2.84812 1.21094,6.25 1.38637,31.9618 76.51769,120.08079 103.99414,121.9707 4.79339,0.32973 8.49768,2.02775 8.23047,3.77344 -0.66448,4.34111 33.90245,19.19147 42.90625,18.54297 0.96125,-1.43988 3.01135,-2.54233 6.15625,-2.54102 1.85934,10e-4 3.71683,0.004 5.57617,0 1.77135,-0.004 3.54318,0.002 5.31445,0.0137 2.30113,-0.0385 4.62227,-0.21522 6.90821,0.13477 1.09476,0.24775 2.10711,-0.0655 3.11914,-0.41406 l -6.44922,-1.32618 c -9.09593,-1.8712 -15.04486,-4.76891 -14.72852,-7.17382 0.29171,-2.2187 -1.66009,-5.14491 -4.33789,-6.50391 -3.46726,-1.75975 -4.30593,-0.88609 -2.91601,3.0332 1.56408,4.41052 0.29246,4.92764 -6.39844,2.60743 -16.36966,-5.67757 -22.59376,-9.8498 -20.55859,-13.7793 1.41399,-2.72995 -0.58032,-3.50054 -6.63868,-2.56446 -5.79522,0.89583 -13.5182,-1.79754 -23.34765,-8.14257 -16.70385,-10.7825 -19.24322,-11.60449 -15.95703,-5.16407 1.35322,2.65221 1.12926,3.25205 -0.53321,1.43164 -1.57372,-1.7229 -2.91754,-4.85473 -2.98632,-6.95898 -0.0686,-2.10433 -2.04807,-4.69282 -4.39844,-5.75195 -2.95521,-1.33168 -3.44383,-0.3687 -1.58789,3.12109 2.25135,4.23322 1.8164,4.19585 -2.69141,-0.23047 -2.95551,-2.90207 -4.6917,-6.04977 -3.85937,-6.99609 1.68593,-1.91671 -8.20678,-11.2628 -11.38086,-10.75195 -0.23351,0.0376 -0.65461,-0.14936 -1.17188,-0.45899 0.63115,0.56165 1.40326,1.28005 2.50391,2.32813 3.01085,2.86699 5.4949,5.81154 5.51758,6.54492 0.0948,2.90672 -2.46074,0.86485 -6.6211,-5.29102 -1.88546,-2.78984 -2.83669,-4.26424 -2.79492,-4.54883 -2.05612,-1.60474 -4.98143,-4.40909 -7.88086,-7.63867 -16.00309,-17.82512 -27.94132,-37.91496 -35.02344,-58.93945 l -7.10546,-21.0957 -19.38868,6.96679 c -10.66306,3.83161 -44.27868,17.36985 -74.7051,30.08399 -30.4255,12.7141 -70.8034,29.33425 -89.7265,36.93359 -18.9231,7.59923 -35.7373,14.79787 -37.3653,15.99609 -1.6279,1.19861 -16.7679,7.45992 -33.6445,13.91407 -16.8767,6.45415 -30.6453,12.92837 -30.5977,14.38867 z m 335.43754,-30.60938 c 0.54008,0.42152 0.99056,0.72499 1.39453,0.9668 -0.85973,-0.76506 -1.36801,-1.14748 -1.39453,-0.9668 z M -1161.7715,-46.371094 c 9.3484,0.117909 20.8672,1.655209 31.9727,4.578125 23.2959,6.131415 16.8504,0.548636 124.6289,107.949219 161.94092,161.37396 212.93165,211.3881 214.85154,210.74219 1.21066,-0.40727 25.25376,-26.81291 53.42969,-58.67774 28.17585,-31.8648 51.26399,-56.44094 51.30859,-54.61328 0.13988,5.86547 -29.10144,49.00291 -31.80664,46.92188 -2.63792,-2.02926 -23.41069,24.93073 -23.24023,30.16211 0.0508,1.5578 3.07039,0.0159 6.70898,-3.42579 l 6.61524,-6.25781 -5.46485,7.46875 c -3.00612,4.10818 -6.56682,6.62272 -7.91211,5.58789 -1.34521,-1.03487 -9.53499,8.75746 -18.19922,21.75977 -12.36415,18.55463 -16.50114,22.58857 -19.23242,18.75 -2.68361,-3.77147 0.51142,-9.37832 13.9668,-24.5 9.59641,-10.78485 17.39748,-21.20509 17.33398,-23.15625 -0.0636,-1.95113 -9.30131,6.80769 -20.52734,19.46289 l -20.41016,23.00781 6.77539,8.50977 c 5.58335,7.01055 7.58629,7.79701 11.375,4.46484 2.52919,-2.22442 1.67496,0.38147 -1.89843,5.79102 -5.5965,8.47256 -24.17723,15.69474 -20.09375,7.81054 0.8146,-1.57281 -1.45712,-2.16152 -5.04688,-1.30859 -5.24341,1.24578 -6.172,0.38921 -4.72656,-4.35937 1.21183,-3.98147 0.6761,-5.16509 -1.63867,-3.625 -2.38122,1.58388 -2.82631,0.25644 -1.45313,-4.32227 1.09002,-3.63459 -4.67119,0.80305 -12.80273,9.86133 -15.82129,17.62435 -17.34389,20.26994 -10.04883,17.47656 2.66373,-1.02012 3.9033,-0.34283 2.9043,1.58594 -0.95811,1.84998 -2.6867,3.2858 -3.8418,3.1875 -1.81493,-0.15191 -19.50247,-17.56537 -47.57227,-46.83594 -7.75211,-8.08371 -62.79003,-64.2992 -109.5957,-111.94141 -62.38199,-63.49686 -188.19369,-193.045298 -192.89839,-198.626949 -3.4277,-4.06647 -4.2642,-7.377474 -2.4083,-9.492188 2.4209,-2.752307 9.5989,-4.053455 18.9473,-3.935547 z m 556.18361,125.615235 c -2.72878,0.169313 -3.84591,2.092032 -3.10352,5.755859 0.8326,4.108917 4.02686,6.404137 9.31446,6.689453 4.4262,0.23887 8.01221,1.276983 7.96875,2.308594 -0.0435,1.031611 0.12189,3.080333 0.36718,4.550781 0.95513,5.723982 6.51049,2.725262 6.31055,-3.40625 -0.11652,-3.573082 -3.75491,-8.580043 -8.08398,-11.126953 -5.70422,-3.355958 -10.04466,-4.940798 -12.77344,-4.771484 z m 14.28516,32.949219 c -0.83289,0.008 -1.70772,0.16813 -2.51758,0.49414 -2.38659,0.96071 -1.64011,1.84674 1.90429,2.25977 3.20735,0.37363 4.97546,-0.33709 3.92774,-1.58008 -0.65483,-0.77685 -1.92631,-1.18728 -3.31445,-1.17383 z m -77.59961,36.94726 c 1.38814,-0.0135 2.65767,0.39696 3.3125,1.17383 1.04772,1.243 -0.71881,1.95373 -3.92578,1.58008 -3.54441,-0.41287 -4.29088,-1.29905 -1.9043,-2.25976 0.80986,-0.32603 1.68469,-0.48607 2.51758,-0.49415 z m 47.6914,8.75782 c -1.5315,-0.0795 -2.59129,1.20017 -4.14258,3.57031 -2.09268,3.19717 -2.73093,4.81324 -1.41796,3.58984 1.31297,-1.22338 6.80124,1.13039 12.19531,5.23047 17.14496,13.03199 19.5033,9.95474 3.65234,-4.76562 -5.56946,-5.17222 -8.31804,-7.5228 -10.28711,-7.625 z m -23.98633,3.11718 c -0.66731,0.54808 -1.3486,1.07886 -2.0039,1.64063 0.084,0.0328 0.15081,0.0591 0.23437,0.0918 0.59438,-0.57415 1.20999,-1.132 1.76953,-1.73243 z m 3.75,2.14063 c -0.038,-7e-5 -0.0133,0.018 0.0957,0.0606 0.60045,0.23208 1.26773,0.30651 1.9082,0.43554 -0.80987,-0.22828 -1.85566,-0.49581 -2.00391,-0.49609 z m -0.63085,0.0371 c 0.15301,0.0611 0.35439,0.13262 0.63085,0.21289 -0.19953,-0.11101 -0.41202,-0.18873 -0.63085,-0.21289 z m 120.5664,0.0488 c 0.44425,0.0866 2.09521,1.09483 5.01953,2.91015 3.82836,2.37649 6.98539,5.06003 7.01563,5.96289 0.0881,2.70252 -1.51424,1.81443 -7.90039,-4.38476 -3.28193,-3.18583 -4.70595,-4.59964 -4.13477,-4.48828 z m -117.49414,0.53515 c 0.007,0.0379 0.0165,0.0754 0.0234,0.11328 0.12785,0.0186 0.20166,0.0361 0.33984,0.0547 0.27233,0.0367 0.0286,-0.0495 -0.36328,-0.16797 z m 117.40234,13.92969 c -0.83805,0.14163 -4.32477,4.87239 -8.4375,11.53906 -4.70029,7.61906 -11.60127,15.5707 -15.33593,17.66993 -6.36431,3.57728 -6.51705,3.43131 -2.44336,-2.32032 3.86347,-5.45478 3.84642,-5.96632 -0.15039,-4.60351 -2.61306,0.89092 -4.045,4.96829 -3.41797,9.73437 0.59346,4.51087 -1.54126,11.39224 -4.74414,15.29297 -3.20289,3.90073 -7.18488,12.08467 -8.84961,18.18555 -3.49346,12.8029 -3.45594,12.7943 -21.0332,4.48633 -10.94567,-5.17341 -13.96471,-5.51321 -17.11329,-1.9336 -3.14853,3.57962 -2.17999,5.55888 5.49219,11.22852 5.12319,3.786 9.2619,5.26125 9.19727,3.27734 -0.0647,-1.98391 -3.02663,-5.57849 -6.58203,-7.98633 -10.16123,-6.88155 -5.08066,-7.91629 6.57812,-1.33984 5.77655,3.25833 8.53427,5.85141 6.12891,5.76172 -3.17775,-0.11836 -2.74949,1.28984 1.56836,5.15039 4.53876,4.0581 5.17888,6.39145 2.70703,9.87695 -1.77997,2.50991 -7.24197,13.40564 -12.13672,24.21289 -8.15925,18.01486 -8.40944,19.68354 -3.01367,20.05469 7.70313,0.52985 36.38973,-8.40815 36.01367,-11.2207 -0.15912,-1.19882 -0.22913,-5.25288 -0.1543,-9.00977 0.13474,-6.76172 0.1861,-6.75826 5.08399,0.34961 4.79111,6.95305 4.83888,6.93161 1.53515,-0.66016 -2.55757,-5.87671 -2.23076,-12.02982 1.30469,-24.57617 2.59393,-9.20518 5.72502,-17.19654 6.95703,-17.75781 1.23198,-0.56131 2.16575,-3.27167 2.07617,-6.02344 -0.0898,-2.75181 1.20423,-4.90985 2.875,-4.79492 4.02618,0.27693 4.15065,8.46631 0.19727,12.96094 -1.72679,1.96321 -3.39283,7.31927 -3.70313,11.90234 -0.3103,4.58304 -1.36966,13.27959 -2.35351,19.32617 -2.81431,17.29642 -1.37055,17.44779 45.78711,4.75391 20.25728,-5.45283 22.06101,-5.4122 31.84961,0.72852 21.67717,13.59879 58.9481,51.98668 54.91992,56.5664 -1.06677,1.21285 -19.7655,9.62777 -41.55274,18.69922 -124.13564,51.686 -113.44469,46.3076 -111.0996,55.88477 1.65358,6.75481 1.10362,8.19084 -2.45118,6.38672 -2.74775,-1.39457 -5.05212,0.035 -5.74804,3.56445 -0.82825,4.20038 -1.33736,3.6027 -1.77344,-2.08008 -0.2606,-3.39664 -1.65684,-5.78963 -3.75781,-7.17187 -0.11234,0.47227 -0.23728,0.93869 -0.47657,1.35546 -0.41786,0.72779 -1.10652,1.26204 -1.67968,1.875 -0.22164,0.23702 0.41674,-0.49702 0.625,-0.74609 -0.46167,0.5226 -0.92314,1.0458 -1.38477,1.56836 0.3546,-1.13707 -0.1186,0.51317 -1.46094,1.45703 -0.0797,0.056 -0.16928,0.0954 -0.25195,0.14649 3.20765,0.17813 5.07177,2.23847 3.86328,6.20898 -0.96495,3.17038 -2.83206,12.40089 -4.14844,20.51172 -4.00305,24.66402 0.5754,32.44064 44.39063,75.40234 21.83966,21.41428 55.21817,54.44381 74.17383,73.39844 59.69892,59.69586 108.71271,108.51008 148.99023,148.38281 21.43068,21.21532 77.02136,76.24777 123.5332,122.29492 46.51193,46.04708 87.7454,88.20483 91.630864,93.6836 10.605112,14.95306 13.030911,36.35897 6.017578,53.10347 -6.397406,15.2739 -13.570212,18.5421 -31.011722,14.127 -9.46196,-2.3952 -32.27168,-24.192 -131.39648,-125.56055 -65.97075,-67.46411 -122.0439,-125.05892 -124.60742,-127.98828 -3.99001,-4.55962 -4.0981,-6.41924 -0.75,-12.92774 3.89497,-7.57156 3.88393,-7.57704 -2.37696,-1.32226 -3.48264,3.47924 -6.34622,4.46091 -6.41992,2.20117 -0.0732,-2.24356 -1.28789,-3.76217 -2.70117,-3.375 -3.93396,1.07811 -66.09504,-62.54482 -64.36719,-65.88086 0.83377,-1.60985 0.17638,-2.58224 -1.45898,-2.16211 -3.15935,0.8115 -21.82125,-17.2499 -85.00195,-82.26367 -21.56164,-22.18704 -47.30143,-48.17382 -57.19922,-57.74805 -9.89772,-9.57414 -18.05641,-19.2706 -18.13086,-21.54883 -0.0743,-2.27785 -2.18524,-4.28468 -4.69141,-4.45703 -2.50617,-0.17238 -4.51341,1.0475 -4.45898,2.71094 0.0542,1.66348 -3.4094,0.18193 -7.69727,-3.29297 -7.77933,-6.3044 -7.80916,-6.28376 -13.5918,9.9043 -3.18735,8.92252 -4.97501,19.45018 -3.97461,23.39453 1.00079,3.94439 0.9569,6.1511 -0.0957,4.90234 -0.94185,-1.11744 -3.60489,1.33317 -6.20703,5.54688 0.24583,0.0922 0.48417,0.17493 0.75,0.29297 0.0609,0.28555 0.1052,0.57553 0.1582,0.86328 0.52442,-0.39052 1.0604,-0.75745 1.65625,-1.01758 1.62985,-0.71149 3.27036,-0.59205 4.96094,-0.59961 0.21959,1.5e-4 1.6869,0.0127 3.08008,0.0234 0.68096,-0.20418 1.33147,-0.30958 1.93555,-0.31836 0.005,-8e-5 0.0102,6e-5 0.0156,0 0.0704,-0.0115 0.14961,-0.0353 0.2168,-0.041 0.63337,-0.0543 1.27305,0.0484 2.51562,0.11133 3.91739,0.89627 4.19951,0.30417 0.61719,7.5293 0.0426,0.0343 0.0822,0.0712 0.12305,0.10742 3.55971,-3.30263 6.88265,-5.29452 8.375,-4.14648 1.41679,1.08986 2.52682,0.43235 2.46484,-1.46289 -0.0618,-1.89521 -1.844,-4.22832 -3.95898,-5.1836 -2.11491,-0.95531 -0.29056,-2.28896 4.05468,-2.96289 l 7.90235,-1.22461 -5.59766,11.37305 c -6.15292,12.50547 -8.64629,14.52391 -6.36523,5.15234 1.21606,-4.99593 0.53575,-4.85395 -3.85742,0.80664 -0.78112,1.00638 -1.69742,2.27233 -2.64844,3.61524 -0.0168,1.21108 -0.41682,2.64366 -1.35352,4.23633 -2.92932,4.98081 -5.88451,9.92158 -8.46094,15.09375 -0.27817,0.55838 -0.5804,1.10393 -0.83789,1.67187 0.034,0.88331 0.0804,1.76613 0,2.64453 -0.10641,1.16359 -1.03672,2.22986 -2.11523,3.12305 3.7e-4,0.0406 0.004,0.0781 0.004,0.11914 v 4.11719 1.95312 c 2.77547,-0.49526 2.93599,0.8404 0.64062,5.33399 -1.68726,3.30327 -5.43609,10.59963 -8.33008,16.21484 -2.89391,5.61521 -6.80586,9.70808 -8.69336,9.09375 -1.88753,-0.61436 -3.32451,2.17366 -3.19336,6.19727 0.21585,6.61855 -5.77798,16.97109 -9.67187,16.70312 -0.75939,-0.0523 -1.97856,-5.4129 -2.87891,-12.39062 -0.0353,0.0956 -0.0701,0.1915 -0.10547,0.28711 -0.19186,1.15979 -0.0747,0.56701 -1.03906,1.7246 -0.42286,1.79679 -0.58393,2.52904 -0.99414,3.0918 -0.51913,8.71558 -2.50774,12.08241 -8.41797,16.69336 -4.72106,3.68284 -9.17857,6.65731 -9.90429,6.60742 -1.67508,-0.11521 -1.68989,-14.18993 -0.59376,-21.96679 -1.61601,1.0156 -4.71635,2.85841 -4.55468,1.58593 -1.42031,0.33166 0.48875,-0.15384 -2.21289,0.89649 -0.21823,0.0847 -0.48303,0.0284 -0.6875,0.14258 -2.20112,1.22759 -3.1,2.40844 -5.86328,2.21875 -0.90596,1.27299 -1.84813,2.55466 -2.84375,3.83593 l -12.84961,16.53516 8.90234,-20.14258 c -2.17404,0.092 -4.34636,0.10271 -6.51758,-0.24023 -1.01155,-0.16339 -2.02618,-0.30088 -3.0332,-0.49024 -0.43336,-0.0815 -0.85706,-0.21532 -1.28711,-0.31054 0.14368,0.27024 0.29539,0.6019 0.45703,1.04101 0.96083,2.6098 0.95039,5.64821 -0.0195,6.75195 -0.97126,1.10412 -1.75743,-1.03022 -1.74609,-4.74414 0.003,-0.99729 0.0562,-1.73723 0.13476,-2.33789 -1.61988,0.79316 -3.4531,0.99853 -5.17773,1.47266 0.13323,-0.15938 0.32511,-0.28425 0.39843,-0.47852 0.0257,-0.0676 -0.16048,-0.0485 -0.21679,-0.004 -0.46239,0.37822 -0.79909,0.90688 -1.29492,1.24023 -2.08745,1.403 -3.38044,1.73129 -5.35547,1.91602 -0.81922,0.88482 -1.74916,1.66608 -2.71094,2.40234 0.47758,0.35758 1.5759,0.0882 3.39258,-0.60742 3.3394,-1.27873 4.70866,-0.45928 3.98242,2.38281 -0.6271,2.45428 -7.46458,4.36928 -15.77734,4.41992 -16.45134,0.10016 -29.26113,6.81219 -21.00196,11.00391 2.96243,1.5035 4.69687,0.45717 4.5918,-2.76953 -0.18694,-5.7309 10.50949,-6.42274 13.5293,-0.875 1.04806,1.9254 4.09963,2.66114 6.78125,1.63477 3.85833,-1.47746 4.56255,-0.25964 3.37109,5.83984 -1.43399,7.34079 -0.68715,7.73239 15.69336,8.23242 9.45982,0.28876 21.99642,-1.01123 27.85937,-2.88867 5.38389,-1.72399 9.87026,-2.28721 12.86719,-1.85742 0.006,-0.003 0.0252,-0.0109 0.0312,-0.0137 0.85157,-0.46387 1.69163,-0.94854 2.55469,-1.39063 0.1536,-0.0787 -0.2809,0.19905 -0.42188,0.29883 -0.0574,0.0692 -0.25691,0.23727 -0.17187,0.20703 0.49326,-0.16661 1.19354,-0.61011 1.86328,-1.02149 0.13713,-0.096 0.18577,-0.13907 0.33789,-0.24414 0.0389,-0.0155 0.0823,-0.0337 0.125,-0.0508 0.30051,-0.32864 0.58005,-0.64882 0.86719,-0.95898 -0.50938,-0.97012 1.03008,-2.4542 4.38867,-3.74024 0.31888,-0.12211 0.61425,-0.21649 0.89063,-0.29101 0.0804,-0.11635 0.17239,-0.27244 0.26757,-0.43555 0.0512,-0.17461 0.0348,-0.14401 0.0977,-0.35351 0.13425,-0.3145 0.0637,-0.89574 0.40234,-0.94336 0.26764,-0.0376 0.01,0.44861 -0.0859,0.77343 10e-4,0.002 7e-4,0.007 0.002,0.01 0.4358,-1.15468 0.87084,-2.30821 1.30664,-3.46289 1.41497,-1.6868 2.34842,-1.62138 3.71875,-1.92969 0.23574,-0.14975 0.33488,-0.21588 0.69141,-0.43945 0.37854,-0.23739 0.77889,-0.46044 1.19726,-0.63477 0.0389,-0.0554 0.0781,-0.10189 0.11524,-0.10742 0.14919,-0.38207 0.34082,-0.78692 0.59179,-1.19726 0.14517,-0.23759 -0.17718,0.52682 -0.26562,0.79101 0.0441,-0.0633 0.0887,-0.12614 0.13281,-0.18945 0.68941,-1.39109 1.53783,-2.63976 2.48242,-3.51367 0.0113,-0.0104 0.0206,-0.0227 0.0312,-0.0332 0.0266,-0.0828 0.0302,-0.0781 0.0254,-0.0254 0.40963,-0.38481 0.77202,-0.80002 1.10743,-1.22656 0.014,-0.18451 0.032,-0.36831 0.0625,-0.55078 0.0667,-0.3998 0.88102,-2.66594 1.37304,-2.93164 0.33033,-0.17832 -0.22608,0.7163 -0.33984,1.07422 0.24191,-0.38964 0.45834,-0.79813 0.67969,-1.20313 0.15843,-0.8285 0.11931,-1.58315 -0.18946,-2.15039 -0.89605,-1.64625 -0.27155,-3.89672 1.38672,-5 1.65827,-1.10324 2.91877,-4.91999 2.80274,-8.48242 -0.11619,-3.56243 1.65747,-7.1919 3.9414,-8.06641 2.28393,-0.87458 16.06249,-24.50675 30.61719,-52.51562 l 26.46289,-50.92578 44.16406,45.28515 c 43.72547,44.83336 90.41982,92.55411 142.60157,145.73633 14.83669,15.12151 29.0948,29.70557 31.68359,32.41016 2.58875,2.70463 14.1053,14.42198 25.5918,26.03711 11.48647,11.61513 24.88945,25.2938 29.78515,30.39843 12.62687,13.1658 35.44244,36.58438 78.04883,80.10938 20.34134,20.77992 47.67857,48.84598 60.75,62.37109 46.58178,48.1982 57.87057,58.5994 68.73633,63.3301 14.54019,6.3305 16.19226,6.5145 26.61328,2.9609 12.752716,-4.3487 22.025045,-28.6766 18.654296,-48.94529 -1.373159,-8.2568 -4.704483,-18.89423 -7.402344,-23.63868 -2.697778,-4.74447 -40.242912,-43.78135 -83.433592,-86.74804 -43.1907,-42.96669 -81.35035,-80.992 -84.79883,-84.5 -40.50724,-41.20679 -75.92276,-74.9351 -78.98633,-75.22461 -2.09027,-0.19778 -3.84766,-1.83102 -3.90625,-3.62891 -0.084,-2.57578 -137.36577,-140.33415 -219.99804,-220.76367 -9.68848,-9.43019 -14.18735,-16.12257 -13.14454,-19.54883 0.87205,-2.86511 2.82959,-14.17624 4.35157,-25.13672 2.2134,-15.93989 3.93348,-19.85213 8.59375,-19.54297 7.22241,0.47827 9.41014,-6.66325 4.25781,-13.90429 -2.75093,-3.86593 -2.87361,-5.36584 -0.42383,-5.19727 1.89358,0.13024 9.13732,-2.43132 16.09766,-5.69336 6.96038,-3.26207 38.23321,-16.28845 69.49414,-28.94726 57.12325,-23.13162 70.25677,-29.75935 70.07422,-35.36133 -0.15961,-4.89374 -19.07891,-25.78263 -40.12891,-44.30664 -25.47084,-22.41434 -34.92497,-24.24713 -69.35352,-13.4375 -14.85086,4.6629 -27.25686,8.21839 -27.5664,7.90234 -2.24712,-2.29791 5.39451,-36.14958 8.83789,-39.15234 3.52116,-3.0706 3.63708,-6.45077 0.62109,-18.04688 -2.04106,-7.8476 -5.88286,-16.44366 -8.53711,-19.10351 -2.65425,-2.65989 -3.67667,-5.69093 -2.27148,-6.73438 3.40876,-2.53129 20.84373,-32.93627 20.73828,-36.16601 -0.006,-0.17479 -0.0717,-0.24875 -0.19141,-0.22852 z m -13.74609,6.18164 c -0.27395,-0.0268 -0.62451,0.0914 -1.04492,0.3711 -1.61295,1.07314 -2.88394,3.4456 -2.82422,5.27343 0.16569,5.08009 2.307,4.11228 4.12695,-1.86718 0.70115,-2.30381 0.56405,-3.69686 -0.25781,-3.77735 z m -180.73047,19.11328 c -2.35211,-0.16178 -10.57081,7.33362 -18.26562,16.65625 l -13.99024,16.94922 14.81836,-15.80273 c 8.1501,-8.69238 15.65514,-14.81129 16.67969,-13.59571 1.02459,1.21555 2.57702,0.83246 3.44922,-0.85156 0.8722,-1.68402 -0.33933,-3.19367 -2.69141,-3.35547 z m 167.2207,27.14649 c 1.00016,-0.0954 1.82116,0.88734 2.74415,2.74218 1.62126,3.25913 2.3274,7.96517 1.56835,10.45899 -0.75859,2.49386 -5.4977,5.93967 -10.53124,7.65625 l -9.1543,3.12109 7.58594,-13.58203 c 3.95775,-7.08674 6.12059,-10.23748 7.7871,-10.39648 z m -153.55859,9.14844 c -0.25989,0.29337 -0.52205,0.58505 -0.7793,0.88085 0.25416,-0.23326 0.50418,-0.4717 0.75977,-0.70312 0.009,-0.0595 0.0165,-0.11909 0.0195,-0.17773 z m 140.14063,19.36718 c 1.38814,-0.0135 2.65965,0.39696 3.31445,1.17383 1.04772,1.243 -0.7208,1.95568 -3.92773,1.58203 -3.54441,-0.41287 -4.29088,-1.301 -1.9043,-2.26172 0.80984,-0.32602 1.68469,-0.48606 2.51758,-0.49414 z m -186.82422,4.31055 c 0.47574,-0.11114 -0.37378,1.24538 -2.39649,4.25 -2.18222,3.24155 -4.48443,5.8578 -5.11523,5.81445 -2.5002,-0.17197 -0.98589,-2.96091 3.92383,-7.22656 2.04525,-1.77694 3.21786,-2.75145 3.58789,-2.83789 z m 193.84179,1.17969 c 4.66014,0.0938 3.59709,4.01329 -2.33398,21.82226 -4.01877,12.06712 -8.23152,18.33607 -13.73047,20.43164 -21.90236,8.3467 -22.0635,8.17321 -11.64062,-12.53711 12.76607,-25.36602 14.84054,-27.94626 23.55273,-29.29297 1.69547,-0.26167 3.07693,-0.44548 4.15234,-0.42382 z m -147.14062,71.66015 c -0.06,0.11586 -0.11978,0.23178 -0.17969,0.34766 l 0.0723,0.0977 c 0.0838,-0.0679 0.16922,-0.12797 0.2539,-0.18946 z m -95.70313,1.29688 c -1.80959,0.0689 -3.04954,0.82865 -3.07421,2.45703 -0.022,1.45206 -4.64203,8.64147 -10.26563,15.97656 -5.90147,7.69753 -9.44596,10.43336 -8.38281,6.4707 1.54171,-5.74634 1.03233,-5.59163 -3.13086,0.94922 -2.73559,4.29784 -4.13242,8.8125 -3.10352,10.03321 1.0289,1.22067 0.3921,4.2817 -1.41406,6.80273 -2.60655,3.63833 -2.23373,4.18251 1.80273,2.63672 2.8351,-1.08559 4.27965,-4.22298 3.26368,-7.08789 -1.00245,-2.82665 -0.57078,-4.17488 0.95898,-2.99805 1.52973,1.1768 8.23504,-5.39909 14.90039,-14.61328 10.89479,-15.06104 12.79513,-16.29604 18.82813,-12.22656 6.06081,4.08816 6.28994,3.9289 2.35156,-1.63672 -2.73038,-3.85841 -8.19405,-6.51383 -11.92578,-6.75195 -0.27988,-0.0179 -0.55008,-0.0216 -0.8086,-0.0117 z m -22.33789,15.28711 c 0.1822,0.46943 0.41236,0.68438 0.69532,0.64844 -0.23852,-0.20269 -0.46681,-0.42553 -0.69532,-0.64844 z m -17.58398,10.05273 c 0.39927,-0.12013 0.64207,2.38996 0.58984,6.94727 -0.0761,6.62877 -1.82614,12.58679 -3.88867,13.24023 -4.35473,1.37964 -5.15394,-3.60698 -1.31836,-8.21875 1.44847,-1.74155 3.2422,-6.29628 3.98828,-10.12109 0.23315,-1.19526 0.44742,-1.79305 0.62891,-1.84766 z m 84.11133,10.40039 c -0.0427,0.27456 -0.079,0.56415 -0.10742,0.86719 0.10448,-0.27292 0.20263,-0.54791 0.30859,-0.82031 -0.0681,-0.0106 -0.13355,-0.0342 -0.20117,-0.0469 z m 171.56054,56.32422 c -0.007,-0.002 -0.0271,0.008 -0.0605,0.0332 -0.11699,0.0878 -0.22248,0.18913 -0.33594,0.28125 -10e-4,0.002 -0.003,0.004 -0.004,0.006 0.051,-0.003 0.1058,-0.0119 0.15625,-0.0137 0.15029,-0.16138 0.26833,-0.30032 0.24414,-0.30664 z m -67.99609,4.1211 c -8.9e-4,0.002 -0.003,0.004 -0.004,0.006 -0.079,0.18698 -0.17872,0.40147 -0.24218,0.56836 -0.007,0.0189 0.026,0.006 0.0566,-0.004 0.0564,-0.19127 0.12634,-0.38221 0.21484,-0.56836 -0.008,-9.2e-4 -0.0156,-2.8e-4 -0.0234,-0.002 z m 75.93359,8.82226 c 0.33469,-0.0372 0.53025,0.64225 0.55274,2.06055 0.046,2.91027 -0.88122,9.18907 -2.06055,13.95312 -1.72369,6.96329 -2.20626,7.27492 -2.46289,1.5918 -0.17582,-3.88823 0.75132,-10.16702 2.06055,-13.95313 0.82033,-2.37228 1.47984,-3.60447 1.91015,-3.65234 z m -126.49804,4.89844 c -0.0303,0.0487 -0.0615,0.1033 -0.0918,0.15234 -0.26718,0.89136 -0.5313,1.78335 -0.79492,2.67578 0.0181,-0.0299 0.0366,-0.0599 0.0547,-0.0898 0.19904,-0.69585 0.39377,-1.38927 0.62109,-2.10742 0.0669,-0.21124 0.14293,-0.41993 0.21094,-0.63086 z m 103.65625,4.13867 c -0.0189,-1.8e-4 -0.0378,0.002 -0.0566,0.002 -0.005,0.0434 -0.0135,0.0889 -0.0195,0.13282 0.17813,-0.0728 0.26774,-0.13306 0.0762,-0.13477 z m -16.88867,13.82813 c -0.11968,0.005 -0.24835,0.013 -0.35547,0.0137 -0.0546,0.0732 -0.11374,0.1395 -0.17969,0.19726 0.16984,-0.0334 0.34816,-0.10331 0.53516,-0.21093 z m -28.04493,13.92382 c -1.32211,0.52664 -2.63367,0.99579 -3.57226,1.04297 -0.19668,0.94121 -0.40555,2.02052 -0.64063,3.28516 -1.06715,5.74084 -3.22136,12.33156 -4.78711,14.64648 -1.56582,2.31489 -1.94644,4.27207 -0.84765,4.34766 1.09874,0.0755 0.72627,3.0128 -0.82617,6.52734 -1.55241,3.51455 -1.83825,7.55854 -0.63477,8.98633 h 0.002 c 1.20344,1.42775 2.61894,0.92951 3.14649,-1.10547 0.52747,-2.0349 2.2177,-2.73208 3.75586,-1.54883 1.56744,1.20582 1.86954,-3.02279 0.6875,-9.62109 -1.64444,-9.17919 -1.32549,-10.55436 1.44922,-6.24219 2.78645,4.3304 3.07999,3.20459 1.35546,-5.1914 -1.67792,-8.16923 -1.38872,-9.40865 1.20899,-5.20313 3.96911,6.42603 4.04459,1.64038 0.13867,-8.79883 -0.15867,-0.42407 -0.29269,-0.75948 -0.43555,-1.125 z m 56.78125,11.5918 c 0.0714,0.24424 0.108,0.50396 0.12696,0.77148 0.13673,0.0253 0.20646,0.041 0.375,0.0703 0.11346,0.0198 0.17924,0.0471 0.2832,0.0684 -0.26402,-0.31345 -0.53196,-0.64372 -0.78516,-0.91016 z m -8.87109,6.5957 c 0.0727,0.33805 0.0852,0.69753 0.0625,1.0625 0.19331,-0.14707 0.47855,-0.35291 0.6875,-0.50195 -0.25233,-0.20399 -0.5031,-0.39282 -0.75,-0.56055 z m -62.50391,0.60938 c 2.1e-4,0.0768 -3.3e-4,0.15363 0,0.23047 0.02,-0.0671 0.0212,-0.14316 0,-0.23047 z m -73.94922,21.59961 c -0.31395,0.0425 -0.81471,0.45333 -1.56835,1.36328 -0.83428,1.00732 -1.78812,1.92657 -2.50782,3.01758 0.0249,0.29017 0.0404,0.33401 0.0703,0.78711 0.0151,0.23584 -0.26447,-0.49617 -0.13672,-0.69532 0.0204,-0.0318 0.0456,-0.0602 0.0664,-0.0918 -0.023,-0.26879 -0.0339,-0.29295 -0.0527,-0.45899 -5.93718,14.35065 -5.67341,16.24609 -1.1543,19.46094 3.10587,2.20947 4.61355,5.67082 3.4668,7.95898 -1.11897,2.2328 0.26188,1.98127 3.07812,-0.56054 7.01817,-6.33437 10.92028,-0.73509 11.15821,15.70898 0.24418,-0.40878 0.54573,-0.82191 0.93554,-1.24414 1.18719,-0.98681 2.41607,-1.51839 3.70508,-1.80664 0.0591,-0.28164 0.12527,-0.4819 0.20313,-0.51953 0.0935,-0.0452 0.20035,0.0964 0.31836,0.42383 1.17951,-0.20416 2.40717,-0.23941 3.70312,-0.23438 1.87653,0.41218 3.29534,1.0469 4.81641,2.00782 0.73699,-0.0127 1.47378,-0.044 2.21679,-0.10938 3.59852,-0.3162 2.10647,-0.5624 3.4336,4.21289 1.26397,1.18455 2.34421,4.82723 2.69922,10.57422 0.45447,0.22164 0.91366,0.40456 1.38086,0.50586 1.32817,0.82087 2.68843,1.5934 4.02929,2.39453 2.35636,-1.06581 4.70838,-2.14108 7.07227,-3.18945 0.38072,-1.47226 0.50261,-2.97288 0.3164,-4.41016 -0.58084,-4.48709 0.76529,-7.32834 3.38477,-7.14844 2.39172,0.16449 6.36022,-3.0864 8.82031,-7.22461 2.46014,-4.1382 4.51665,-6.18227 4.57032,-4.54101 0.0535,1.64122 2.08439,1.14615 4.51171,-1.09961 2.42733,-2.24576 4.36038,-5.67087 4.29688,-7.61328 -0.0634,-1.94242 -2.31422,-1.50827 -5.00195,0.96679 -4.45754,4.10487 -4.54514,3.84921 -1.00391,-2.93164 2.13517,-4.08842 4.9859,-6.58589 6.33398,-5.54882 1.34812,1.03706 1.56403,-0.61452 0.48047,-3.66993 -1.32672,-3.74109 0.57264,-6.51742 5.81836,-8.5039 9.7671,-3.69872 9.79364,-5.12174 0.0996,-5.58008 -7.2432,-0.34246 -13.18696,7.41751 -23.19726,30.2832 -1.64735,3.7629 -6.01963,7.13918 -9.7168,7.50391 -3.69721,0.36499 -6.66279,2.49677 -6.58984,4.73633 0.073,2.23952 -2.1099,0.39246 -4.85157,-4.10352 -2.74174,-4.49594 -6.57185,-8.2826 -8.50976,-8.41601 -1.93792,-0.13331 -9.40334,-3.21519 -16.58985,-6.84766 l -13.0664,-6.60352 1.34375,-3.23242 c -0.53945,-0.15328 -1.0669,-0.34192 -1.56055,-0.62695 -0.53586,-0.30941 -0.23359,-0.91404 0.23438,-1.5586 0.39613,-0.77984 0.74234,-1.23361 1.04687,-1.4121 0.0295,-0.0461 0.0806,-0.1025 0.10547,-0.14649 0.16091,-0.28422 0.50311,-0.8955 0.72461,-0.85351 -0.44712,-2.47669 -0.3127,-4.90373 1.07226,-7.09766 0.0358,-0.0471 0.0642,-0.10113 0.0977,-0.15039 0.3805,-2.07998 0.58795,-3.76928 -0.10352,-3.67578 z m -1.89648,11.92383 c -0.27271,0.42628 -0.69339,0.92562 -1.04687,1.4121 -0.0691,0.13602 -0.13669,0.26289 -0.20899,0.41993 -0.50455,1.09589 0.43908,-0.15404 1.83203,-1.73633 -0.0787,0.0569 -0.16256,0.0997 -0.24804,0.11133 -0.0521,0.007 -0.0228,-0.12328 0.0391,-0.29297 -0.11667,-0.0135 -0.2372,0.01 -0.36719,0.0859 z m -90.5,-2.95508 c -0.19134,0.19423 -0.38279,0.38555 -0.57617,0.57617 0.18349,-0.12041 0.37638,-0.3158 0.57617,-0.57617 z m 91.4707,2.58789 c -8.8e-4,0.007 -0.003,0.0125 -0.004,0.0195 l 0.006,-0.006 c -0.001,-0.004 6.1e-4,-0.01 -0.002,-0.0137 z m -73.05664,0.67383 c -0.55644,-0.0709 -1.60982,0.15716 -3.02539,0.69922 -5.79915,2.2201 -6.63525,23.78331 -1.08789,28.05078 1.93213,1.48648 2.59922,6.89256 1.61719,13.09375 -1.18972,7.51241 -0.68987,9.90917 1.73047,8.29882 2.37925,-1.58301 2.99601,0.71188 2.04883,7.62891 -1.17143,8.55519 -0.68789,8.17774 3.57617,-2.79687 4.1811,-10.7613 5.79099,-12.07434 10.59375,-8.63868 3.11501,2.22887 6.39233,3.22183 7.2832,2.20899 0.89087,-1.01288 -2.13606,-4.05122 -6.72656,-6.75196 -6.88279,-4.05029 -8.84646,-4.05247 -11.19922,-0.0215 -2.17002,3.71868 -2.48466,3.13582 -1.31055,-2.43555 0.93717,-4.44729 -0.32997,-9.20275 -3.22656,-12.10547 -2.62397,-2.62915 -4.87502,-8.01288 -5.00391,-11.96093 -0.22427,-6.87682 0.0211,-6.90061 5.85157,-0.58203 3.3473,3.62762 7.50378,5.65201 9.23828,4.49804 4.7139,-3.13632 3.57041,-9.75292 -1.35938,-7.86523 -4.80363,1.83938 -12.16912,-6.57589 -8.95508,-10.23047 0.57132,-0.64959 0.51071,-1.01899 -0.0449,-1.08984 z m 71,1.8125 c 0.51535,0.52101 0.96786,0.99098 1.38477,1.43359 l 0.42578,-1.02734 c -0.60964,-0.12 -1.21653,-0.24768 -1.81055,-0.40625 z m -82.89258,0.80468 -12.00781,0.0195 c -1.24094,0.002 -2.48061,0.0752 -3.70117,0.18164 -0.37383,0.15109 -0.73278,0.29966 -1.125,0.45703 -0.7502,0.301 -1.46529,0.69895 -2.23828,0.93554 -1.04852,0.32085 -2.13792,0.48707 -3.20703,0.73047 -1.24298,0.58562 -2.63431,0.37105 -3.95117,0.53321 -0.3825,0.2393 -0.69482,0.48652 -0.91797,0.74023 -2.22777,2.5327 0.4914,3.38884 9.41797,2.96875 l 12.55078,-0.58984 0.41797,12.82812 c 0.53057,16.26343 2.19648,14.25878 3.64257,-4.38476 z m 179.38477,2.76954 c 2.78311,0.23855 3.11358,6.30614 -1.44531,13.65624 -2.85627,4.60525 -6.21765,8.35459 -7.46875,8.32813 -4.02921,-0.081 -2.57577,-8.64168 2.87109,-16.91016 2.45453,-3.72606 4.58515,-5.19939 6.04297,-5.07421 z m -213.02344,8.14257 c -6.92847,0.39932 -3.04298,8.20426 12.89258,26.26563 16.04874,18.1895 23.37513,22.38357 23.07617,13.21289 -0.24623,-7.55048 -27.69103,-38.99677 -34.43945,-39.46094 -0.55766,-0.0384 -1.0674,-0.0442 -1.5293,-0.0176 z m -34.53906,2.44532 c -0.0216,0.02 -0.043,0.0406 -0.0644,0.0605 0.0573,0.56371 0.11054,1.07824 0.17187,1.72461 0.0143,-0.0102 0.0229,-0.0192 0.0371,-0.0293 -0.0505,-0.60133 -0.0419,-0.52536 -0.14453,-1.75585 z m 37.57031,2.96093 11.78907,12.95508 c 6.48378,7.1249 11.80532,13.43758 11.82421,14.02734 0.0879,2.69689 -2.56483,-0.0202 -12.71093,-13.01757 z m 227.35547,0.95703 c 2.35918,0.16226 3.62804,1.56936 2.82031,3.12891 -0.80768,1.55943 -1.99073,2.7997 -2.6289,2.75586 -0.63818,-0.0439 -1.90707,-1.45301 -2.82031,-3.13086 -0.91333,-1.67792 0.26972,-2.91643 2.6289,-2.75391 z m -272.25195,0.75196 c -0.12544,0.0548 -0.24246,0.11811 -0.36914,0.17187 0.14568,-0.0172 0.2996,-0.0454 0.44922,-0.0684 -0.0279,-0.034 -0.0535,-0.069 -0.0801,-0.10351 z m 30.80859,0.58789 c -0.28442,-0.007 -0.59576,-0.006 -0.93359,0.002 -0.7722,0.0181 -1.68361,0.0693 -2.72461,0.13086 -9.31914,0.55056 -19.86924,9.44948 -18.66992,15.74609 0.42304,2.22108 -2.28366,3.45728 -6.01367,2.74805 -8.15392,-1.55029 -15.11093,10.25433 -8.13086,13.79688 2.38767,1.21183 5.90039,0.026 7.80664,-2.63477 1.90628,-2.66079 4.93985,-4.73725 6.74023,-4.61328 2.25192,0.15485 2.24371,1.39616 -0.0195,3.9707 -5.24704,5.96538 1.47912,20.50923 19.5625,42.30274 8.95378,10.79077 14.73708,19.51245 12.85352,19.38281 -4.12411,-0.28365 -3.0686,8.93575 1.66601,14.55273 2.42578,2.87959 3.94397,2.97397 5.3125,0.33204 2.45348,-4.73711 7.59479,-4.44979 7.75391,0.43359 0.0671,2.05708 -1.27643,2.665 -2.98633,1.34961 -1.70997,-1.31543 -3.02833,0.0849 -2.92969,3.11328 l -0.002,-0.002 c 0.20213,6.19755 4.95959,7.7087 7.6875,2.4414 0.98506,-1.90189 3.09372,-2.45507 4.68555,-1.23047 1.59174,1.2245 2.84972,0.8459 2.79492,-0.83984 -0.055,-1.68582 1.85293,-6.00958 4.24023,-9.60742 4.27612,-6.44425 4.31795,-6.43787 2.79688,0.40039 l -1.54493,6.94141 4.74415,-6.72071 c 3.35402,-4.75219 4.06987,-10.27286 2.44335,-18.8457 -1.47715,-7.78817 -1.02644,-12.97415 1.26172,-14.49609 1.95935,-1.3036 2.52174,-4.28088 1.25,-6.61719 -1.69005,-3.10488 -3.36188,-3.2784 -6.21289,-0.64063 -3.02403,2.79784 -8.92931,-2.41099 -26.2832,-23.18554 -15.14022,-18.12462 -22.00687,-24.46999 -21.2168,-19.60547 1.41026,8.68305 8.6794,19.51718 11.73243,17.48633 3.22662,-2.147 16.21107,15.18919 13.5996,18.1582 -1.22025,1.3875 -0.86445,2.23223 0.79102,1.87695 4.98433,-1.06979 13.78982,5.16223 17.10938,12.10938 3.18973,6.67642 -2.71153,31.43095 -7.41602,31.10742 -1.23625,-0.085 -13.17981,-12.13079 -26.54297,-26.76758 l -24.29687,-26.61133 7.04492,-12.2539 c 8.80478,-15.31299 6.92801,-18.53161 -3.41406,-5.85352 -4.28996,5.25827 -6.18585,6.89657 -4.2129,3.64062 1.97314,-3.2555 2.78973,-5.97374 1.81446,-6.04101 -0.97531,-0.0671 3.71781,-5.90524 10.42968,-12.97266 9.88658,-10.40959 11.69601,-12.38272 7.42969,-12.48437 z m -6.94726,3.55859 c 0.53098,-2.4e-4 0.65117,0.36982 0.25195,1.14063 -2.03437,3.92787 -13.47349,11.34383 -13.55664,8.78906 -0.0266,-0.81615 3.44696,-3.96878 7.7207,-7.00586 2.67116,-1.89817 4.69901,-2.92343 5.58399,-2.92383 z m 86.62109,2.19336 c -0.47678,-10e-4 -1.07439,0.13621 -1.79492,0.41211 -2.37668,0.90996 -3.5182,3.12918 -2.53711,4.93164 2.47113,4.53986 3.57124,4.21193 5.33594,-1.58594 0.76158,-2.50177 0.42644,-3.75346 -1.00391,-3.75781 z m 111.05664,7.96485 c -2.63507,-0.20981 -4.92334,3.4983 -6.05664,9.17578 2.12908,-0.92682 4.26161,-1.84839 6.39648,-2.76172 1.3009,-0.55646 2.47504,-0.81502 3.49805,-0.84375 2.0775,-0.0583 3.53196,0.83723 4.16602,2.13672 1.68389,-3.98142 2.05018,-6.15619 0.79297,-4.83008 -1.27869,1.3488 -4.11992,0.65621 -6.3125,-1.54102 -0.84349,-0.84525 -1.6799,-1.27222 -2.48438,-1.33593 z m -32.79883,9.25585 c -0.0594,0.0605 -0.10605,0.11094 -0.14843,0.15625 0.0392,0.008 0.078,0.0171 0.11718,0.0254 0.0103,-0.0595 0.0213,-0.12025 0.0312,-0.18165 z m -159.57812,0.0664 c 0.37733,0.13785 1.61845,1.27876 3.78906,3.3457 3.01085,2.867 5.4949,5.81155 5.51758,6.54493 0.0948,2.90672 -2.46115,0.86489 -6.62109,-5.29102 -2.22825,-3.29704 -3.17069,-4.77684 -2.68555,-4.59961 z m 144.08789,3.64453 c -0.004,0.0353 -0.009,0.0684 -0.0137,0.10352 0.0118,-0.0136 0.0213,-0.0295 0.0332,-0.043 -0.007,-0.0201 -0.0128,-0.0404 -0.0195,-0.0605 z m 0.26562,0.75 c -0.0145,0.008 -0.0451,0.007 -0.0547,0.0156 -0.0872,0.0819 -0.15723,0.18012 -0.23828,0.26758 0.11686,-0.0457 0.2324,-0.0943 0.3457,-0.14844 -0.0179,-0.0448 -0.0352,-0.0898 -0.0527,-0.13477 z m 61.22657,0.73438 c -0.005,-0.0199 -0.0101,-0.004 -0.0195,0.0605 -0.006,0.041 -0.005,0.0837 -0.01,0.125 0.0123,-0.003 0.0248,-0.005 0.0371,-0.008 1.9e-4,-0.0888 -0.003,-0.15661 -0.008,-0.17773 z m -68.73243,10.74023 c -0.0436,-0.003 -0.45579,0.2752 -0.46093,0.38086 0.33801,-0.25428 0.48503,-0.37912 0.46093,-0.38086 z m 21.60547,6.6543 c -0.14817,0.0695 -0.29521,0.14138 -0.44336,0.21094 0.16047,0.0231 0.32383,0.0471 0.48438,0.0703 -0.0132,-0.0959 -0.029,-0.18116 -0.041,-0.28125 z m -61.86718,1.24219 c -0.29652,0.42551 -0.59784,0.84763 -0.90821,1.26367 0.33979,-0.37608 0.64426,-0.80342 0.90821,-1.26367 z m -130.71485,1.90039 8.54688,9.23242 c 5.55488,6.00007 7.269,9.75328 4.89648,10.72265 -2.00768,0.82035 -2.28029,1.6873 -0.60547,1.92579 9.34243,1.33054 8.54796,-5.13068 -1.60937,-13.08594 z m 243.3125,7.58984 c -0.003,0.003 -0.005,0.0183 -0.006,0.0488 -0.0157,0.46675 -0.003,0.93469 0.0137,1.40234 0.0391,-0.22702 0.0809,-0.45288 0.1211,-0.67969 -0.0394,-0.21052 -0.10746,-0.7931 -0.12891,-0.77148 z m -0.0312,1.67188 c -0.01,0.0224 -0.0217,0.0439 -0.0312,0.0664 -0.0548,0.1273 -0.0792,0.54817 -0.0527,0.41211 0.0315,-0.159 0.0557,-0.31894 0.084,-0.47851 z m -131.36719,4.11914 c -0.26921,1.51811 0.1599,1.57115 1.4004,0.34375 -0.18214,-0.22863 -0.62948,-0.3503 -1.4004,-0.34375 z m 125.92774,10.44726 c -0.40251,0.0792 -0.79946,0.15376 -1.19922,0.23047 0.53043,0.10177 1.0481,0.19126 1.53516,0.25195 -0.10428,-0.19737 -0.21654,-0.35922 -0.33594,-0.48242 z m -1.19922,0.23047 c -0.0704,-0.0135 -0.14026,-0.0272 -0.21094,-0.041 -0.0451,0.0366 -0.0848,0.0569 -0.13086,0.0977 0.11683,-0.0214 0.22363,-0.034 0.3418,-0.0566 z m -214.31836,-0.0586 c -1.40569,0.10325 -0.5636,1.60337 2.64063,5.76562 2.7654,3.59222 4.04216,7.77659 2.83789,9.29883 -1.20427,1.52224 0.1706,1.9346 3.05468,0.91601 3.46791,-1.22438 5.30024,-0.0942 5.41211,3.33594 0.0931,2.85271 1.40945,5.27107 2.92383,5.375 3.96435,0.2727 0.0154,-13.07638 -5.5039,-18.60742 -2.57269,-2.57809 -6.71908,-5.17336 -9.21485,-5.76758 -0.96395,-0.22951 -1.68182,-0.35082 -2.15039,-0.3164 z m 69.26758,1.48437 c -0.81805,0.0557 -1.32585,0.60248 -1.28711,1.79102 0.0546,1.67361 2.23973,4.12793 4.85547,5.45507 3.67502,1.8652 4.08765,3.92363 1.82031,9.05665 -1.61378,3.65351 -1.94681,9.42767 -0.74023,12.83007 2.02741,5.71556 2.50325,5.702 6.25976,-0.19531 2.23563,-3.50982 5.45006,-5.85027 7.14453,-5.20117 1.69444,0.64906 2.37292,-0.1238 1.50586,-1.7168 -0.86713,-1.59299 1.6648,-4.48006 5.62696,-6.41601 6.20651,-3.03258 7.23176,-2.63964 7.41015,2.83398 0.0479,1.46752 0.37205,2.80749 0.92578,4.02149 0.53689,-0.3299 1.0742,-0.65893 1.61133,-0.98829 0.71773,-0.67323 1.50758,-1.32936 2.36719,-1.97461 -1.48629,-1.64439 -2.58991,-3.33435 -2.96875,-4.82812 -1.07073,-4.22167 -3.94274,-6.95781 -5.99609,-7.07422 -0.68239,0.48156 -1.36137,0.99737 -2.03516,1.54102 -0.15485,0.49621 -0.23364,1.11152 -0.20899,1.86718 0.0634,1.94245 -2.45204,3.35449 -5.58984,3.13868 -0.23879,-0.0164 -0.48879,-0.007 -0.74414,0.0156 -1.32123,0.7972 -2.66774,1.37532 -4.0625,1.5625 -2.11141,1.31209 -4.20458,3.31376 -5.6543,5.63086 -4.62274,7.38871 -4.67436,7.39209 -1.89062,0.125 1.41475,-3.6928 1.89284,-8.72474 1.21484,-11.86719 -0.68516,-0.43869 -0.99388,-1.07539 -0.69726,-2.03125 -1.95801,-4.11766 -6.59929,-7.73046 -8.86719,-7.57617 z m -2.63477,14.15039 c -0.47349,0.0911 -0.73582,2.05014 -0.62695,5.38867 0.15836,4.85602 0.91419,6.89159 1.67773,4.52149 0.76347,-2.37007 0.63284,-6.34406 -0.28906,-8.83008 -0.28809,-0.77687 -0.54649,-1.12147 -0.76172,-1.08008 z m -37.73828,2.83594 c 1.57221,0.10809 3.75558,1.84395 4.85156,3.85742 1.09595,2.01343 -0.13936,3.51509 -2.74414,3.33594 -2.60477,-0.17919 -4.78806,-1.91501 -4.85156,-3.85742 -0.0633,-1.94245 1.17197,-3.44441 2.74414,-3.33594 z m 29.31445,18.10742 c -1.40533,-0.0263 -3.0536,0.65728 -5.30859,1.98633 -3.50835,2.06778 -7.41504,3.35042 -8.68164,2.85156 -1.26656,-0.49886 -2.251,0.68259 -2.1875,2.625 0.0634,1.94245 2.16571,3.67336 4.67188,3.84571 2.5062,0.17197 4.61487,2.08877 4.68554,4.25781 0.0719,2.20482 2.77941,3.31274 6.14258,2.51367 3.90954,-0.9289 6.0727,0.30898 6.17773,3.53711 0.0891,2.73184 1.48712,5.05842 3.10547,5.16992 1.61847,0.11131 2.1019,-2.16405 1.07618,-5.05664 -1.54413,-4.35405 -0.10202,-4.55764 8.37304,-1.18555 12.75394,5.07462 14.85954,5.23057 14.72461,1.0918 -0.0591,-1.81342 -3.88377,-4.05956 -8.49804,-4.99023 -2.76436,-0.55748 -4.7605,-1.3864 -6.0918,-2.56055 -1.28929,1.43186 -2.45298,2.32883 -3.1211,1.49023 -4.57271,-5.73952 -5.19916,-7.10727 -3.61132,-8.83007 -2.14778,1.28533 -4.07103,0.35641 -6.45508,-2.99415 -1.78696,-2.51138 -3.19457,-3.71807 -5.00196,-3.75195 z m 126.95899,4.28516 c -0.13553,0.17942 -0.29267,0.39567 -0.45508,0.62304 -10e-4,0.0334 -3.7e-4,0.0762 -0.002,0.10938 0.13618,-0.12422 0.32044,-0.32159 0.36523,-0.44727 0.0362,-0.10162 0.06,-0.18824 0.0918,-0.28515 z m 9.67187,15.24609 c 1.04217,0.0615 1.35091,0.78896 0.69532,2.05469 -0.95815,1.85 -3.0294,3.27606 -4.60157,3.16797 -4.36966,-0.30055 -3.48896,-2.76615 1.69727,-4.75196 0.66593,-0.25503 1.24361,-0.40513 1.71875,-0.45507 0.17818,-0.0187 0.34135,-0.0244 0.49023,-0.0156 z m 2.38477,3.74609 c -0.006,8e-4 -0.0154,0.003 -0.0215,0.004 -0.01,0.0239 -0.0226,0.0467 -0.0332,0.0703 0.0176,-0.025 0.0374,-0.0491 0.0547,-0.0742 z m -46.82617,2.21094 c 0.73678,0.0507 1.38963,1.68255 1.45312,3.625 0.0634,1.94242 -1.33217,3.43225 -3.10156,3.31055 -1.76923,-0.1217 -2.42434,-1.75361 -1.45508,-3.625 0.96922,-1.8714 2.36674,-3.36119 3.10352,-3.31055 z m -22.48828,7.21875 c 1.64318,0.0241 2.89083,1.50319 2.96484,3.77149 0.10556,3.23682 2.06901,4.48784 5.41797,3.45312 4.43252,-1.36955 4.55968,-1.07704 0.81836,1.875 -2.43783,1.92355 -6.59566,3.37604 -9.24024,3.2207 -5.82878,-0.33509 -6.74521,-9.9541 -1.15234,-12.0957 0.41161,-0.15761 0.81221,-0.23016 1.19141,-0.22461 z m 29.95312,0.3418 c 1.57221,0.10813 3.75561,1.84395 4.85156,3.85742 1.09595,2.01343 -0.13741,3.51509 -2.74218,3.33594 -2.60478,-0.17919 -4.78807,-1.91497 -4.85157,-3.85742 -0.0633,-1.94242 1.17002,-3.44404 2.74219,-3.33594 z m 21.85742,7.75 c -0.16511,0.17818 -0.13058,0.14263 -0.33203,0.35937 0.13838,-0.0719 0.27345,-0.14943 0.41016,-0.2246 -0.0349,-0.0428 -0.0524,-0.0896 -0.0781,-0.13477 z m -85.94922,5.91016 c 1.38814,-0.0135 2.65961,0.39697 3.31446,1.17382 1.04772,1.24313 -0.71848,1.95388 -3.92578,1.58008 -3.54441,-0.41284 -4.29284,-1.29908 -1.90625,-2.25976 0.80986,-0.32602 1.6851,-0.48607 2.51757,-0.49414 z m 12.26758,4.36718 c 1.38815,-0.0134 2.65768,0.39697 3.3125,1.17383 1.04773,1.24313 -0.71843,1.95387 -3.92578,1.58008 -3.5444,-0.41284 -4.29043,-1.29909 -1.9043,-2.25977 0.80988,-0.32602 1.6847,-0.48606 2.51758,-0.49414 z m 60.97266,7.00586 c -0.0698,-0.002 -0.1369,0.005 -0.20703,0.002 -0.0347,0.0239 -0.0689,0.0483 -0.10352,0.0723 0.1105,-0.0207 0.21716,-0.0457 0.31055,-0.0742 z m 356.82422,9.61524 c -3.34584,0.27656 -9.77063,5.73656 -17.48633,14.97265 -7.83224,9.37554 -12.12559,15.30789 -9.54102,13.18164 2.5846,-2.12613 5.75151,-2.61894 7.03711,-1.09375 1.28561,1.52516 1.81151,0.56894 1.16797,-2.125 -0.64354,-2.69393 1.42803,-5.22254 4.60352,-5.62109 3.17548,-0.39832 8.96054,-4.34897 12.85742,-8.7793 5.62318,-6.39311 6.16108,-8.52553 2.60156,-10.33203 -0.34715,-0.17619 -0.76226,-0.24263 -1.24023,-0.20312 z m -9.02735,11.30664 c 0.39397,0.0405 0.72606,0.20037 0.96875,0.48828 0.97078,1.1517 -0.65079,3.01072 -3.60351,4.13086 -4.26697,1.61881 -4.62772,1.18749 -1.76367,-2.09571 1.48646,-1.70343 3.21654,-2.64501 4.39843,-2.52343 z"
       transform="scale(0.26458333)"
       style="fill:#000000;stroke-width:3.27178"
       id="path80" />
  </g>
</svg>
