<?xml version="1.0" encoding="UTF-8" standalone="no"?>
<svg
   xmlns:dc="http://purl.org/dc/elements/1.1/"
   xmlns:cc="http://creativecommons.org/ns#"
   xmlns:rdf="http://www.w3.org/1999/02/22-rdf-syntax-ns#"
   xmlns:svg="http://www.w3.org/2000/svg"
   xmlns="http://www.w3.org/2000/svg"
   width="210mm"
   height="297mm"
   viewBox="0 0 210 297"
   version="1.1"
   id="svg8">
  <defs
     id="defs2" />
  <metadata
     id="metadata5">
    <rdf:RDF>
      <cc:Work
         rdf:about="">
        <dc:format>image/svg+xml</dc:format>
        <dc:type
           rdf:resource="http://purl.org/dc/dcmitype/StillImage" />
        <dc:title></dc:title>
      </cc:Work>
    </rdf:RDF>
  </metadata>
  <g
     id="layer1">
    <path
       id="path84"
       d="m -250.70188,143.01584 52.19629,-37.02643 3.99207,-0.99802 8.88235,-6.287505 4.39127,-1.19762 0.89822,-0.898216 1.69663,-1.097817 1.29742,0.399206 4.19167,-2.994051 0.29941,0.399206 -3.99207,3.193656 v 1.497025 l -2.09584,1.596827 -2.39524,4.391279 -8.58294,6.58691 -1.39723,3.69266 -50.79907,40.31989 -0.1996,3.19365 -1.69663,1.99604 -0.69861,-0.29941 c 0,0 -0.1996,-0.59881 -0.89821,0.0998 -0.69862,0.69862 -0.69862,0.69862 -0.69862,0.69862 l -0.3992,0.89821 -3.09386,-2.69464 -1.09782,0.79841 -2.49504,-2.59484 c 0,0 -0.2994,-0.69862 -0.2994,-1.09782 0,-0.39921 0,-0.39921 0,-0.39921 l 0.99801,-0.0998 -2.49504,-3.09385 -0.69861,0.2994 -2.39524,-3.09385 -0.1996,-0.49901 1.79643,-1.19762 c 0,0 -0.79842,-0.39921 -0.49901,-0.79841 0.2994,-0.39921 -0.39921,-0.89822 0.2994,-0.39921 0.69862,0.49901 0.69862,0.59881 0.69862,0.59881 0,0 -1.39723,-0.69861 -0.29941,-1.19762 1.09782,-0.49901 1.19762,-0.49901 1.19762,-0.49901 l -2.39524,-2.99405 c 0,0 -3.29346,-3.39326 6.98612,0.79841 z"
       style="fill:none;stroke:#000000;stroke-width:0.264583px;stroke-linecap:butt;stroke-linejoin:miter;stroke-opacity:1" />
  </g>
</svg>
