<?xml version="1.0" encoding="utf-8"?>
<!-- Generator: Adobe Illustrator 24.1.2, SVG Export Plug-In . SVG Version: 6.00 Build 0)  -->
<svg version="1.1" id="レイヤー_1" xmlns="http://www.w3.org/2000/svg" xmlns:xlink="http://www.w3.org/1999/xlink" x="0px"
	 y="0px" viewBox="0 0 595.28 841.89" style="enable-background:new 0 0 595.28 841.89;" xml:space="preserve">
<style type="text/css">
	.st0{fill:none;stroke:#E60012;stroke-width:0.1;stroke-miterlimit:10;}
</style>
<path class="st0" d="M153.14,323.75l-7.71,57.26l40.01,26.43l44.04,29.51l2.94,2.06l7.71,4.77l2.61-6.17l1.76,0.08l-0.8,8.26
	l8.66,14.27l15.07,10.26l-0.96,4.81c0,0,3.13,3.13,5.37,3.13c2.24,0,2.81-1.36,2.81-1.36l-5.69-3.77l0.8-1.76l15.07,10.26l16.19,0.4
	l2.73-1.12l2-3.13l3.13,2.16l-2.32,6.73l9.78,6.73l48.95,31.74l4.24,1.94l50.35,33.39l34.45-52.11l2.65-4.77l-54.23-33.39l-4.06-2.3
	l-52.64-32.33c0,0-0.35-2.12,0.88-3s15.55-16.08,15.55-16.08l3.18-0.53c0,0,3.04-2.87,2.95-4.35c-0.09-1.48,0.14-2.46,0.14-2.46
	l1.02-0.19v-6.21c0,0-3.66-4.96-6.95-6.49s-10.66,3.11-10.66,3.11l1.21-3.38l1.3-1.9l0.14-2.74l-1.76-0.05l0.09-0.79l2.5-0.46
	c0,0,3.11-1.81,3.15-2.64c0.05-0.83-0.7-2.69-0.7-2.69l-1.39-2.36c0,0-2.23-1.16-2.83-1.21c0.14-1.21,0.05-2.78,0.05-2.78
	l-4.82-3.25l-2.36,0.19c0,0-1.25,1.99-2.92,1.85c-1.48-1.95-3.89-3.01-4.77-3.15s-1.95,1.67-1.95,1.67l4.77,2.78
	c0,0-0.51,2.09-1.53,2.41c-1.81-1.34-5.1-3.11-5.1-3.11l-14.74,12.52l-2.5-1.62l13.77-12.56l8.72-6.72l-10.15-6.26l-2.18,0.05
	l-5.56,4.96l-1.02,2.09l-4.73,3.62l-6.86-0.32l-11.27,9.83l-2.6-2.18l4.77-3.43c0,0-0.14-1.53-0.32-1.48
	c-0.19,0.05-4.54-2.27-4.54-2.27l-2.32,1.34l-0.19,1.67l-4.13,3.01l-7.42,0.32l-5.79,0.74l-14.28,10.89l-2.78,0.19l-3.43-1.85
	l1.44-3.62l4.68-4.27l-9.69-6.17l-3.57-1.07l-43.48-27.07l-3.29-1.99l-43.48-26.75L153.14,323.75z"/>
<path class="st0" d="M194.74,359.75l-6.85,36.27c0,0,1.61,1.14,2.08,0.34s7.46-35.53,7.46-35.53S196.01,358.67,194.74,359.75z"/>
<path class="st0" d="M185.8,406.7l2.08,1.68l0.74-6.11c0,0-1.41-1.28-2.08-0.74C185.87,402.06,185.8,406.7,185.8,406.7z"/>
<polygon class="st0" points="201.25,346.98 203.54,348.33 198.5,351.42 198.5,357.6 196.48,355.58 196.48,349.94 "/>
<path class="st0" d="M242.43,389.3l-9.61,36c0,0,1.75,1.54,2.42,0.87c0.67-0.67,9.47-34.73,9.47-34.73l-0.34-2.15H242.43z"/>
<polygon class="st0" points="251.63,377.01 246.79,380.77 246.46,387.02 244.71,385.2 244.71,379.63 249.15,376.54 "/>
<polygon class="st0" points="232.08,429.94 233.9,431.15 231.75,436.95 229.93,435.58 "/>
<path class="st0" d="M273.99,423.97c0,0,22.16-0.99,20.87,22.96c0,0-5.06,7.16-6.11,7.16c0-4.8-0.21-11.27-0.7-11.89
	c-0.49-0.63-2.99-5.63-8.69-9.6s-12.52-2.02-12.52-2.02S273.06,424.32,273.99,423.97z"/>
<path class="st0" d="M274.36,442.83l-3.27,3.82c0,0-0.83,2.85,0,3.76c0.83,0.9,2.85-0.7,2.85-0.7l2.92-4.03l-0.42-3.27
	L274.36,442.83z"/>
<polygon class="st0" points="259.88,399.58 245.61,442.41 254.5,456.89 287.01,479.11 299.88,479.11 317.19,436.95 308.77,420.94 
	272.51,399.58 "/>
<path class="st0" d="M299.64,404.89l3.74-9.75l-2.2-5.83l-6.28,1.62l-2.28,8.65c0,0-0.81,1.64,2.28,4.21
	C294.91,403.79,296.41,404.75,299.64,404.89z"/>
<polygon class="st0" points="321.74,439.03 308.64,471.84 311.75,473.84 325.51,441.42 "/>
<polygon class="st0" points="335.95,447.64 320.52,481.61 322.51,483.39 337.95,449.97 337.28,447.64 "/>
<polygon class="st0" points="337.28,443.97 338.95,444.97 341.94,439.34 344.28,436.95 342.28,435.09 340.78,437.31 339.17,440.03 
	"/>
<polygon class="st0" points="318.96,486.83 321.18,488.49 318.96,493.38 317.07,491.27 "/>
<polygon class="st0" points="372.48,513.7 390.24,481.39 393.13,482.83 375.48,515.03 "/>
<polygon class="st0" points="397.57,473.84 400.68,470.4 397.57,468.29 395.02,472.06 392.46,477.72 394.68,479.83 "/>
<polygon class="st0" points="370.15,519.47 372.48,521.47 369.7,525.25 367.04,523.25 "/>
<path class="st0" d="M253.83,396.64l-10.45,35.98l2.23,1.46l11.06-35.55C256.67,398.54,256.08,397.58,253.83,396.64z"/>
<polygon class="st0" points="337.28,420.94 327.77,430.38 322.4,434.09 327.87,434.09 329.23,433.21 329.84,430.96 335.09,427.52 
	335.97,424.71 337.95,423.15 340.78,424.81 342.52,423.97 338.51,421.49 "/>
<polygon class="st0" points="349.74,410.36 351.6,410.36 353.06,411.24 354.63,411.24 354.63,409.97 351.79,408.4 349.74,408.4 
	349.74,409.82 "/>
<polygon class="st0" points="356.38,416.31 358.43,414.46 358.43,418.17 356.38,420.94 "/>
<polygon class="st0" points="343.88,428.33 345.64,426.96 345.64,430.77 344.28,432.23 "/>
<polygon class="st0" points="330.01,371.19 334.51,367.29 333.53,366.11 328.45,370.7 329.04,371.58 "/>
<polygon class="st0" points="323.57,369.63 325.42,370.41 331.48,374.12 330.01,375.2 323.57,371 322.4,371 "/>
<polygon class="st0" points="312.63,385.74 318,380.96 318,379.98 316.54,380.47 311.75,384.57 311.75,385.74 "/>
<polygon class="st0" points="335.78,411.63 343.88,402.15 346.32,402.15 351.31,391.6 351.31,389.85 340.78,399.58 342.03,401.37 
	333.43,409.82 333.43,412.21 335.39,412.21 "/>
<polygon class="st0" points="351.31,380.86 337.83,393.46 333.04,389.85 330.4,396.64 335.58,401.03 336.75,399.58 337.28,397.86 
	348.57,387.02 349.25,384.08 352.18,381.78 "/>
<polygon class="st0" points="303.39,402.64 319.37,412.21 326.94,426.96 325.51,428.13 318.39,413.68 303.39,404.11 "/>
<polygon class="st0" points="290.65,394.05 280.88,387.99 279.42,388.67 290.17,395.61 "/>
<polygon class="st0" points="262.72,393.17 274.83,392.58 313.12,416.51 321.52,431.55 320.52,432.23 312.53,417.7 274.44,393.46 
	262.72,394.24 "/>
</svg>
