<?xml version="1.0" encoding="utf-8"?>
<!-- Generator: Adobe Illustrator 24.1.2, SVG Export Plug-In . SVG Version: 6.00 Build 0)  -->
<svg version="1.1" id="レイヤー_1" xmlns="http://www.w3.org/2000/svg" xmlns:xlink="http://www.w3.org/1999/xlink" x="0px"
	 y="0px" viewBox="0 0 595.28 841.89" style="enable-background:new 0 0 595.28 841.89;" xml:space="preserve">
<style type="text/css">
	.st0{fill:none;stroke:#E60012;stroke-width:0.1;stroke-miterlimit:10;}
</style>
<g>
	<path class="st0" d="M358.76,173.47c0,0-17.26-9.48-37.18,4.69c-5.22,7.32-10.67,18.61-10.67,18.61l-2.08,27.38l0.26,4.34
		l-0.87,0.42l5.1,10.47l5.23,3.46l54.93-17.65c0,0,6.21-12.89,6.29-14.63C379.84,208.85,381.75,187.11,358.76,173.47z"/>
	<path class="st0" d="M323,179.18c0,0-9.94,13.78-7.35,44.43c0.61,0.63,2.1,0.83,2.1,0.83l54.37-23.86
		C372.12,200.58,359.04,158.85,323,179.18z"/>
	<path class="st0" d="M326.63,181.57c0,0-8.56,11.88-6.41,37.5c-0.95,1.54-2.76,3.5-2.76,3.5l47.95-20.89l0.78-3.46
		C366.19,198.23,352.23,164.17,326.63,181.57z"/>
	<path class="st0" d="M319.03,244.16l-5.61,14.45c0,0,23.99-5.82,26.77-5.18c3.43-1.82,24.16-9.91,32.57-8.15
		c3.01-3.01,3.45-9.7,3.45-9.7s-2.42-6.69-3.94-8.1C367.98,228.81,319.03,244.16,319.03,244.16z"/>
	<path class="st0" d="M298.85,267.64c0,0-10.74-1.48-15.78,0.52c-5.04,1.99-5.92,6.2-5.82,6.42c0,0-20.04,13.9-21.81,16.91
		c-1.76,3.01-10.7,14.91-10.59,18.09c0.11,3.18-12.63,20.52-12.63,20.52s-18.37,16.85-19.68,17.85s13.43,0.29,16.55,5.95
		c3.12,5.66,1.45,13.3,1.45,13.3s32.36-14.68,35.42-17.25c3.06-2.57,5.2-13.66,5.2-13.66l3.2-2.28c0,0,11.43-57.64,20.71-60.72
		c6.41-5.28,9.83-8.58,9.83-8.58L298.85,267.64z"/>
	<path class="st0" d="M208.63,349.48c0,0-13.67,9.53-15.33,15.72c-0.71,1.49-6.43,15.95-2.14,22.2c0.53,0.77,2.4,1.95,3.36,1.87
		c1.09-0.09,2.43-2.58,1.53-4.82c-1.84-4.59-2.22-8.95-1.56-9.5c0.42-0.35,1.11,9.72,3.79,10.33c3.56,0.82,5.88-1.9,5.2-3.11
		c-0.8-1.4-6.51-13.73-4.01-14.95c3.28,7.02,5.18,13.88,8.91,11.22c3.73-2.66,0.34-11.84,0.34-11.84l0.6-5.26
		c0,0,2.82-2.45,5.25,0.32c2.43,2.77,4.24,8.71,6.55,9.02s7.56-5.12,7.58-6.56c0.02-1.44-1.77-10.27-8.25-11.78
		S213.53,349.96,208.63,349.48z"/>
	<path class="st0" d="M408.65,252.08c0,0-8-7.24-13.58-5.24c-5.59,2-17.86,29.17-16.87,31.2c0.99,2.03,1.91,10.92,1.91,10.92
		l-3.09,5.1c0,0,4.63,13.19,3.03,14.33c-1.6,1.14-5.04,12.51-5.04,12.51l-3.66,4.29l-8.51,12.76l-0.24,2.63
		c0,0,13.26,9.35,16.87,22.67c14.31-1.58,26.71-13.01,26.71-13.01s16.15-14.69,19.93-29.1c3.26-5.9,6.22-15.24,3.96-18.45
		c-2.27-3.21-18.41-33.41-18.41-33.41s1.36-6.05,0.11-10.83C410.51,253.68,408.65,252.08,408.65,252.08z"/>
	<path class="st0" d="M354.97,343.94l-14.61,2.45l-9.82,0.47l-11.26,7.64c0,0-1.64,10.85-4.24,10.68c-2.6-0.17-6.86,7.29-7.88,8.15
		c-1.02,0.86-0.5,6.35,3.11,6.39c3.61,0.04,16.22-10.41,16.22-10.41l-17.29,16.32c0,0,0.21,7.8,5.27,7.13
		c5.06-0.67,20.67-15.81,20.67-15.81s-13.2,19.36-12.37,22.54s3.99,5.24,6.48,2.23c2.49-3.01,19.52-21.12,19.52-21.12l-8.8,16.38
		c0,0,1.69,5.16,5.73,6.07s12.92-19.94,12.64-21.24s12.5-11.95,12.5-11.95S364.17,348.8,354.97,343.94z"/>
	<path class="st0" d="M309.54,262.43l-6.28,14.39l-0.29,18.59l2.04,7.14c0,0-0.39,9.53,2.85,17.65c0.09,5.34-1.24,12.94,0.23,15.22
		c1.47,2.28,4.09,0.28,4.09,0.28s4.06-19.69,8.31-23.5c-2.26-2.43-2.96-4.61-2.96-4.61l4.65-2.98c0,0,22.27-41.37,29.92-42.94
		c-0.69-4.69,3.08-5.81,3.08-5.81l3.19-1.56l1.13,2.32c0,0,9.87-4.81,16.35-3.29s-2.54-5.23-2.54-5.23s-8.91-4.28-30.98,7.18
		C325.25,258.57,321.76,259.51,309.54,262.43z"/>
	<path class="st0" d="M379.76,252.49c0,0,13.06-5.64,12.77-6.22c-6.28,6.29-14.32,20-16.87,26.58c0.78,6.76,1.84,15.58,1.84,15.58
		l-3.51,4.58l2.16,14.03c0,0-1.69,9.8-6.82,16.97c-3.22,4.44-7.46,9.38-8.58,12.8c-3.57,2.82-11.54,5.62-11.54,5.62
		s-20.55,4.26-21.83,2.37c-3.31-0.9-7.67,1.22-7.67,1.22l-2.71-5.57l6.75-7.53c0,0,7.27,9.03,17.77-0.39s-1.95-20.24-1.95-20.24
		s-4.89-1.93,5.68-18.57c5.13-7.17,5.34-13.37,5.34-13.37S375.64,254.31,379.76,252.49z"/>
	<path class="st0" d="M333.08,313l-8.11,16.54c0,0,2.79,6.47,8.62,1.11c5.83-5.35,11.55-13.53,7.81-14.58
		C337.66,315.02,333.08,313,333.08,313z"/>
	<path class="st0" d="M275.19,337.18l-0.72,16.95c0,0,14.46-18.25,17.06-18.8c2.61-0.55,6.91,1.66,6.91,1.66l-2.8-5.76l-12.02-1.09
		c0,0-0.98-0.54-0.83-1.69s0.54,3.33,0.16-1.15c-0.39-4.48,4.14-23.21,7.76-23.89c-0.65-7.23-0.47-17.93-0.47-17.93L275.19,337.18z"
		/>
	<path class="st0" d="M292.29,308.14l2.55,14.08l-2.23,5.75c0,0-6.07,0.8-5.31-3.52C288.07,320.13,292.29,308.14,292.29,308.14z"/>
	<path class="st0" d="M271.87,364.29c0,0-44.37,10.67-56.22,15.09c-10.59,7.75-28.96,10.59-30.28,39.61
		c5.25,22.58,6.41,36.03,6.41,36.03l38.59-3.35l3.68,6.08l2.09-6.02l4.76,0.19c0,0,0.88-13.72-0.55-15.17s6,0.67,6,0.67l6.7-0.39
		c0,0-1.24-33.52,1.99-37.96c3.22-4.44,29.31-24.33,36.17-25.87c6.86-1.55,5.86-10.04,5.86-10.04l4.59-3.67l-1.7-3.48
		c0,0-11.78,7.89-13.05,5.28c-3.36,3.43-6.42,6-9.88,5.53C274.75,365.05,271.87,364.29,271.87,364.29z"/>
	<path class="st0" d="M191.45,459.49c0,0,12.8,74.22,14.49,78.42c-2.96,7.19-9.2,23.15-15.41,23.67
		c-6.22,0.51-26.79,6.94-33.47,10.19c-6.68,3.25-2.29,12.25,2.01,14.46c5.02,2.94,17.42,4.8,17.42,4.8s-0.91-9.25,7.5-12.63
		c8.41-3.38,29.51-5.03,36.69-14.63s21.62-37.47,20.21-54.38c-1.41-16.91,1.29-55.6,1.29-55.6l-8.9,9.75l-5.25-8.58
		C228.03,454.96,195.52,456.79,191.45,459.49z"/>
	<path class="st0" d="M256.82,458.9c0,0,31.27,10.99,36.62,10.9c5.34-0.09,11.81,2.87,16.89,0.75
		c-0.31,15.59-12.78,41.06-12.78,41.06s-16.46,37.83-23.99,44.36c0.8,11.82-0.86,18.01-0.86,18.01s4.34,13.33-0.9,17.32
		c2.68,6.24,3.22,9.56,0.43,14.16c-2.79,4.59-21.28,4.98-26,0.45c-10.43,2.92-67.84-2.88-64.29-11.07
		c-0.6-11.56,6.81-16.25,6.81-16.25s13.59-1.59,23.16-4.81c9.56-3.22,24.2-21.84,24.51-23.43c0.31-1.59,5.96-17.99,5.96-17.99
		L256.82,458.9z"/>
	<path class="st0" d="M256.21,453.09c0,0,1.34-49.6,3.91-51.7c2.17-5.13,14.69-14.82,14.69-14.82l17.39-11.34l5.58-2.72l3.82-0.07
		l3.44,7.07l0.52,7.52l4.69,7.41l6,1.99l3.25,6.68l4.92,3.1c0,0-5.11,5.36-3.61,13.61c-1.97,9.22-12.1,34.14-11.45,44.35
		C287.87,463.53,283.27,461.46,256.21,453.09z"/>
	<path class="st0" d="M380.13,370.12c0,0,0.37,12.03-0.99,14.85c-1.37,2.82-16.08-1.5-16.08-1.5l11.99-10.87
		C375.04,372.6,378.55,370.17,380.13,370.12z"/>
	<path class="st0" d="M259.59,476.23c0,0,11.2,3.85,14.66,5.06c-1.1,8.81-6.21,28.54-7.84,31.84c-1.62,3.3-12.47,32.65-12.47,32.65
		l7.61-9.45l13.79-39.4l4.39-13.99c0,0,20.91,5.33,24.06,5.16c0.32-3.03-9.92-4.15-9.92-4.15s-31.1-9.28-32.67-11.03
		C259.63,471.18,259.59,476.23,259.59,476.23z"/>
	<path class="st0" d="M232.52,467.86c0,0,2.97,47.4,2.07,50.71c-0.9,3.31,1.18-44.03,1.18-44.03L232.52,467.86z"/>
	<path class="st0" d="M314.65,355.69c0,0-2.77,5.16-9.9,6.09c-1.35,0.28-1.24,1.48-1.24,1.48l1.75,1.06l-3.11,5.08l2.69,1.36
		c0,0,7.34-7.62,9.62-7.35c1.76-2.38,2.76-5.28,2.87-6.35C317.45,355.98,314.65,355.69,314.65,355.69z"/>
	<path class="st0" d="M226.81,347.93l15.36-9.39c0,0,4.04,4.64,4.01,7.19c-0.03,2.55-15,8.32-15,8.32S228.79,349.13,226.81,347.93z"
		/>
	<path class="st0" d="M273.28,308.29c0,0-9.87,11.28-10.38,11.28c-0.51-0.01,3.75,10.31-11.96,20.02
		c1.09,4.58,0.91,13.55-0.23,14.49c7.83-2.29,9.74-0.2,15.09-9c5.01-10.31,9.2-20.73,8.61-22.22c-0.6-1.49-1.47-6.14-1.47-6.14
		S272.9,309.61,273.28,308.29z"/>
	<path class="st0" d="M314.35,238.28c0,0,21.83-6.85,22.74-7.46c0.91-0.61,25.08-10.87,25.08-10.87l13.05-6.36l1.9-0.93l-5.16,11.51
		l-53.49,17.73l-3.95-3.29"/>
	<path class="st0" d="M296.79,340.28l-11.15,18.44l10.52-9.35l2.05-1c0,0-0.27-3.03,3.14-5.63c-1.63-2.58-2.46-3.9-2.46-3.9
		L296.79,340.28z"/>
	<path class="st0" d="M388.67,258.79c0,0,7.57,4.51,9.65,7.71c4.91,0.39,9.69,1.07,10.59,1.29c1.83-3.51,1.9-10.62-1.17-13.71
		c-3.08-3.09-10-5.74-10-5.74l-5.29,2.58L388.67,258.79z"/>
	<path class="st0" d="M425.12,304.57c0,0-9.17,15.07-9.22,15.5c-0.06,0.42,0.12,13.96,0.12,13.96s11.78-13.2,12.72-27.94
		C428.07,304.18,426.85,305.17,425.12,304.57z"/>
	<path class="st0" d="M231.81,376.62c-13.85,2.73-24.8,11.71-33.17,18.9c-8.38,7.19-7.3,34.62-7.3,34.62s35.21,0.57,34.21-1.49
		s4.16-22.97,4.16-22.97s11.87-6.76,12.39-7.92c0.51-1.16,5.69-8.62,2.57-13.13L231.81,376.62z"/>
	<path class="st0" d="M260.62,432.75c0,0,38.02,3.04,39.59,0.64s5.8-16.23,5.8-16.23s6.12-14.06,7.81-13.97
		c-6.52-8.52-9.4-14.06-9.4-14.06s-2.69-10.02-2.54-10.46c0.15-0.44-1.8-3.69-1.8-3.69l-4.29,0.19l-20.61,13.95
		c0,0-9.92,12.32-11.49,16.19C261.14,411.3,260.21,429.66,260.62,432.75z"/>
	<path class="st0" d="M346.64,258.01c0,0-16.19,8.63-17.12,11.43c-4.11-0.93-19.68,3.15-22.29,5c0.94,0.32-1.7,3.72-1.7,3.72
		s19.46-6.52,23.82-3.37c5.3-4.14,9.36-9.83,17.54-12.25C348.95,260.76,346.64,258.01,346.64,258.01z"/>
</g>
</svg>
