<?xml version="1.0" encoding="utf-8"?>
<!-- Generator: Adobe Illustrator 24.1.2, SVG Export Plug-In . SVG Version: 6.00 Build 0)  -->
<svg version="1.1" id="レイヤー_1" xmlns="http://www.w3.org/2000/svg" xmlns:xlink="http://www.w3.org/1999/xlink" x="0px"
	 y="0px" viewBox="0 0 595.28 841.89" style="enable-background:new 0 0 595.28 841.89;" xml:space="preserve">
<style type="text/css">
	.st0{fill:none;stroke:#E60012;stroke-width:0.1;stroke-miterlimit:10;}
</style>
<g>
	<path class="st0" d="M256.89,287.03l-61.46,31.49h-2.54v1.12l3.96,2.74c0,0,0,1.52-1.02,2.64c-2.44,0.41-5.59,0-5.59,0
		s-3.05,3.05-4.06,3.05c-1.02,0-5.89-4.37-7.82-5.69c-1.02,1.63-1.02,2.23-1.02,2.23l-25.09,11.68l-37.38,18.59l-14.43,7.31
		c0,0-2.13-0.51-2.64-1.63c-0.51,1.52,0,2.74,0,2.74s18.49,14.73,19.1,14.43c0.61-0.3,56.99-30.07,56.99-30.07l19.4-10.26
		l-7.01-5.03l-47.95,24.53l-26.82,13.92l-2.95-3.25l70.6-35.66l3.86-2.03l-2.74-2.34c0,0,0.51-1.12,1.22-0.71
		s14.63,10.06,15.44,9.96c0.61-0.71,1.22-2.44,1.22-2.44l1.73,1.63l-0.2,3.86l-0.71,1.73l-13.82,7.62l-17.98,9.04l-25.8,13.71
		l-16.66,8.94h-2.13v1.63l20.22,15.75l1.52-0.71l29.56-16.96l23.67-13.61l6.6-3.45h1.63c0,0,2.84,3.25,3.76,2.13
		c0-1.12-0.2-4.67-0.2-4.67l11.07-6.7l-8.33-5.59l-37.89,21.23l-20.62,11.17l-16.86,9.35l-3.76-3.25l36.67-19.91l21.64-11.89
		l9.14-5.28l2.13-1.32l0.1,3.15l5.08-2.54l-0.1-4.17l-2.23-2.03l0.91-1.52l5.49,4.17c0,0,0.2,1.63,0.91,1.52s3.05-0.1,3.45,0.2
		c1.63,1.22,7.42,5.49,7.42,5.49l1.52-1.93l1.42,0.51l0.1,5.69l0.81,0.71l0.2,7.62l0.91,0.51v6.1l0.71,1.02v1.93
		c0,0-0.41,1.12-0.61,1.42c-0.2,0.3,0.1,2.34,2.03,2.95c1.93,1.93,4.47,2.03,4.47,2.03l-0.3-5.28c0,0-0.3-1.32,0.91-1.42
		c0.1-1.12-1.32-0.91-1.32-0.91l-0.1-5.28l-0.91-0.61v-5.38l1.12,1.02l0.1,3.15l3.15,0.2c0,0-0.1-1.02,0.3-1.52
		c0.41-0.51,1.32-1.32,1.32-1.32s1.22,0.1,1.22,1.52s0.1,9.55,0.1,9.55l1.73,0.2c0,0-0.1,1.22,0.71,1.22c0.81,0,1.32-1.32,1.93-1.63
		c0.61-0.3,3.76-0.61,3.76-0.61s-0.1-1.93,0.2-1.93c0.3,0,3.25-3.56,3.25-4.17s2.13,0.41,2.13,0.41v4.17c0,0,8.43,5.69,8.53,4.47
		c0.1-1.22,0-2.84,0-2.84s0.81-0.91,1.73,0c-0.1,2.34,1.32,3.96,2.13,4.88c0.81,0.91,2.95,1.42,2.95,1.42s1.93,2.34,1.83,4.88
		c-1.42,0.91-0.81,2.13-0.81,2.54c1.12,0.3,2.74,0.3,2.74,0.3l0.81,2.03l2.03,1.32l-11.68,9.24c0,0-11.17-7.11-12.6-7.72
		c-1.42-0.61-3.15-0.2-3.15-0.2s0-2.95-1.02-3.96c-1.02-1.02-1.63-0.3-2.84-0.2s-4.17,2.64-4.17,2.64s-1.02,1.73-0.2,2.74
		c0.81,1.02,1.73,1.32,1.73,1.32l-0.3,1.63h-1.42c0,0,0,1.73,0.2,2.23s2.84,4.67,2.84,4.67l10.97,7.82l1.73,0.71
		c0,0-1.02,1.52-1.02,2.44c-1.73-0.2-2.13,0.71-2.13,0.71l0.41,2.44l2.54,2.46l1.63-0.84l1.02-1.63c0,0,1.73,1.22,2.44,1.22
		c0.71,0-0.2-2.23-0.2-2.23l3.96,0.61l21.43,14.63l4.47,0.51c0,0-2.74,4.17-6.3,7.72c-0.1,1.73,0.1,2.84,0.1,2.84l2.34,0.81
		l0.3,1.52h2.95v1.83h1.83v1.93h3.35l3.35-4.27c0,0,1.93-0.1,2.44,0.3s2.95,3.15,4.37,3.96c1.42-0.51,2.23-2.03,1.83-4.27
		c-2.03-1.52-3.05-2.64-3.05-2.64l2.13-0.61l1.02-2.64l3.96-0.2c0,0,1.32,0.2,2.84,1.42c0.71-2.13,0-2.74,0-2.74l-3.35-0.91
		l-3.25-3.35l-5.49-5.49l-2.03,0.2l-1.02,1.42h-1.72v-0.91l-2.35,0.1c0,0,0.41-1.22,1.32-2.34c-0.1-1.63-0.1-5.38-0.1-5.38
		l1.13-1.32v-1.83h-1.74l-2.03,2.03l-0.1-11.68l1.32-0.1c0,0,0.63,1.22,2.55,0.91c1.92-0.3,5.68-1.63,6.09-2.64s0.1-7.21,0.1-7.21
		l3.86,3.56l0.3,1.22l6.82,1.22l1.72,0.91v4.57l7.21,5.49l4.17-0.2v-2.84c0,0,13.21,7.82,13.31,8.43c0.1,0.61-4.67,3.86-4.67,3.86
		v3.15l-1.22,0.41l0.2,4.37l2.54,1.42l-0.51,1.32l-34.44,27.23l-29.36,23.47l-5.89,4.67h-2.54l0.41,2.34l13.31,9.35l0.71,2.13
		l1.83,1.83l2.84,0.41l11.99,9.55h3.05l0.81-1.52l35.05-30.98l31.9-28.04l7.92-6.91l-11.07-7.62l-25.9,20.52l-20.72,17.27
		l-22.45,18.69l-8.53,7.21l-5.69-4.47l20.11-17.57l15.24-12.39l14.63-11.78l11.28-9.75l6.6-5.69l2.74-2.23l-0.41,6.4l9.55-6.1v-2.13
		l4.77,0.1l11.58,7.62c0,0,1.42-0.2,1.12-1.52c-1.63-0.91-11.58-7.31-11.58-7.31s-1.32,0.81-1.22-0.91
		c1.02-0.51,2.74-1.93,2.74-1.93l20.32,13c0,0,3.86,1.32,4.67,1.73c0.81,0.41,0.51,4.88,0.51,4.88l-4.98-2.64
		c0,0-1.73-0.51-1.73-0.2c0,0.3,0.1,0.71,0.91,1.22s4.57,3.15,4.57,3.15s0.2,1.73-0.3,1.93c-0.51,0.2-6.4-3.45-6.4-3.45
		l-13.92,12.09l-28.75,25.4l-22.76,20.72l-10.67,9.85l-1.93,0.51l0.41,1.12l13.1,10.97c0,0,0.71,0.51,1.12,1.42
		c0.41,0.91,1.52,2.34,1.52,2.34s2.23,0.41,3.56,0c1.42,1.63,7.72,6.4,7.72,6.4l7.52,5.49h1.93v-1.42l19.4-18.18l27.23-27.02
		l21.54-21.43l6.81-7.01l-13.92-8.53l-30.37,29.36l-22.65,21.23l-14.43,13.92l-7.11,7.01c0,0-3.86-1.73-3.86-2.64
		c-1.32-1.22-2.74-3.15-2.34-4.27c1.83-1.22,22.55-21.64,22.55-21.64l21.94-19.91l12.39-11.17l7.62-7.42c0,0-1.32,5.59-0.3,6.3
		c1.02,0.71,10.16-6.4,11.78-8.94c0-1.52,0-3.25,0-3.25l1.32-0.51v-2.84l5.99,3.45l13.31,8.03c0,0,1.22,0.51,1.32,0.1
		s-0.41-1.73-0.81-2.13s-13.61-7.92-13.61-7.92l-1.32-0.61c0,0,4.37-2.95,4.17-3.96s-0.41-3.25-0.41-3.25s-1.42-1.93-1.12-3.35
		c2.54,0.51,5.18,1.32,5.18,1.32l1.12-0.3v-1.83l4.67-3.76l15.03,8.03h2.03v-1.52l18.18-16.96l28.24-28.04l9.24-9.04
		c0,0,2.13-1.32,2.34-1.63c0.2-0.3-3.56-2.84-3.56-2.84l-10.97-4.98l-1.32-1.73l-3.76,0.3l-0.3-1.63l-12.9-6.2h-1.42l0.1,2.23
		l-20.01,17.37l-16.86,14.32l-15.44,14.12l-4.77,4.88h-2.54l-0.1,1.93l13.71,7.42c0,0,0.91,1.12,0.1,1.93
		c-0.81,0.81-4.57,4.57-4.57,4.57l-0.1-5.08h-2.54c0,0-4.67-2.95-5.28-3.45s-0.81-2.44-0.81-2.44l-3.86,0.2l-19.2-12.8
		c0,0-3.76-1.42-4.17-1.22c1.42-1.12,3.45-2.84,3.45-2.84L392,432.7l0.81-1.63l31.29-26.72l17.68-14.83l9.96-8.94l1.32-0.2
		l-0.3-2.23l-13-5.99l-0.81-1.12h-2.95l-12.6-6.6c0,0-0.51-0.71-0.71,2.03c-3.45,2.13-23.36,17.78-23.36,17.78l-18.18,14.63
		l-17.47,14.02l-2.13,0.51l0.51,1.32l11.28,7.11c0,0,0.81,1.83-1.02,2.34c-2.13,0.1-3.56-0.81-3.56-0.81l-12.39-7.42l-2.54-0.3
		c0,0-3.25-2.54-4.77-3.05c-0.61-1.63,0.81-2.74,0.81-2.74l2.84,1.52c0,0,2.74-1.22,2.95-2.03c0.2-0.81-0.2-5.99-0.2-5.99
		l-1.73-0.51v-1.02l2.03-1.83l-3.15-3.56c0,0-7.92,2.84-10.67,7.21c-0.2,1.22-0.51,2.74-0.51,2.74l-3.96-0.2
		c0,0-1.12-0.71-1.73-0.91c-0.61-0.2,7.52-7.31,7.52-7.31l6.7-5.08l5.18,3.25l5.59-3.76l-4.37-3.56l2.44-0.3l7.82-7.11l0.2-5.99
		c0,0,4.06,2.23,5.18,1.42c1.12-0.81,5.18-4.06,5.38-4.47s-6.6-3.45-8.03-4.67c-0.2-1.73-0.51-3.05-0.51-3.05l0.91-10.36L359.5,362
		l-9.14-5.08l8.53-5.49c0,0,0.81-4.88-2.23-8.53c0-2.03,0-4.47,0-4.47s1.12,0.1,1.12-0.2c0-0.3,0.1-2.84,0.1-2.84l-2.95,0.1
		l-0.3,2.44l0.61,0.61v3.76c0,0-4.06-0.61-5.49,0s-3.35,3.05-3.35,3.05l-5.99,5.89l-6.5-3.76l-1.93,0.41l-17.88-9.96
		c0,0-3.96,2.54-5.59,3.35c3.15,4.17,8.63,7.21,8.63,7.21l14.02,6.2l-1.32,5.18l-3.76-0.51l-9.14,6.7h-2.84l-2.13,1.83
		c0,0-0.1,1.83-0.91,2.13c-0.81,0.3-0.41-2.84-3.15-2.74c-2.74,0.1-3.25,1.93-3.25,2.95s1.52,1.42,1.52,1.42s0,2.23-0.91,2.64
		c-0.91,0.41-4.17-0.91-4.17-0.91l-3.86-1.83c0,0-1.63-0.3-1.52-2.44c0.1-2.13,0.2-3.66,0.2-3.66s2.66-0.91,1.74-2.95
		c-0.92-2.03-4.78-0.81-4.78-0.81s-2.03,1.52-0.91,2.84c1.12,1.32,2.13,1.42,2.13,1.42v3.56c0,0-2.74,2.84-2.84,3.15
		c-0.1,0.3-0.91,3.45-2.74,2.95s-10.67-6.3-10.67-6.3l-3.05,0.1l-1.63-1.42l31.09-19.1l0.51-7.62l-4.67,2.64v5.18l-5.08,4.06
		l-0.2-6.5l-5.28,2.84l0.2,6.4l-4.98,3.35l-0.51-6.2l-5.18,2.44l-0.2,7.31l-4.47,3.15l-0.3-6.91l-4.67,2.64c0,0-2.95,0.61-3.25,0.1
		s6.91-3.66,6.91-3.66l0.41-7.62l3.76-2.23l0.41,6.3l6.91-3.56l-0.1-7.42l3.66-2.03l0.61,6.1l6.2-2.84l-0.3-7.31l5.99-3.45
		l-0.1,7.31l4.77-2.23l-0.1-7.42l-1.42,0.51v-1.93l1.73-0.41l-0.1-8.53l-4.57,2.64l0.1,7.72l-5.89,3.76l-0.41-7.72l-4.88,3.05
		l0.1,7.92l-5.49,3.15l-0.41-7.42l-5.38,3.25l0.3,7.72l-5.99,3.56l-0.61-7.31l-5.49,2.74v8.33l-2.64,1.63l-1.83-2.95l-1.42,0.2
		l-5.59-3.05h-1.63l-0.2,7.42l-6.3-4.77l4.67-5.38l-4.47-3.45l8.74-4.98L278.94,324l17.62-9.45l4.32-2.74l2.03-0.3v-2.13
		l-19.61-10.16l-1.83,0.3l-0.1,1.52l-23.67,12.29l-25.5,13.61l-11.99,6.3l-4.27-0.1c0,0-3.45-2.03-3.35-3.05
		c0.1-1.02,3.96-0.71,3.96-0.71l10.16-5.69l20.11-11.07l12.5-6.5l12.19-6.1l2.74-1.83h1.93l-0.41-1.83L256.89,287.03z"/>
	<polygon class="st0" points="261.72,292.52 204.81,321.91 201.16,322.36 206.77,325.56 208.55,324.94 210.24,323.07 265.28,294.57 
			"/>
	<path class="st0" d="M292.08,307.49l-49.25,27.43l-1.25-2.67c0,0-4.1-0.89-4.19-0.98s-3.29,1.69-4.19,2.76
		c-0.89,1.07-2.58,1.96-2.85,5.25c-2.05-0.18-3.29-0.71-3.29-0.71l0.45-2.32c0,0,4.99-3.83,5.7-4.45c0.71-0.62,4.1-2.4,4.1-2.4
		l5.34,0.71l46.13-24.93L292.08,307.49z"/>
	<polygon class="st0" points="473.28,392.21 417.66,444.34 423.56,448.19 479.9,395.46 	"/>
	<polygon class="st0" points="433.19,372.23 375.04,420.2 380.7,423.51 439.21,375.23 	"/>
	<path class="st0" d="M338.91,376.53l13.81-9.44l-10.7-5.98l-6.1,3.8c0,0,2.76,1.84,2.76,2.42
		C338.68,367.9,339.26,374.23,338.91,376.53z"/>
	<path class="st0" d="M290.57,405.76v-5.29l-13.9,8.42l3.06,2.79C279.73,411.67,281.32,404.82,290.57,405.76z"/>
	<path class="st0" d="M362.15,368.82c0,0-1.15-0.01-1.48,0c-0.33,0.01-5.74,4.36-5.74,4.36s-0.16-4.67,0-5.08s-1.15-0.82-1.15,0
		s0,6.31,0,6.31l-5,2.79v-4.78c0,0-0.49-0.69-0.98,0c-0.49,0.69,0,6.1,0,6.1l-3.93,2.46v-4.92c0,0-1.15-0.25-1.15,0.08
		c0,0.33,0,6.64,0,6.64l-6.81,3.44c0,0-0.58,9.59,0,10c0.58,0.41,1.81-0.33,3.53-1.72c1.72-1.39,2.13-0.82,2.13-0.82v2.65l1.23-0.85
		l-0.08-2.46l13.6-11.04l0.16,3.83c0,0,1.07,0.49,1.23-0.08c0.16-0.57,0.08-4.67,0.08-4.67l4.34-3.2c0,0,0.33,2.13,0.41,2.46
		c0.08,0.33,1.31,0.66,1.31-0.25c0-0.9,0-3.53,0-3.53l0.9-0.82c0,0-0.49-0.9-0.66-0.66c-0.16,0.25-5,2.79-5,2.79l-0.16-6.23
		l3.28-1.39C362.23,370.22,362.56,368.82,362.15,368.82z"/>
	<polygon class="st0" points="347.48,380.3 347.48,385.79 342.57,389.64 342.57,384.97 	"/>
	<polygon class="st0" points="352.97,376.53 352.97,381.97 357.32,379.25 357.32,373.5 	"/>
</g>
</svg>
