<?xml version="1.0" encoding="utf-8"?>
<!-- Generator: Adobe Illustrator 24.1.2, SVG Export Plug-In . SVG Version: 6.00 Build 0)  -->
<svg version="1.1" xmlns="http://www.w3.org/2000/svg" xmlns:xlink="http://www.w3.org/1999/xlink" x="0px" y="0px"
	 viewBox="0 0 595.28 841.89" style="enable-background:new 0 0 595.28 841.89;" xml:space="preserve">
<style type="text/css">
	.st0{fill:none;stroke:#E60012;stroke-width:0.1;stroke-miterlimit:10;}
</style>
<g id="レイヤー_2">
</g>
<g id="レイヤー_1">
	<path class="st0" d="M279.97,16.63l-0.16,7.62l0.45,8.98c0,0,0.29,8.86,0.41,12.73c-0.45,4.28,2.84,13.64,2.84,13.64l4.28,7.29
		c0,0,0.12,1.19,0.12,2.64c2.18,2.88,1.73,8.32,1.73,8.32l-0.29,11c0,0-0.37,12.77-0.37,13.51c-0.78,0.45-2.1,0.08-3.13,0.29
		c-1.03,0.21-6.3,0.12-6.43,0.29c-0.12,0.16-4.61-0.29-4.86-0.25s-3.42-0.37-3.42-0.37s-1.15-0.12-1.19,0.41
		c-0.04,0.54,0.29,0.54,0.33,0.87s2.27,0.33,2.68,0.41s7,0.49,7,0.49s6.26-0.37,7.09-0.74c0.82-0.37,1.9,0.7,1.9,0.7
		s0.08,4.28-0.08,4.41s-4.66,0.12-4.66,0.12s-2.88-0.12-4.2-0.25c-1.32-0.12-2.72,0.21-3.42,0.21c-0.7,0-2.22,0.58-2.22,0.58
		s9.52-0.08,10.01-0.08s4.41,0.29,4.41,0.29l-0.12,5.31l-4.12-1.73h-13.27c0,0-2.97,1.19-3.05,1.73c-0.08,0.54,0.74,0.54,0.74,0.54
		l2.43-1.19h13.1c0,0,3.67,1.44,4.16,1.36c0.49-0.08,0.78,0.54,0.78,0.54l0.21,2.06l3.91,19.07c0,0,1.69,7.21,1.9,8.2
		c0.21,0.99,0.12,10.84,0.12,10.84v2.6l0.08,29.54l9.56,0.12l3.58-0.08c0,0,1.65,0.16,2.02,1.19c0.37,1.03-0.54,3.21-0.54,3.21
		l0.08,1.77c0,0-9.52-0.12-10.84-0.08s-0.82,0-2.55-0.33c-1.73,0.37-0.78,2.02,0.21,2.02c0.62,0.45,14.91-0.58,15.04-0.16
		c0.12,0.41,1.28,2.43,0.41,3.91s-1.48,5.03-1.48,5.03l-15.2,0.21v0.66l15.45-0.16c0,0-0.12,1.48-0.41,1.73
		c-0.29,0.25-1.69-0.16-1.81,0.04c-0.12,0.21-4.57,0.08-5.64-0.04c-1.07-0.12-4.2,0.12-4.7,0.08c-0.49-0.04-3.01,0.82-3.01,0.82
		l1.81,0.29l13.31-0.12l-0.37,7.91c0,0-1.24,0.16-1.77-0.33c-0.54-0.49-2.06-0.54-2.06-0.54l-10.59-0.04c0,0-0.08,0.82,0.16,0.78
		s2.02,0.91,2.02,0.91l11.21-0.04l0.99,0.04l0.04,11.16l-1.36,0.04c0,0-9.15-0.16-9.31,0c-0.16,0.16-1.36,0.12-2.27,0.04
		c-0.91,0.41-0.74,1.11-0.74,1.32s1.44,0.45,1.44,0.45s0.45,0,1.07-0.16c0.16-0.12,2.76-0.04,5.93,0.04s3.54-0.78,3.87-0.58
		c0.33,0.21,1.32,0.08,1.32,0.08l-0.04,12.36c0,0-0.62-1.24-1.57-1.32c-0.95-0.08-3.13-0.08-3.13-0.08s-1.98,0.12-3.54,0.12
		s-1.11-0.25-2.72-0.33c-1.28,0.7-1.52,1.15-1.69,1.94s1.69,1.07,1.69,1.07s3.01-0.21,6.59-0.16c3.58,0.04,4.45,2.02,4.45,2.02
		l-0.04,24.18c0,0,0.04,20.43-0.04,21.96c-1.61-0.25-1.24-0.29-2.8-0.74c-2.39-0.08-2.64-0.04-4,0c-1.36,0.16-3.54-0.08-4.2-0.16
		c-0.66,0-1.03,0.37-1.15,0.78c-0.21,0.41,1.81,0.78,1.81,0.78s2.84-0.12,5.85-0.04c2.84-0.49,4.45,1.81,4.45,1.81l0.08,6.51v29.46
		l-0.08,9.68l0.04,14.83l-1.57,0.29l-2.8,0.21c0,0-2.51-0.49-3.09-0.25c-0.58-0.12-2.68,0.12-3.17,0.41
		c-0.49,0.29,0.12,0.7,0.33,0.74s3.75,0.62,4.7,0.49c0.78,0.16,5.48-0.95,5.48-0.95s0.16,0.62-0.04,6.47
		c0.25,8.4,0.21,5.07,0.74,9.06c0.54,4,0.33,3.83,0,4.57c-0.33,0.74-1.19,0.49-1.85,0.29c-0.66-0.21-1.73,0.12-1.73,0.12
		s-4.74,0.41-4.9,0.66s-3.58,0.12-4.24-0.04c-0.66-0.16-2.18,0.08-2.18,0.08s-1.73,0.78,0.12,1.11s3.54,0.16,5.6,0.25
		c2.06,0.08,5.11-0.58,8.03-1.03c0.87,3.5-0.29,6.63-0.54,8.69c-0.25,2.06-3.91,10.79-4.66,13.39c-0.74,2.6-1.11,2.1-1.9,2.27
		c-0.78,0.16-1.24-0.49-1.57-0.74c-0.33-0.25-5.36-14.13-5.36-14.13s0-1.85-1.44-1.85c-1.28,1.11-2.31,7.09-2.31,7.09
		c0.21,0.96,0.05,2.38-0.41,3.42s-2.64,1.88-2.64,1.88l0.08,0.79c0,0,0.25,1.91,0.8,3.14s0.43,2.22-0.37,3.33
		c-1.48,0.68-4,0.92-4,0.92s-4,0-4.93-1.11s-0.12-1.85,0-3.39s1.23-2.89,1.23-2.89l5.6-1.11c0,0,0.65,0.32,1.11,0.27
		c0.29-0.03-0.09-0.47-0.18-0.52c-0.25-0.12-1.38-0.29-1.56-0.11s-5.46,0.91-5.46,0.91s0.68,1.11-0.49-0.74
		c-1.17-1.85-3.57-1.85-3.94-1.85s-2.71,0.8-3.26,0.8s-2.03-0.86-2.03-0.86s-1.23,0.37-2.96,0.86c-1.72,0.49-2.71,0.12-2.4,0.62
		s1.05,0.43,1.29,0.49s3.82-1.11,3.82-1.11l1.66,0.43c0,0,0.18,1.48,0.12,2.16c-0.06,0.68,0.86,1.29,0.8,2.77s-1.97,3.39-4.56,3.7
		c-2.59,0.31-4.25-1.05-4.8-1.79s0.68-6.16,0.68-6.53s-1.11-1.66-2.09-1.72s-0.8,0.55-1.17,0.62s0.18,2.96,0.18,3.82
		s-1.72,2.46-3.2,2.65c-1.23,0.74-3.08,1.48-4.74,1.85c-1.66,0.37-5.42-1.97-7.02-3.02c-1.6-1.05-0.62-3.26-0.62-3.26
		s2.16,0.8,3.88,1.18c0.86-0.48,6.34-0.07,6.71-0.01s1.85-0.18,2.22-0.55c0.37-0.37,0.68-1.05-0.31-1.79
		c-0.68,0.37-4.8,0.37-5.05,0.62s-7.02-0.43-7.02-0.43s0.55,0.49-1.79-1.54c-2.34-2.03-1.35-4.68-0.99-5.97
		c0.68-0.37,1.83-5.05,1.83-5.05s0.32-2.65,0.57-4.13c-0.25-1.11-0.12-8.31-0.12-8.31l2.4,0.25c0,0,3.2,0.25,3.63,0.55
		c0.43,0.31,4.93-0.18,7.14,0c0.68-1.11,0.25-1.66-0.68-2.71c-0.49,0.43-4,1.05-4.62,1.23s-4.62-0.68-4.62-0.68s-2.34,0-2.65,0
		s-0.37-0.62-0.37-0.62s0-2.83,0.12-3.2s-0.31-13.92-0.31-13.92s2.46,0.31,4,0.27c0.68-0.59,6.1-0.08,6.1-0.08s0.55,0.43,1.6-0.68
		c-0.18-0.8,0.06-0.68-1.11-1.29c-1.17-0.06-4.87-0.25-6.84,0.31s-3.33,0.43-3.51,0.31s-0.18-3.02-0.18-3.02s0.18-10.65,0.31-11.15
		s2.89-0.36,2.89-0.36s5.11-0.07,5.97-0.01c0.86,0.06,2.71-0.18,1.97-0.65s-2.83-0.7-3.51-0.89s-5.54,0.86-5.54,0.86
		s-1.72,0.25-1.6-0.86c0.12-1.11,0-8.44-0.06-16.44c-0.92-8.68-1-20.75-1-20.75s0.32-10.9,0.69-11.52
		c0.37-0.62,0.06-11.39,0.12-12.99c0.8-0.25,4.37,0,4.37,0s3.7,0,4.37,0c0.68,0,1.35,0,1.54-1.1c-1.17-0.43-2.77-0.25-3.94-0.37
		c-1.17-0.12-5.73,0.43-6.16,0.37s-0.18-1.6-0.18-1.6l-0.06-16.44v-13.24l1.85,0.25l4.19-0.18c0,0,4.43,0.37,5.17,0.43
		s1.29-0.49,1.29-0.99s-0.43-0.86-0.8-1.09c-0.37-0.23-1.54,0-1.54,0l-5.3-0.08c0,0-4.31,0.18-4.62,0s-0.12-1.79-0.12-1.79
		l-0.02-6.33l-0.07-8.42l1.8,0.22h5.15l6.23-0.14c0,0-0.18-0.18-0.97-0.4c-1.22-0.72-5.25-0.68-5.87-0.65
		c-0.25,0.14-5.36,0.29-6.33,0.32c-0.83-0.25-0.78-2.3-0.78-2.3s0.21-6.8,0.06-7.59c-0.14-0.79,0-2.48,0-2.48l1.58-4.86
		c0,0,3.92-12.27,4.32-13.53c0.4-1.26,0.68-1.26,1.4-1.37c0.86-0.11,1.58,0.83,1.58,0.83l1.8,4.35c0,0,2.66,7.31,3.45,9.18
		c0.18-0.32,0.32-0.86,0.65-1.48c-0.04-0.03-0.04-0.92-0.03-1.8c0.01-0.88,0.03-1.76,0.03-1.76v-19.29v-19.76
		c0,0,1.69-0.72,2.34-0.83c0.25-0.11,2.52-0.36,3.1-0.4c0-0.29,11.48-0.68,12.31-0.72c0.32-0.25,15.44,0.94,15.44,0.94v-2.74
		c0,0-3.42-0.65-4.03-0.72c-0.61-0.32-10.47-1.15-11.34-1.01c-0.68-0.22-7.7,0.32-7.7,0.32s-7.56,1.04-10.15,1.58
		c-0.32-1.94,0.04-2.09-0.14-3.38c-0.18-1.3,0.76-8.64,0.76-8.64s2.81-12.02,2.88-12.49c0.22,0,2.12-12.56,2.56-14.43
		c-0.32-1.33,0.82-2.02,0.82-2.02l0.22-10.73c0,0-0.43-0.58-0.65-1.52c0.14-0.22,0.58-1.16,0.58-1.16s-0.8-4.86-0.94-8.48
		c-0.94-2.97,0.72-19.86,0.8-22.9c0.07-3.04,2.68-6.16,3.7-7.68c0.87-0.72,2.54-7.76,2.54-7.76l2.66-12.68c0,0-1.21-1.96-1.5-3.7
		c-0.29-1.74,1.01-5,1.28-5.94c0.27-0.94,0.1-4.71,0.1-4.71s-0.22-8.26,0-11.09s1.66-2.39,1.66-2.39
		C279.55,14.46,279.97,16.63,279.97,16.63z M261.91,200.71c0,0-0.12,7.68-0.69,7.68c0,0-0.66,1.49-4.33,1.2s-9.35,0.04-9.35,0.04
		s-1.66,0.88-0.23,2.37c1.43,0.06,4.93,0.23,4.93,0.23h6.88c0,0,1.83-0.29,1.89,2.98c0.06,3.27,0.46,6.02-0.29,7.28
		c0.69,1.2,0.63,2.01,0.4,2.58l0.19,0.56l-0.37,0.18l-0.07,1.05c0,0,0.97,3.69,0.83,6.23c-0.13,2.54-0.27,7.98-0.27,7.98v8.25
		l0.1,18.78v9.1l-0.05,31.62l0.03,11.84l-0.15,29.32l0.03,6.44c0,0,0.45,5.94,0.49,6.04c0.03,0.1-0.3,1.42,0.9,1.94
		c1.2,0.4,1.64,0.58,1.64,0.58s0.37,0.77,0.75,0.92c0.38,0.15,1.52,0.4,1.54,0.48c0.02,0.08,0.4,0.85,0.97,1.05
		c0.57,0.2,1.09,0.3,1.09,0.3s2.57-0.35,4.39,0.4c1.75,1.12,1.8,2.09,1.94,2.62c0.13,0.53,0,2.22-0.08,2.29
		c-0.08,0.07-0.28,1.74-0.2,2.1c0.08,0.37,0.37,1.05,0.55,1.15c0.18,0.1,1.04,0.47,1.04,0.47s0.38-1.24,0.37-1.74
		c-0.02-0.5-0.23-3.34-0.23-3.34s-0.1-1.74,0.63-2.35s1.49-0.88,1.62-0.87s2.2-0.37,2.99-0.15s4.07,0.03,4.46-0.22
		c0.38-0.25,1.67-0.57,1.67-0.57l0.12-0.88c0,0,0.49-0.06,0.61-0.18c0.12-0.12,0.29,0.17,0.65,0.03c0.36-0.14,0.53-0.56,0.56-0.65
		c0.03-0.08,1.72-0.17,2.41-0.59c0.7-0.42,2.14-1.56,2.48-3.33c0.34-1.77,0.36-5.15,0.36-5.15v-13.96v-13.03v-14.03v-12.03v-13.03
		V278.7v-13.03v-13.03v-23.05v-10.02v-3.07c0,0-0.24-0.51-0.25-0.71c-0.34-0.07-1.75-0.58-1.75-0.58s-0.58-0.14-0.59-0.8
		c0.22-0.58,0.22-0.51,0.44-0.58c0.22-0.07,1-0.07,1.29-0.14c0.29-0.17,0.76-0.58,0.76-1.05c0-0.48,0-1.21,0-1.21l0.1-0.22
		c0,0-0.81-2.13-0.71-2.95s0.71-3.99,0.71-3.99s-3.27-5.78-4.13-5.01c-1.74-0.26-16.11-0.41-16.11-0.41h-12.89L261.91,200.71z"/>
</g>
</svg>
