<?xml version="1.0" encoding="UTF-8" standalone="no"?>
<svg
   xmlns:dc="http://purl.org/dc/elements/1.1/"
   xmlns:cc="http://creativecommons.org/ns#"
   xmlns:rdf="http://www.w3.org/1999/02/22-rdf-syntax-ns#"
   xmlns:svg="http://www.w3.org/2000/svg"
   xmlns="http://www.w3.org/2000/svg"
   id="svg425"
   version="1.1"
   viewBox="0 0 210 297"
   height="297mm"
   width="210mm">
  <defs
     id="defs419" />
  <metadata
     id="metadata422">
    <rdf:RDF>
      <cc:Work
         rdf:about="">
        <dc:format>image/svg+xml</dc:format>
        <dc:type
           rdf:resource="http://purl.org/dc/dcmitype/StillImage" />
        <dc:title></dc:title>
      </cc:Work>
    </rdf:RDF>
  </metadata>
  <g
     id="layer1">
    <path
       d="m -1313.0088,-105.32776 -4.0324,3.17913 -4.0328,3.179138 -2.8448,7.73803 -2.8448,7.738543 0.9607,5.546947 0.9602,5.54695 2.0355,3.867981 2.035,3.86798 5.3852,3.361034 5.3852,3.361553 -6.1211,-0.958599 -6.1216,-0.95808 v 4.560961 4.560962 h 2.0041 2.0045 l 0.9596,4.599203 0.9591,4.599202 -1.6552,4.808492 -1.6552,4.808492 -1.9285,0.889868 -1.9281,0.890385 0.2594,-4.665348 0.26,-4.664831 -2.5208,0.144177 -2.5208,0.144694 -6.1216,0.380338 -6.1216,0.380339 -8.6418,13.10566 -8.6424,13.105143 -3.2406,1.491382 -3.2411,1.4913814 v 1.6738 1.6738 l 1.4402,1.071252 1.4407,1.070736 V 13.547669 30.831884 l -2.0955,6.034773 -2.0954,6.034257 -1.8656,0.694531 -1.8655,0.694531 -5.4017,0.905372 -5.4012,0.90537 v -5.090644 -5.090128 h -4.4845 -4.4845 l 0.6382,5.232238 0.6382,5.232239 -1.5555,1.546675 -1.5549,1.547193 -4.3207,0.586526 -4.3212,0.586528 v 4.332552 4.333068 l 6.1961,0.537435 6.1965,0.536919 -0.9586,7.695139 -0.9591,7.695136 h 4.4844 4.4845 V 72.31514 68.848683 h 0.4723 0.4724 l 9.9704,4.151169 9.9705,4.151167 8.0656,17.079579 8.0652,17.079582 6.768,4.48396 6.7676,4.48448 -2.2299,2.22725 -2.2298,2.22674 v 2.44843 2.44843 l -2.9394,-1.89291 -2.9393,-1.89239 -3.1094,-7.7003 -3.1094,-7.70031 h -2.5936 -2.5936 v 4.98678 4.98729 l -2.3446,2.34146 -2.3451,2.34146 0.5447,-16.42742 0.5442,-16.427425 -3.2407,-0.553453 -3.2411,-0.553972 v 16.98191 16.98243 l -12.6318,-15.1288 -12.6318,-15.128275 h -5.2048 -5.2049 l -0.8687,3.899506 -0.8681,3.899499 -0.02,27.42779 -0.02,27.4283 -6.2255,9.83351 -6.2249,9.83351 -9.8521,27.72957 -9.8521,27.73009 -3.3678,8.98755 -3.3677,8.98758 v 2.27738 2.27737 l -6.0079,16.93852 -6.0084,16.93849 -2.9962,0.67697 -2.9967,0.67643 -7.2017,1.44902 -7.2021,1.44899 -0.4424,4.59869 -0.4423,4.5992 5.3128,2.10945 5.3124,2.10994 10.974,-0.77568 10.9735,-0.77565 5.4756,-3.13986 5.4757,-3.13987 -0.4341,-3.58891 -0.4346,-3.58944 -5.7449,-1.42886 -5.7449,-1.42938 -1.8169,2.9895 -1.7172,2.82567 h 0.7079 1.647 0.093 c 0.042,-0.15947 0.046,-0.33325 0.06,-0.50231 -0.024,0.0276 -0.046,0.0505 -0.071,0.0842 -0.08,0.10604 -0.1144,0.51136 -0.1224,0.37878 -0.01,-0.16063 0.078,-0.3116 0.1173,-0.46768 0.031,-0.0565 0.078,-0.17624 0.1142,-0.25218 0.022,-0.0904 0.055,-0.17586 0.11,-0.25217 0.3816,-0.52993 0.8503,-0.46583 1.3509,-0.49041 0.1326,-0.006 0.2534,-0.0137 0.3643,-0.0164 0.6492,-0.0217 0.949,0.0737 1.1766,1.02008 h 3.527 4.4064 l -2.1285,2.56108 -2.1281,2.56109 -5.0224,1.16943 -4.6989,1.09453 c -0.036,0.13494 -0.082,0.26339 -0.1721,0.3674 -0.4263,0.49154 -0.9355,0.43016 -1.4661,0.42116 -0.5166,-0.0164 -1.0324,-0.0266 -1.5451,0.0537 -0.1751,-0.0188 -0.3543,-0.0135 -0.525,-0.0563 -0.1454,-0.0365 -0.2777,-0.11412 -0.4129,-0.17881 -0.011,-0.005 -0.027,-0.0175 -0.035,-0.0269 -0.093,-0.005 -0.1866,-0.0122 -0.2785,-0.003 -0.371,-1.3e-4 -0.7421,-0.0235 -1.1126,-0.0108 -0.4422,0.052 -1.2929,0.15838 -1.6986,-0.11576 l -4.1073,0.22842 -4.8136,0.26768 -4.2023,-1.1343 -4.2024,-1.1343 -0.5328,-1.92907 -0.5333,-1.92858 5.4555,-1.08519 5.4555,-1.08468 4.3935,-0.019 4.393,-0.019 1.8067,-2.16628 1.8066,-2.16627 -1.6775,4.83071 h 2.1963 2.2055 v -2.41999 -2.58434 l 1.1814,-1.64643 1.1818,-1.64639 4.0954,-12.13207 4.0958,-12.13157 1.3695,-2.14974 1.3689,-2.14924 3.3481,1.01082 3.3481,1.01129 9.0904,-4.36769 9.0904,-4.36769 7.2022,-2.09857 7.2016,-2.0986 3.2406,-3.52948 3.2412,-3.529 v -5.76398 -5.76348 h -0.8496 -0.8496 l -2.391,3.29593 -2.3916,3.29592 -8.6424,3.77289 -8.6418,3.77343 11.8184,-13.21316 11.8189,-13.21314 -0.3535,-10.86032 -0.3535,-10.86032 -3.0204,-6.15932 -3.0205,-6.15983 0.6676,-4.20181 0.6677,-4.20232 -3.713,-2.39056 -3.7134,-2.39107 2.1626,-2.87527 2.1627,-2.87528 v -1.6614 -1.66139 l 4.6059,-0.4222 4.6054,-0.4222 0.6532,-0.786 0.6537,-0.78599 1.8123,2.98276 1.8128,2.98328 2.8308,-3.0825 2.8304,-3.08198 1.9807,0.5054 1.9808,0.50591 0.7203,1.03921 0.7204,1.03921 8.369,1.01286 8.3695,1.01234 -0.4496,-2.80913 -0.4495,-2.80861 -5.039,-1.60714 -5.039,-1.60662 2.6422,-1.96887 2.6428,-1.96887 3.1186,-3.18069 3.1192,-3.18017 0.3871,39.18572 0.3876,39.18573 -1.8278,3.94446 -1.8278,3.94446 -5.7614,9.81129 -5.7614,9.81077 -2.8805,0.0925 -2.8809,0.0925 1.7663,1.3503 1.7663,1.3498 -6.5495,9.00824 -6.549,9.00821 0.462,3.85922 0.4615,3.85971 14.8017,4.31499 14.8011,4.31498 -0.2222,2.12802 c 1.3343,0.8592 2.8721,1.68994 3.4148,3.25252 0.1527,0.43982 0.1236,0.69506 0.064,1.03351 0.1692,0.27499 0.3972,0.81048 0.4656,0.97309 0.1134,0.38878 0.1634,0.77946 0.1643,1.17459 0.2187,0.17756 0.4189,0.37722 0.5871,0.61082 0.1561,0.21688 0.2828,0.45016 0.3922,0.69196 0.011,-0.11745 0.028,-0.23061 0.058,-0.33332 0.036,-0.12562 0.1168,-0.23434 0.186,-0.3452 0.022,-0.0355 -0.029,0.0781 -0.044,0.11731 0.1002,-0.18539 0.1881,-0.37795 0.3007,-0.55604 0.019,-0.0297 0.059,-0.0389 0.088,-0.0584 0.063,-0.10565 0.126,-0.21113 0.1891,-0.31678 0.069,-0.14021 0.1314,-0.28578 0.1954,-0.42995 h -0.1525 v -4.33255 -4.33306 l 5.4012,0.20516 0.4935,0.0185 c 0.1692,-0.14163 0.3639,-0.21394 0.5592,-0.21394 0.2136,0 0.4253,0.0889 0.6046,0.25839 l 3.744,0.14211 -3.2939,1.00819 c 0,0.0585 0.011,0.11256 0.011,0.17468 v 4.7842 0.95033 c 0.1705,0.0661 0.339,0.13634 0.5017,0.2186 0.039,0.007 0.078,0.013 0.1168,0.0206 0.027,0.005 0.026,0.0246 0.017,0.0486 0,0.003 0.01,0.005 0.015,0.008 0.093,0.0519 -0.017,0.2118 -0.022,0.31782 -0.013,0.3225 0,0.64545 0.01,0.9679 0.014,0.43535 0,0.87093 0,1.30638 10e-4,0.74226 0,1.48445 10e-4,2.22673 -2e-4,0.48406 0,0.96804 0,1.45212 0,0.41264 0,0.8255 0,1.23814 0,0.15523 0,0.31041 0,0.46561 h 0.4827 v 1.59163 1.59113 l -0.8744,2.74142 -0.4615,1.44696 v 7.70392 c 0.3947,-0.0265 0.4096,-0.0259 0,0.005 v 0.1416 c 0.1084,0.0243 0,0.22228 0,0.33332 v 1.38234 1.23352 0.29041 c 0,0.91183 -0.3981,1.42777 -0.85,1.55186 l -1.3204,11.13885 -1.5353,12.95424 -10.2242,1.83917 -10.2241,1.83864 -3.8194,3.0112 -3.8195,3.01117 v 3.50935 3.50883 l 3.8489,4.29172 3.8489,4.29173 3.7129,0.97668 3.713,0.97618 1.4407,0.57825 1.4397,0.57774 12.6494,0.13695 12.6493,0.13695 5.3025,-2.66599 5.3026,-2.66547 2.5735,-2.80241 2.5729,-2.80189 v -2.25258 -2.25206 l -3.5352,4.254 -3.5357,4.254 h -2.6583 -2.6577 l -1.4888,1.78956 -1.4872,1.78956 -9.9638,0.0992 -9.9637,0.0987 -5.2663,-0.7679 -5.2669,-0.7674 -4.8157,-3.37499 -4.8163,-3.37498 -0.4418,-3.64474 -0.4424,-3.64474 4.854,-1.92754 4.8535,-1.92752 8.2103,-0.40566 8.2099,-0.40618 1.4138,-6.06579 1.4139,-6.06578 0.01,-4.7661 0.01,-4.76613 h 2.2872 2.2872 l -1.1261,7.36595 -1.1255,7.36544 0.2248,4.82815 0.2253,4.82864 -1.3864,-1.03147 -1.3865,-1.03093 v 1.73321 1.73323 l 1.5373,1.14308 1.5374,1.14308 0.8072,-3.71345 0.8072,-3.71348 6.658,1.15292 6.6575,1.15289 4.9025,2.40914 4.9025,2.40866 0.5075,-0.61082 0.508,-0.61134 -2.7616,-3.00654 -2.7611,-3.00704 -9.5699,-1.9725 -9.57,-1.97249 0.693,-3.53105 0.6925,-3.53105 0.9932,-9.96527 0.9927,-9.96529 h 1.1007 v -0.0951 c -10e-5,0 0,-0.003 0,-0.003 -0.02,-0.006 0.024,-0.85646 -5e-4,-0.86146 4e-4,-0.43992 0,-0.87987 0,-1.31982 0,-0.3852 0,-0.76999 0.017,-1.15496 -0.031,-0.61301 -0.1737,-1.26082 0.198,-1.77612 0,-0.22566 -0.01,-0.4513 0,-0.67696 0.01,-0.3497 0.022,-0.69853 -0.012,-1.04646 h -0.1923 v -4.33305 -4.33255 h 2.3146 2.1389 c 0.1907,-0.36216 0.3944,-0.71819 0.6201,-1.06352 0.114,-0.20688 0.2286,-0.41339 0.3421,-0.62063 0.014,-0.0259 0.024,-0.0611 0.034,-0.094 -0.01,-0.004 -0.019,-0.0101 -0.029,-0.0146 0.011,1.9e-4 0.023,0 0.034,0 0.049,-0.16576 0.073,-0.37669 0.2186,-0.36639 0.085,0.006 0.1692,0.0172 0.2527,0.032 l -0.1752,-0.13642 c -0.034,0.0196 -0.114,0.0953 -0.1013,0.0584 0.053,-0.15325 0.079,-0.49093 0.2284,-0.42891 0.135,0.0559 0.2696,0.12049 0.4031,0.18655 0.1085,-0.42397 0.2422,-0.83949 0.4553,-1.22216 0.1126,-0.2023 0.3602,-0.35248 0.3772,-0.58341 0.2629,-0.49929 0.6375,-0.91974 1.0625,-1.28934 0.211,-0.18354 0.4499,-0.33374 0.664,-0.51366 0.8052,-0.67657 -0.1965,-0.005 0.9462,-0.70279 0.2442,-0.24373 0.5685,-0.48868 0.9069,-0.57827 0.076,-0.0201 0.1534,-0.0309 0.2315,-0.0393 0.029,-0.019 0.059,-0.0385 0.086,-0.0574 l 0.7276,-1.66449 1.3261,-3.03289 h 8.1147 8.1153 l 2.1425,1.45521 c 0.9071,-0.30507 1.835,-0.42754 2.7998,-0.40982 0.5615,0.0103 1.1248,0.0888 1.6867,0.14317 l -1.1978,-0.79894 0.8816,-1.0609 0.8816,-1.06042 h 7.7778 7.2698 c 0.046,-0.0259 0.1402,-0.0236 0.1948,-0.0398 0.3201,-0.0951 0.6468,-0.0884 0.9628,-0.0161 0.1416,-0.003 0.2831,-0.008 0.4248,-0.009 0.073,-1.8e-4 0.215,-0.0723 0.2185,0 0,0.0209 -2e-4,0.0417 0,0.0625 h 0.2093 c 0.01,-0.0196 0.01,-0.0395 0.016,-0.0589 0,-0.005 0.851,0 1.2356,0 h 0.7596 0.7514 c 0.2655,-3e-5 0.5308,0 0.7963,0 0.2151,-0.17129 0.4874,-0.33719 0.6966,-0.48731 0.1288,-0.019 0.2524,-0.0251 0.369,-0.019 0.4546,0.0236 0.8065,0.23318 1.0061,0.56586 h 2.7973 3.7315 l 2.3311,-2.16627 2.3312,-2.16681 0.4289,-3.46593 0.4284,-3.46644 -0.8548,-1.73273 -0.8552,-1.73321 -0.9431,-6.29473 -0.9426,-6.29417 7.5954,-1.00976 7.5954,-1.00975 29.1672,-3.0293 29.1677,-3.02926 v -2.15128 -2.1513 l 18.5917,11.21947 18.5911,11.21947 15.6176,-2.45152 15.6172,-2.45102 1.8676,1.82936 1.8681,1.82985 7.1587,18.03662 7.1587,18.03662 -0.6878,1.33895 -0.6878,1.33946 -6.4637,0.11729 -6.4632,0.11731 -1.5151,1.12707 -1.5152,1.12655 v 2.3704 2.37037 l 7.7639,5.34491 7.7644,5.3449 2.3368,-1.079 2.3368,-1.07902 2.142,2.13942 2.1425,2.13889 v -2.15749 -2.1575 l 2.1606,2.1575 2.1601,2.15749 v -1.94511 -1.94511 h 1.5254 1.5255 l -1.0816,2.16627 -1.0815,2.16628 2.5466,-2.48822 2.5471,-2.48822 1.1705,2.27946 1.171,2.27944 6.2688,-2.39107 6.2689,-2.39056 0.478,-3.03287 0.4785,-3.03342 h -2.9863 -2.9864 v 2.59985 2.59982 h -13.5806 -13.5811 l -2.1606,-2.59982 -2.16,-2.59985 -1.9038,-0.0548 -1.9032,-0.0553 -2.7957,-2.54455 -2.7962,-2.54456 h 3.6251 3.6251 l 3.3832,4.33309 3.3828,4.33255 h 2.0236 2.0242 l -0.816,-5.63274 -0.816,-5.63222 2.1885,5.75832 2.189,5.75778 1.7534,-0.70332 1.7539,-0.70331 v -2.45515 -2.45515 l -1.664,0.37981 -1.6639,0.37828 -0.7835,-2.45618 -0.7834,-2.45669 1.727,0.63355 1.7276,0.63304 10.5394,1.03455 10.5394,1.03457 -0.8506,-1.65624 -0.8506,-1.65571 -6.8083,-1.06142 -6.8079,-1.06143 -3.2432,-0.80566 -3.2427,-0.8051 -6.4823,-16.69098 -6.4823,-16.69097 -1.434,-6.4089 -1.4346,-6.40839 -8.0904,-20.62768 -8.0905,-20.62769 -4.9718,-12.99818 -4.9723,-12.99817 -3.8654,-9.30279 -3.8654,-9.30228 -5.4115,-6.53707 -5.4111,-6.53706 -4.6715,-2.7373 -4.671,-2.73731 -4.3207,-3.50882 -4.3212,-3.50883 -2.2464,-0.0119 -2.2463,-0.0124 -1.4387,-10.46551 -1.4387,-10.46552 6.9257,-6.35516 6.9262,-6.35517 V 101.11493 85.565494 l -10.4428,-12.460221 -10.4428,-12.460221 -1.8934,-0.701249 -1.8934,-0.700733 -0.8387,-7.522538 -0.8382,-7.522538 -5.5506,0.895551 -5.55,0.895553 -0.016,-16.732829 -0.015,-16.732829 -0.8718,-6.3406968 -0.8713,-6.34121484 -5.6332,-8.20208396 -5.6332,-8.2026004 2.5228,-3.3538 2.5223,-3.353801 2.0986,5.331975 2.0991,5.332491 h 1.8991 1.8991 v -3.364653 -3.363619 l -1.4402,-1.071252 -1.4403,-1.071253 v -4.127913 -4.12843 l -1.4407,-1.071252 -1.4402,-1.070736 v -4.032312 -4.032829 l -2.2939,-4.964038 -2.2934,-4.964038 0.7183,3.899504 0.7188,3.899503 h -0.632 -0.632 l -1.4247,-3.899503 -1.4247,-3.899504 0.5989,4.332552 0.5984,4.333069 0.9968,5.295801 0.9963,5.2958 -5.5252,2.102714 -5.5257,2.102198 -5.271,-7.2316 -5.271,-7.231083 0.7482,-2.346627 0.7483,-2.34611 -0.9606,-6.160864 -0.9607,-6.160865 -2.3813,0.551905 -2.3812,0.551389 -0.9705,5.710245 -0.9705,5.710245 -0.5271,0.608748 -0.5271,0.608749 -25.6816,0.603064 -25.6822,0.603063 -2.1172,-3.465938 -2.1177,-3.466455 2.3167,-0.579808 2.3167,-0.579811 -0.4439,-4.619355 -0.4445,-4.619874 -5.288,0.168982 -5.2886,0.168981 4.5682,-3.669543 4.5682,-3.669543 2.5993,-6.031672 2.5994,-6.031159 -0.6419,-7.57628 -0.6413,-7.576794 -4.5061,-5.4219 -4.5062,-5.421368 h -6.8771 z m 8.0491,2.5337 v 0.40514 c 0.01,0.006 0.016,0.0116 0.024,0.0176 0.4849,-0.0211 0.9698,-0.0341 1.4552,-0.0248 0.6339,-0.009 0.4868,-0.0126 1.3859,0.39377 -0.04,-0.0315 -0.1657,-0.11816 -0.1204,-0.0946 0.6368,0.33105 0.493,0.24463 0.6842,0.49403 0.1458,0.062 0.2795,0.11917 0.3333,0.14417 -0.039,-0.0301 0.029,-0.0354 0.5401,0.10542 0.3324,0.0916 0.1744,0.0782 0.3679,0.0858 0.8876,0.12709 1.1839,0.4308 1.5679,1.03456 0,-5.3e-4 -7e-4,-0.001 -6e-4,-0.002 0.01,-0.0657 0.125,0.0521 0.1757,0.0951 0.1079,0.0913 0.2068,0.192158 0.3065,0.292488 0.4824,0.20762 0.2668,0.0901 0.5808,0.70538 0,-0.01 0.01,-0.0196 0.012,-0.0289 0.09,-0.11933 0.2152,0.20707 0.323,0.31058 0.5115,0.64518 0.062,0.0935 0.093,0.0935 0.1674,2.7e-4 0.6669,0.59666 0.6687,0.59996 0.1223,0.22523 0.1376,0.49396 0.2181,0.73742 0.014,0.0218 0.019,0.0253 0.036,0.0548 0.057,0.0976 0.1036,0.20103 0.1499,0.30438 0,-0.0173 0.011,-0.0302 0.027,-0.0351 0.1251,0.14296 0.2435,0.29144 0.3752,0.42839 0.022,0.0234 -0.067,-0.1103 -0.046,-0.0858 0.1672,0.19359 0.3393,0.38535 0.4785,0.59996 0.2853,0.43994 0.2246,0.63925 0.2796,0.42168 0.1694,0.2264 0.2474,0.30996 0.2966,0.46819 0.2993,0.29724 0.246,0.29239 0.4801,0.90176 0.033,0.0574 0.057,0.10933 0.077,0.15813 0.016,0.0238 0.037,0.0504 0.046,0.0667 0.2032,0.37525 0.2662,0.49519 0.2847,0.6475 0.7787,0.0786 1.3279,0.46098 0.3628,0.78704 -0.2594,0.0876 0.635,2.02669 0.5581,2.28358 -0.023,0.078 -0.056,0.15198 -0.095,0.22376 0.094,0.1617 0.214,0.49082 0.2713,0.72657 0.1784,0.35186 0.1846,0.700893 0.1628,1.070217 0.2605,0.168569 0.086,0.170342 0.4785,0.917774 0.04,0.07613 -0.037,-0.167704 -0.055,-0.251664 0.04,0.08496 0.08,0.169804 0.1194,0.254765 0.1664,0.457269 0.061,0.933437 0.074,1.403014 0,0.236045 0.01,0.290388 0.01,0.494027 0.043,-0.01945 0.064,0.130313 0.088,0.191204 0.054,0.140779 0.094,0.286991 0.1405,0.430464 0,0.04856 0.021,0.118467 0.04,0.190685 0.1855,0.438854 0.2083,0.704175 0.1716,1.209746 -0.047,0.398571 -0.019,0.799508 -0.014,1.199409 -8e-4,0.431422 0,0.863069 0,1.294496 8e-4,0.426944 10e-5,0.854112 0,1.281059 0,0.67455 0.059,1.392518 -0.3028,2.000393 0.081,0.283901 0.053,0.657453 -0.1488,1.108977 -0.3061,0.686269 -0.3563,1.578499 -0.8811,2.167827 -0.01,0.0069 -0.013,0.01508 -0.019,0.02222 0.094,0.273283 0.09,0.602226 -0.079,0.977201 -0.1496,0.332883 -0.6596,2.633335 -1.2826,2.713014 -0.1519,0.01942 -0.3014,0.0027 -0.4501,-0.02997 -0.2115,0.355571 -0.1052,0.200872 -0.4078,0.516763 -0.091,0.275201 -0.2862,0.505428 -0.386,0.776181 -0.01,0.0263 -3e-4,0.05569 -5e-4,0.08372 -0.053,0.13014 -0.088,0.269809 -0.1597,0.390673 -0.4964,0.837184 -0.2641,0.247031 -0.369,0.520382 -0.057,0.07987 -0.1216,0.154991 -0.171,0.239779 -0.01,0.01611 0.032,-0.01892 0.048,-0.02842 -0.057,0.112552 -0.09,0.241628 -0.1721,0.337447 -0.1914,0.222925 -0.3636,0.34417 -0.4817,0.414446 0.5027,0.116594 0.7264,0.14327 -0.057,0.102836 -0.1612,-0.0083 -0.1041,-0.007 0.057,-0.102836 -0.1805,-0.04188 -0.3984,-0.09846 -0.618,-0.164848 -0.07,0.07275 -0.1415,0.144409 -0.2098,0.21859 -0.065,0.312241 -0.2015,0.568709 -0.339,0.848527 -0.1603,0.635953 -0.4216,0.787829 -0.8501,0.996323 -0.2474,0.661117 -0.8986,0.875094 -1.5622,0.980818 -0.057,0.0092 -0.1146,0.02188 -0.172,0.03307 -0.5936,0.338765 -0.3077,0.190193 -0.9421,0.268201 0.059,-0.0031 0.1228,1.56e-4 0.1095,0.02946 -0.3405,0.751355 -0.2146,-0.107173 -0.2449,0.121438 -0.014,0.0072 -0.028,0.01873 -0.041,0.02842 -0.015,0.09694 -0.1678,0.16737 -0.2631,0.217557 -0.019,0.01019 -0.4275,0.168923 -0.7265,0.280085 -0.3388,0.268547 -0.6388,0.366493 -1.0728,0.411345 -0.1144,0.01183 -0.2297,0.0049 -0.3447,-0.0036 -0.076,0.04807 -0.1536,0.09265 -0.2377,0.123508 -0.44,0.16125 -0.9261,0.04651 -1.3762,0.02016 -0.053,-3.7e-5 -0.1054,-7.94e-4 -0.1581,0 -0.025,2.64e-4 -0.074,0.003 -0.1137,0.0047 0.01,0.07704 -0.1521,0.08073 -0.2305,0.11007 -0.1448,0.05417 -0.2956,0.09061 -0.4434,0.135911 -0.363,0.02172 -0.4606,0.02622 -0.6252,0.0155 0,0.0046 0.01,0.01008 0.01,0.01188 -0.434,0.196049 -0.3282,0.140917 -0.8459,0.206706 -0.44,-0.05295 -0.8775,-0.05988 -1.3193,-0.04754 -0.5318,-0.08357 -0.7737,-0.241184 -1.1369,-0.47594 0.013,0.0034 -0.092,-0.03811 -0.5436,-0.17725 -0.3248,-0.0082 -0.5992,-0.215556 -0.9054,-0.299207 -0.01,-0.0019 -0.01,0.0176 0,0.0217 0.021,0.01439 0.083,0.0021 0.072,0.02532 -0.014,0.02901 -0.063,0.01368 -0.094,0.02066 -0.4468,0.06216 -0.8976,0.05235 -1.3467,0.03669 -0.062,-0.0021 -0.1295,0.02151 -0.1845,-0.0062 -0.3138,-0.158152 -0.6026,-0.361754 -0.9038,-0.542602 -0.043,-0.05136 -0.1047,-0.08557 -0.1437,-0.140044 -0.041,-0.05739 -0.078,-0.117663 -0.1152,-0.177769 -0.08,-0.03272 -0.02,-0.0086 -0.2145,-0.08475 -0.3751,-0.25508 -0.861,-0.38126 -1.1731,-0.744141 -0.1496,-0.174104 -0.2528,-0.382974 -0.3793,-0.57464 -0.1526,-0.02363 -0.097,-0.01254 -0.186,-0.176218 -0.014,0.0011 -0.055,-0.03041 -0.075,-0.04289 -0.1094,-0.06989 -0.2302,-0.127847 -0.3209,-0.220657 -0.1599,-0.16346 -0.2818,-0.359976 -0.4227,-0.54002 0.02,0.116549 -0.075,0.0096 -0.1768,-0.12764 -0.096,-0.04732 -0.1897,-0.10446 -0.2873,-0.143661 l -0.4113,-0.417544 c -0.013,-0.0168 -0.025,-0.03441 -0.037,-0.05168 -0.098,-0.02521 -0.1897,-0.07241 -0.2837,-0.114204 0.1002,0.03701 0.1869,0.06391 0.2578,0.07751 -0.01,-0.01177 -0.016,-0.02342 -0.025,-0.03514 -0.036,-0.01984 -0.07,-0.03996 -0.088,-0.05736 -0.019,-0.01775 -0.036,-0.09455 -0.018,-0.07596 0.04,0.04079 0.074,0.08664 0.1064,0.133326 0.027,0.0149 0.055,0.02937 0.08,0.04238 0.3607,0.043 0.2898,-0.259509 0.1096,-0.654741 -0.4637,0.03822 -1.0588,-0.245202 -1.5323,-0.973068 -0.3058,-0.470128 -0.53,-0.986296 -0.8149,-1.468128 -0.019,-0.03269 -0.056,-0.05283 -0.077,-0.08423 -0.047,-0.06916 -0.073,-0.151995 -0.1271,-0.216006 -0.034,-0.04042 0.044,0.09572 0.067,0.143661 -0.099,-0.148146 -0.1972,-0.296275 -0.2956,-0.444418 -0.07,-0.233696 -0.029,-0.09747 -0.067,-0.222726 -0.01,-0.005 -0.019,-0.01236 -0.024,-0.01654 -0.1866,-0.146965 -0.3456,-0.325802 -0.5183,-0.488857 -0.3092,-0.48686 -0.4307,-1.041469 -0.6134,-1.57665 -0.1784,-0.522814 0.046,0.93702 -0.2041,-0.588594 -0.032,-0.196281 -0.026,-0.396828 -0.039,-0.595313 0.078,-1.085871 0.083,-2.173086 0.067,-3.260783 -0.044,-0.09859 -0.083,-0.200594 -0.071,-0.241329 -0.068,-0.157094 -0.1359,-0.314849 -0.1876,-0.478007 -0.166,-0.52374 -0.1877,-1.23439 -0.2222,-1.785419 0.016,-0.458282 -0.01,-0.242088 0.062,-0.650089 0.066,-0.390311 0.1853,-0.54424 0.3359,-0.550873 0.016,-7.94e-4 0.034,0.0063 0.05,0.0088 -5e-4,-0.02959 0,-0.08833 0,-0.106971 -0.4864,-0.05517 -0.9018,-0.571817 -0.8211,-1.564246 0.1055,-1.298691 -0.179,-2.63956 0.1157,-3.925858 0.182,-0.79406 0.5362,-1.062011 0.8599,-1.741494 0.3456,-0.85919 0.8946,-1.60524 1.2243,-2.47065 0.6916,-1.2297 0.1718,-0.23963 0.5539,-1.08624 0.057,-0.12694 0.1897,-0.51998 0.168,-0.3824 -0.021,0.12979 -0.064,0.52125 -0.045,0.39119 0.035,-0.24474 0.063,-0.49014 0.095,-0.73536 0.432,-0.65088 0.3376,-0.48995 0.8371,-1.00924 0.022,-0.0225 0.021,-0.0619 0.043,-0.0832 0.095,-0.0886 0.1985,-0.16624 0.2992,-0.24804 0.01,-0.0129 0.01,-0.0239 0.016,-0.0367 0,7.9e-4 0,10e-4 0,0.002 0.1143,-0.22153 0.061,-0.12149 0,-0.002 0.029,-0.0157 0.095,-0.057 0.074,-0.0382 -0.029,0.0264 -0.061,0.0501 -0.091,0.0749 -0.04,0.0867 -0.075,0.17009 -0.04,0.13539 0.342,-0.33836 0.5473,-0.82373 0.9508,-1.08572 0.023,-0.0152 0.048,-0.0259 0.074,-0.0336 0.048,-0.0295 0.095,-0.0591 0.1323,-0.0972 0.028,-0.0295 0.026,-0.0801 0.054,-0.11006 0.143,-0.15245 0.309,-0.28183 0.4543,-0.43202 0.2212,-0.22865 0.412,-0.48505 0.6191,-0.72657 0.2114,-0.31239 0.4445,-0.6843 0.7689,-0.91106 0.073,-0.10786 0.1498,-0.21299 0.2248,-0.31936 0.6311,-0.6107 1.3848,-1.01333 2.205,-1.28364 l 0.846,-1.011308 3.9615,-1.10484 z m -17.5772,24.502889 c 0.025,0.05641 0.046,0.113951 0.07,0.170534 -9e-4,-0.05617 0,-0.112294 0,-0.168465 -0.042,-0.02703 -0.062,-0.02307 -0.068,-0.0021 z m 0.07,0.170534 c 4e-4,0.0236 7e-4,0.04719 0,0.0708 0.06,0.132286 0.1302,0.25608 0.1069,0.191204 -0.032,-0.08887 -0.071,-0.175065 -0.108,-0.261999 z m 17.6026,-23.776843 c -0.01,0.006 -0.016,0.0125 -0.022,0.0196 0.01,-0.002 0.02,-0.004 0.03,-0.006 0,-0.005 -0.01,-0.009 -0.01,-0.0134 z m 3.3667,0.33487 c 0.026,0.0327 0.051,0.0641 0.089,0.108 0.04,0.0143 0.077,0.0302 0.109,0.0481 -0.014,-0.018 -0.029,-0.0378 -0.041,-0.0481 -0.047,-0.0426 -0.1019,-0.0763 -0.1576,-0.108 z m 3.3414,1.798328 c 0.021,0.0207 0.042,0.0424 0.064,0.0625 0.01,0.007 0,-0.0239 -0.01,-0.0294 -0.019,-0.012 -0.039,-0.0215 -0.057,-0.0331 z m 0.633,0.863 c 0.028,0.0491 0.045,0.0849 0.08,0.14108 0.026,0.0427 -0.014,-0.0285 -0.047,-0.11007 -0.012,-0.01 -0.022,-0.0208 -0.033,-0.031 z m 4.375,8.89145 c -0.098,0.15424 -0.2005,0.30654 -0.2595,0.47749 -0.046,0.13477 0.1834,-0.21844 0.275,-0.32763 -0.01,-0.0591 -0.011,-0.10385 -0.015,-0.14986 z m -6.7707,5.793441 0.1121,0.148313 c 0.03,-0.0208 0.061,-0.04016 0.091,-0.06046 z m -18.7999,4.507736 c 0,0.0204 0.01,0.04319 0.01,0.04651 2e-4,-2.64e-4 4e-4,-7.94e-4 6e-4,-0.0011 0,0.0058 0,-0.02737 0,-0.04444 -9e-4,-2.65e-4 0,-7.94e-4 0,-0.0011 z m 8.2729,2.238623 c -0.01,0.01572 -0.017,0.03141 -0.026,0.04703 -4e-4,0.122116 -0.012,0.248417 0,0.185002 0.01,-0.04391 0.017,-0.142449 0.025,-0.232027 z m 15.196,6.467822 c -0.012,0.01529 -0.022,0.03145 -0.033,0.04703 0.1102,0.02238 0.2209,0.04335 0.3302,0.06873 0.01,-0.0032 0.01,-0.0046 0.011,-0.0078 -0.1029,-0.03277 -0.2057,-0.07099 -0.3085,-0.108006 z m -15.1578,1.80816 c -0.06,0.0043 -0.01,5.29e-4 -0.096,0.0067 l 0.01,0.254765 z m -8.4248,1.459341 c 0.042,0.01212 0.082,0.02824 0.122,0.04599 -0.021,-0.0079 -0.04,-0.01323 -0.062,-0.02223 -0.02,-0.0079 -0.04,-0.01587 -0.06,-0.02379 z m 18.9679,0.05271 -0.048,0.02997 c 0,0.01953 0.01,0.03675 0.01,0.05685 0,-0.0084 0.01,-0.01691 0.01,-0.02532 0.01,-0.02045 0.02,-0.04104 0.03,-0.06149 z m 2.1916,0.184486 c -0.048,0.04491 -0.1052,0.08303 -0.1396,0.13901 -0.014,0.02233 0.057,-0.0055 0.075,-0.02479 0.02,-0.02188 0.044,-0.07229 0.065,-0.114205 z m -20.2334,0.232027 c -0.01,7.93e-4 0.066,0.132797 0.109,0.166399 0,0.0032 0.013,0.007 0.018,0.01035 -0.046,-0.06712 -0.1113,-0.160279 -0.1178,-0.16795 -0.01,-0.0059 -0.01,-0.0089 -0.01,-0.0088 z m 18.7585,1.743561 c -0.061,0.03128 -0.1107,0.0531 -0.1772,0.09043 -0.015,0.0085 0.037,0.01945 0.051,0.0093 0.043,-0.03132 0.084,-0.0663 0.1261,-0.09974 z m -15.7871,0.775663 c -0.01,5.3e-4 0.04,0.118177 0.075,0.147797 0.014,0.01212 0.03,0.02297 0.045,0.03462 -0.037,-0.05904 -0.072,-0.118782 -0.1127,-0.175183 0,-0.0053 -0.01,-0.0073 -0.01,-0.0072 z m 4.1553,1.413868 c -0.013,-0.0021 -0.022,-0.0016 -0.015,0.0041 0.06,0.05411 0.1835,0.102079 0.2186,0.114205 -0.055,-0.03549 -0.1046,-0.06772 -0.1669,-0.106971 -0.01,-0.0047 -0.024,-0.0093 -0.036,-0.01138 z m -5.5232,7.036781 0.8702,1.046964 0.8703,1.04748 -2.7611,-0.136943 -2.7606,-0.13694 1.8904,-0.910024 z m 15.844,0 0.8702,1.046964 0.8703,1.04748 -2.7606,-0.136943 -2.7611,-0.13694 1.8909,-0.910024 z m 1.4878,2.960542 0.7565,2.274798 0.7565,2.274795 -0.8702,1.046965 -0.8702,1.047481 0.1137,-3.321761 z m -8.6424,1.733227 0.7266,2.166277 0.7265,2.166792 -0.7265,2.166276 -0.7266,2.166276 v -4.332552 z m 4.0938,0.866614 h 1.2723 1.2728 l 0.6883,4.333069 0.6883,4.332552 -0.1607,-0.136942 -0.1602,-0.136943 -1.8004,-0.873848 -1.8004,-0.874366 v -3.321761 z m 5.7614,4.685502 4.2101,5.300969 4.2101,5.300451 0.8314,-0.999939 0.831,-0.999938 v 1.809708 1.809709 l -2.1606,2.157491 -2.1606,2.158007 v -4.48448 -4.483964 l -2.8804,-1.854667 -2.881,-1.855184 v -1.929081 z m -15.844,3.980119 h 2.1606 2.1606 v 1.733228 1.73271 h -2.1606 -2.1606 v -1.73271 z m 10.1699,0.866614 1.4682,3.03289 1.4681,3.03289 h 2.744 2.744 l 0.7137,5.63273 0.7136,5.632215 0.8734,9.532234 0.8728,9.5322354 3.4892,20.8318026 3.4886,20.831804 2.0428,7.764383 2.0433,7.764383 4.5341,15.386659 4.5346,15.386658 2.8453,6.710182 2.8448,6.710704 h 0.7415 0.7421 l -1.542,-3.466457 -1.5415,-3.465938 h 0.7891 0.7886 l 3.5827,9.747726 3.5832,9.747724 v 1.23559 1.2361 l -10.0076,5.4808 -10.0072,5.4808 h -2.236 -2.2355 v -1.65158 -1.65209 l 5.041,-2.87838 5.0416,-2.87838 v -1.97662 -1.97611 l -21.4313,0.60048 -21.4307,0.60048 -2.3353,-4.01164 -2.3352,-4.01164 -0.022,3.41839 -0.022,3.41892 -1.5394,-2.59984 -1.54,-2.59933 0.8222,5.7304 0.8217,5.7304 -2.7725,3.58066 -2.7724,3.58015 0.7994,-3.67833 0.7995,-3.67833 h -2.8722 -2.8722 l -1.7823,-2.58382 -1.7823,-2.58434 1.7813,-11.358483 1.7807,-11.358996 -0.664,-0.798918 -0.6646,-0.799435 -1.8314,9.976135 -1.8314,9.975617 -0.9204,1.93684 -0.9203,1.93631 -3.0665,-5.63997 -3.0665,-5.63996 1.402,-2.362647 1.3555,-2.283582 -1.9136,0.385506 -2.3043,0.463537 -3.933,-9.129157 -3.9331,-9.129675 -1.2067,-1.814878 -1.2061,-1.814875 -12.945,-4.977474 -12.9444,-4.977474 0.8444,-5.081344 0.8449,-5.081344 -1.774,-1.319299 -1.7736,-1.318782 9.8465,-1.167886 9.8469,-1.16789 1.5648,-1.237133 1.5642,-1.237134 1.756,-6.065779 1.7554,-6.066295 0.6527,-19.735746 0.6527,-19.7357466 10.143,-14.4931724 10.1425,-14.492655 h 4.9693 4.9692 v 3.197737 3.197221 l -3.0794,3.301607 -3.0794,3.301607 -9.8842,15.3349814 -9.8836,15.3349819 v 3.0793977 3.079398 l 4.501,1.083138 4.501,1.083138 h 4.0215 4.0209 l 0.6976,-2.166276 0.6982,-2.166792 5.3439,6.806303 5.3433,6.805784 1.1095,-2.473232 1.1095,-2.473235 1.7973,-14.7944437 1.7973,-14.7949629 -3.1213,-7.3618254 -3.1212,-7.361824 0.8594,-1.6738 0.8599,-1.673283 h 1.8996 1.9001 l 2.3916,-3.899503 2.3916,-3.899504 0.785,2.166276 0.7849,2.166276 h 4.2008 4.2013 l 0.043,-5.632214 z m -38.7521,135.260476 0.027,-0.0052 0.02,-0.07338 z m 0.027,-0.0052 -0.7911,2.959507 -0.8108,3.032892 h 1.5007 1.5006 l -0.5178,-3.032892 -0.5183,-3.032889 z m 88.0588,-134.388703 h 9.1384 9.138 v 1.43092 1.431437 l 9.1803,11.833386 9.1808,11.833903 0.9018,10.3859294 0.9022,10.3864456 v 18.665569 18.665526 l 1.4227,0.577744 1.4226,0.577741 -2.143,4.964039 -2.1425,4.964038 v 2.992583 2.992581 l -10.0717,4.878773 -10.0723,4.878771 -4.5542,9.695016 -4.5543,9.694497 -3.5563,7.799007 -3.5564,7.799006 -1.2346,1.61334 -1.2345,1.61282 -4.5403,-12.011668 -4.5403,-12.01167 -1.3487,-5.199166 -1.3488,-5.199165 -2.8427,-12.998691 -2.8422,-12.998172 -1.4211,-6.685381 -1.4211,-6.685896 -5.7191,-20.366198 -5.7195,-20.3661986 V -16.694931 -28.204822 h 3.5161 3.5155 l 1.0346,-2.013831 1.0345,-2.01383 -3.007,-2.929537 -3.0071,-2.930054 15.2451,-1.121895 z m 47.3112,11.264945 0.7566,2.274796 0.7565,2.274797 -0.8702,1.046965 -0.8702,1.046964 0.1137,-3.321761 z m -52.0805,0.866614 v 1.444356 1.444356 l 0.9602,1.154969 0.9601,1.155485 h 1.9208 1.9203 v -2.599325 -2.599841 h -2.8809 z m 46.2861,0 h 1.3937 1.3942 l -1.4128,3.175517 -1.4123,3.175516 -1.9989,1.996261 -1.9993,1.99626 v -2.495971 -2.495972 l 1.0966,0.815454 1.0965,0.815454 0.9209,-3.491259 z m -114.9134,5.2927 2.6257,5.194515 2.6251,5.194515 v 0.824756 0.824755 h -1.5254 -1.525 l 0.8899,-1.733227 0.8903,-1.733228 h -1.5255 -1.5254 v 2.599842 2.5993244 h 2.206 2.2056 l 0.6635,2.166793 0.6635,2.166276 -1.789,12.1315594 -1.789,12.1315582 -5.4405,-6.675043 -5.4411,-6.6750458 -3.9217,1.1249951 -3.9217,1.1244792 -2.6427,0.9477454 -2.6428,0.9477481 2.5968,-4.929415 2.5962,-4.92941564 7.8636,-11.65148536 z m 30.3925,2.538863 c 0.026,0.08434 0.048,0.169514 0.065,0.256315 v -0.241329 z m 0.065,1.968872 c -0.01,0.08855 -0.015,0.178923 -0.021,0.265617 0.01,0.0089 0.013,0.0193 0.021,0.02842 z m 6.8156,1.46451 0.6589,3.033407 0.6583,3.032889 -0.6583,3.0328904 -0.6589,3.03289 v -6.0657804 z m 77.4459,8.7446864 3.961,4.760433 3.961,4.7609494 0.7203,15.1308592 0.7199,15.130859 -0.7199,5.585706 -0.7203,5.585706 -1.834,-1.380794 -1.8346,-1.380795 -0.6035,-3.771863 -0.6036,-3.771863 h 1.2573 1.2573 l 0.6242,3.899504 0.6243,3.898987 0.1963,-4.663281 0.1959,-4.6638 -1.1488,-0.854729 -1.1493,-0.854209 -1.9285,1.43402 -1.9291,1.434539 0.7178,4.517035 0.7172,4.517039 h -1.2402 -1.2407 V 16.461702 Z m -28.8075,5.986715 V 0.29313936 2.7942788 l 3.0923,2.6060426 3.0918,2.6060426 1.9704,11.790495 1.9704,11.790494 0.8878,5.632214 0.8873,5.632731 h 4.1326 4.1325 v -2.4598 -2.459281 l -2.2691,-10.97194 -2.2691,-10.971939 -1.3885,-6.5045115 -1.3886,-6.5045139 -5.1604,-2.59415624 -5.1604,-2.59467296 h -1.2645 z m -45.8644,4.3330683 0.7565,2.2747954 0.7566,2.2742815 -0.8703,1.0474802 -0.8702,1.0469641 0.1137,-3.321759 z m 54.3083,1.7332277 1.3498,2.5993248 1.3498,2.5998408 2.2427,12.131558 2.2423,12.131561 0.9823,3.033406 0.9819,3.032889 h -1.386 -1.3865 l -2.4226,-13.492199 -2.4225,-13.492199 -0.7654,-4.2720922 z m -106.2189,6.0657792 h 0.6351 0.6351 v 1.7327524 1.733227 h -1.5254 -1.5255 l 0.8904,-1.733227 z m 31.518,7.2269484 c -0.065,0.170442 -0.1317,0.337666 -0.1974,0.507981 l 0.083,0.100251 c 0.039,-0.206849 0.073,-0.397658 0.1142,-0.608232 z m 24.4864,6.060095 0.7167,0.862481 0.7168,0.862478 2.8861,13.577467 2.8861,13.577982 -0.6201,0.745692 -0.6201,0.746207 -2.9828,-12.051462 -2.9827,-12.050942 v -3.135209 z m 90.7432,24.470341 v 2.784843 2.785359 l -1.0805,-0.121955 -1.0801,-0.121957 -2.8809,-1.489315 -2.8805,-1.489313 1.6826,-0.121957 1.6826,-0.121957 2.2784,-1.052132 z m -126.202,0.37052 -2.2071,2.166792 -2.2071,2.166276 -2.3182,12.131559 -2.3177,12.131561 -2.3875,16.999995 -2.3869,16.999484 0.8754,1.05368 0.8754,1.05317 0.1705,-4.18838 0.1705,-4.18786 1.0434,5.19917 1.0439,5.19916 0.7684,-2.59984 0.7684,-2.59932 2.3032,-15.469344 2.3032,-15.469341 1.2661,-0.995286 1.2666,-0.995288 0.1189,-5.869927 0.1188,-5.869927 1.5529,-1.868619 1.5529,-1.86862 14.0219,-0.664557 14.0213,-0.664043 4.9651,15.335498 4.9651,15.33498 4.6891,11.492324 4.6891,11.49181 -0.8919,1.0728 -0.892,1.07332 1.3204,-0.0264 1.3203,-0.0269 1.9461,-1.48362 1.9462,-1.48415 -7.8781,-24.052801 -7.8786,-24.052797 -2.5456,-8.232055 -2.5456,-8.232571 h -16.8134 z m 30.0136,3.011702 1.2444,2.393654 1.2444,2.393651 -3.2029,0.378788 -3.2035,0.378272 -14.0446,0.487825 -14.0446,0.488342 0.4739,-1.733227 0.4733,-1.732712 15.5298,-1.527553 z m 12.8742,3.054593 0.7565,2.274282 h 6e-4 l 0.7565,2.274795 -0.8702,1.046964 -0.8703,1.047483 0.1132,-3.321762 z m 82.1608,0 0.9989,4.318601 0.9989,4.319117 3.3497,2.009179 3.3497,2.00918 7.7509,9.210807 7.7515,9.210291 v 14.945337 14.94535 l -4.7026,5.04465 -4.702,5.04465 -5.4307,5.63222 -5.4302,5.63273 h -1.1249 -1.125 l -3.2386,-6.9324 -3.2381,-6.93239 h -0.7131 -0.7126 l 0.9896,1.92702 0.9896,1.92649 -1.7735,1.3193 -1.7736,1.31879 1.6557,3.72225 1.6558,3.72277 -0.7959,1.54926 -0.7958,1.54926 1.8092,1.01441 1.8097,1.01441 -1.8004,1.0113 -1.8004,1.01079 v 3.03289 3.03289 l 0.8418,1.01338 0.8418,1.01286 2.7068,-2.78898 2.7069,-2.78846 -1.4248,-2.06602 -1.4252,-2.06551 2.4035,-1.11001 2.4034,-1.1095 0.4455,0.53537 0.4454,0.53589 0.2057,52.79781 0.2062,52.79832 -0.1375,1.91566 -0.1369,1.91564 -9.0026,1.05161 -9.0025,1.05161 -14.4032,1.67122 v 0 l -14.4038,1.67121 -12.3124,1.05577 -12.3124,1.05574 -1.7451,-16.95969 -1.7451,-16.95969 0.014,-4.76612 0.014,-4.76612 h -2.3368 -2.3373 l 1.7932,2.59985 1.7931,2.59984 h -1.5833 -1.5834 l -2.4133,-4.43126 -2.4128,-4.43073 -6.6223,-5.43947 -6.6229,-5.43946 2.1606,3.2613 2.1606,3.26079 -5.642,-4.57905 -5.642,-4.57957 -1.1503,0.85576 -1.1504,0.85525 -5.811,-3.56671 -5.811,-3.56722 v -1.88309 -1.88361 l 2.3642,1.09193 2.3647,1.0914 -2.0045,-2.97191 -2.004,-2.97191 1.6495,1.18907 1.6495,1.1896 0.801,-2.51148 0.801,-2.51147 6.0172,-3.69383 6.0177,-3.69384 7.736,-9.38289 7.7364,-9.3834 v -2.65307 -2.65359 l -2.0861,-0.96324 -2.0862,-0.96325 -3.2267,3.61735 -3.2267,3.61683 h -1.8893 -1.8887 l 0.069,-1.29966 0.069,-1.29966 2.4614,-6.06578 2.4613,-6.06578 13.3894,-0.49971 13.3894,-0.49972 -0.4357,3.09956 -0.4361,3.09903 4.7087,0.54571 4.7088,0.54518 -0.6759,1.31517 -0.6754,1.31516 8.4692,3.38688 8.4687,3.38687 -10.3414,0.0243 -10.3415,0.0243 -2.8805,2.04122 -2.8809,2.04122 1.8856,0.0527 1.8852,0.0527 -0.849,1.65313 -0.8491,1.65262 15.8879,-0.38396 15.8879,-0.38395 v 3.77703 3.77703 l 1.8005,-0.45166 1.8009,-0.45113 2.5378,-1.32188 2.5384,-1.32189 4.6637,1.11415 4.6633,1.11466 2.881,0.37878 2.8809,0.37879 0.4599,-3.89898 0.4605,-3.89951 4.5811,-0.24598 4.5811,-0.24598 -5.7619,-1.24127 -5.7614,-1.24126 5.7614,-0.48214 5.7619,-0.48163 -3.2623,-0.75447 -3.2624,-0.75448 0.6088,-1.17616 0.6082,-1.17563 -9.3488,0.58756 -9.3492,0.58756 0.7942,-9.25318 0.7938,-9.25318 1.6949,-20.79719 1.6945,-20.797177 2.9233,-3.899506 2.9234,-3.899503 h -1.4035 -1.4031 l -1.8686,2.166276 -1.8681,2.166276 0.5524,-3.465938 0.5519,-3.466455 2.2764,0.456303 2.2763,0.456304 1.6573,-2.402954 1.6573,-2.402954 -0.8992,-2.819466 -0.8992,-2.81895 -3.0866,-0.117306 -3.0866,-0.117306 3.2406,-1.88102 3.2411,-1.880508 v -3.099035 -3.099036 l 1.4402,-1.071253 1.4403,-1.07125 V 60.04816 56.65095 l 3.6008,1.08779 3.6013,1.087273 0.1437,-2.354379 z m -19.0117,0.866098 h 2.2453 2.2459 l -0.8904,1.733227 -0.8899,1.733228 h -1.3555 -1.3554 v -1.733228 z m 7.2016,1.155486 0.8702,1.046964 0.8703,1.04748 -0.6062,2.189014 -0.6067,2.189531 -1.1281,-2.196248 -1.1281,-2.196248 0.8646,-1.040247 z m -6.1945,6.469888 -1.1896,6.152597 -1.189,6.153113 -0.035,2.166276 -0.034,2.166276 3.9609,0.156061 3.961,0.156581 -4.4834,1.564762 -4.4834,1.564761 0.6904,4.34444 0.6904,4.344953 h -1.6087 -1.6082 v -4.332552 -4.332552 l -1.8004,0.09405 -1.8004,0.09405 -6.0797,2.938838 -6.0792,2.938838 -7.3154,11.053591 -7.3153,11.053587 0.4315,7.87498 0.4315,7.87497 -3.8189,4.90151 -3.8189,4.90151 h -12.222 -12.2219 l -0.6341,-5.19917 -0.6341,-5.19916 h 2.2144 2.2148 l 11.959,-7.33185 11.9594,-7.33186 8.1949,-18.010791 8.1954,-18.010785 6.5489,-3.333647 6.5495,-3.333131 5.1847,-3.040123 z m 1.8738,1.040246 h 2.1601 2.1606 v 3.466457 3.465939 h -2.1606 -2.1601 v -3.465939 z m -174.1149,5.199166 h 0.6351 0.6351 v 1.73323 1.733227 h -1.5255 -1.5255 l 0.8904,-1.733227 z m 66.3143,0.866616 v 4.333068 4.332552 l 0.7266,-2.166276 0.7265,-2.166276 -0.7265,-2.166276 z m 46.0473,3.466454 1.3798,4.151167 1.3797,4.151167 -0.573,0.689364 -0.5731,0.689883 -0.8982,-2.816368 -0.8981,-2.815847 0.091,-2.024684 z m -47.4875,8.66562 -0.1137,3.321762 h -5e-4 l -0.1132,3.321762 0.8702,-1.046964 0.8703,-1.047483 -0.7566,-2.274798 z m 97.7175,6.055961 v 3.471106 3.471105 h 2.1704 2.1699 l -0.556,9.028906 -0.556,9.02943 -1.8687,0.74931 -1.8681,0.7493 -6.0285,6.6859 -6.0281,6.6859 h -0.9193 -0.9193 v -1.67845 -1.67897 l -2.1787,1.00614 -2.1792,1.00614 -2.142,-2.1394 -2.142,-2.13889 v -4.00596 -4.00595 l 7.2631,-10.94663 7.2632,-10.946616 4.2596,-2.171444 z m -107.8001,7.808828 0.7266,2.166276 0.7265,2.166273 -0.7265,2.16628 -0.7266,2.16679 v -4.33307 z m -64.6193,2.710944 1.2278,0.913122 1.2278,0.913123 v 8.87905 8.87904 l 1.6253,15.24713 1.6252,15.24714 1.2557,-0.9338 1.2553,-0.93379 -0.167,4.86792 -0.1669,4.86843 -0.6583,-3.0303 -0.6584,-3.02979 -2.158,2.59674 -2.1585,2.59674 h -2.0578 -2.0577 v -12.73204 -12.73204 l 0.9327,-15.80833 z m 8.0501,7.263635 12.3269,14.83218 12.3264,14.83165 v 0.34261 0.34262 l -2.5642,0.80667 -2.5642,0.80667 -7.4657,-1.15239 -7.4662,-1.15238 -0.7725,2.42259 -0.7726,2.42259 v 0.82734 0.82682 l 1.4449,-1.07435 1.4449,-1.07487 8.2775,-0.0858 8.2775,-0.0858 2.7611,0.19172 2.7605,0.19121 -0.6454,0.77669 -0.6449,0.77618 -12.3843,3.23133 -12.3837,3.23133 -0.7442,-12.24008 -0.7446,-12.23957 1.4598,-2.15645 1.4599,-2.15646 -0.7043,-3.90932 -0.7044,-3.90984 -0.9891,-2.8112 z m 170.3581,0.42375 0.7566,2.2748 0.7565,2.27479 -0.8702,1.04697 -0.8703,1.04697 0.1142,-3.32177 z m -8.1494,5.19969 -2.5202,2.37815 -2.5208,2.37866 v 0.65423 0.65474 h 0.5436 0.5437 l 1.9771,-3.03289 z m -61.0241,2.25257 0.5462,0.65681 0.5462,0.65681 -1.1824,2.30115 -1.1818,2.30167 -0.9235,-1.79834 -0.9239,-1.79886 1.5596,-1.15962 z m -32.8735,0.34675 h 0.3623 0.3617 l -0.6904,3.17758 -0.6904,3.17707 h -2.0614 -2.0613 l 2.3895,-3.17707 z m 100.3794,3.04374 -0.1261,7.5768 -0.1261,7.57732 -0.9544,8.39018 -0.954,8.3907 -1.0542,-1.28209 -1.0537,-1.28209 0.8465,-4.05918 0.847,-4.0597 -1.9534,-0.90021 -1.9534,-0.9002 0.1639,-7.26726 0.1632,-7.26725 3.0774,-2.45877 z m -73.132,0.45992 -1.7802,2.58072 -1.7803,2.58124 h 1.3286 1.3292 l 1.8133,-2.16627 1.8138,-2.16628 -0.9699,3.06545 -0.97,3.06596 -3.5429,-0.57103 -3.5425,-0.57102 -0.9741,-1.6955 -0.9741,-1.69603 -5.3257,-0.0532 -5.3258,-0.0537 0.7441,1.449 0.7442,1.44901 1.3296,-0.98857 1.3291,-0.98857 2.357,1.58698 v 5.3e-4 l 2.3569,1.58698 -1.6252,1.20871 -1.6252,1.20872 v -1.6428 -1.64279 l -1.8004,0.0801 -1.8004,0.0806 -4.6814,-0.27285 -4.6814,-0.27337 v -2.45773 -2.45825 l 13.1269,-0.12299 z m -56.2136,3.24012 1.971,3.12745 1.9709,3.12694 0.045,1.25574 0.046,1.25522 4.3635,2.71508 4.3636,2.71456 1.3978,-1.03921 1.3979,-1.03973 v 1.70326 1.70325 l -11.6649,0.56534 -11.665,0.56534 -0.6774,-1.32808 -0.678,-1.32809 -1.1767,0.8754 -1.1772,0.8754 -0.7493,-3.44682 -0.7488,-3.44682 h 2.8112 2.8112 l 3.6794,-4.42712 z m -35.9626,1.05523 -0.054,5.19916 -0.053,5.19969 0.7173,-2.13372 0.7172,-2.13321 -0.664,-3.06596 z m 99.2787,1.73322 0.7565,2.2748 0.7565,2.27428 -0.8702,1.04748 -0.8702,1.04697 0.1137,-3.32176 z m -43.5292,0.86662 h 3.6463 3.6463 v 1.59112 1.59163 l 0.8067,2.52904 0.8066,2.52957 -4.5413,0.80201 -4.5408,0.80202 -0.741,-2.32337 -0.7406,-2.32286 0.8289,-2.59984 z m 100.0606,0 h 0.7204 0.7203 l -5.626,6.93239 -5.626,6.9324 h -0.7204 -0.7198 l 5.626,-6.9324 z m -161.6785,0.86661 0.7266,2.16628 0.7265,2.16627 -0.7265,2.16628 -0.7266,2.16628 v -4.33256 z m 100.8584,0.85525 1.3105,0.9741 1.3106,0.97462 v 2.49752 2.49752 h -3.6014 -3.6008 v -2.41432 -2.41432 l 2.2908,-1.05782 z m -28.8401,0.87746 0.7566,2.2748 h 5e-4 l 0.756,2.2748 -0.8702,1.04696 -0.8697,1.04697 0.1131,-3.32177 z m 2.6536,0 h 7.922 7.922 v 3.03289 3.03341 h -6.9618 -6.9619 l -0.9601,-1.15548 -0.9602,-1.15549 v -1.8774 z m 73.5247,3.84266 -0.9074,2.84479 -0.9069,2.84479 h -1.2863 -1.2862 v -0.65423 -0.65422 l 2.1932,-2.19056 z m -40.5732,0.45527 -0.1985,3.1719 -0.1984,3.1719 -3.4189,1.94149 -3.4194,1.94148 1.9058,-2.92282 1.9053,-2.9223 1.712,-2.19108 z m 101.2305,2.63447 0.7265,2.16679 0.7261,2.16628 -0.7261,2.16627 -0.7265,2.16628 v -4.33255 z m -1.6682,0.74466 v 6.12675 6.12676 l -1.08,-0.13643 -1.0805,-0.13694 -1.8005,-0.87436 -1.8004,-0.87385 v -3.26079 -3.26078 l 2.881,-1.85518 z m -115.8791,0.98856 0.9089,7.37268 0.9085,7.37216 -0.7519,3.45974 -0.7519,3.45922 -6.6735,-0.35295 -6.674,-0.35243 -11.6726,-0.57981 -11.6732,-0.57981 0.6583,-4.14394 0.6584,-4.14393 1.7559,0.8108 1.7555,0.81029 1.5854,-4.18682 1.5855,-4.18735 -1.2537,-1.51205 -1.2537,-1.51257 14.3283,-0.58446 14.3289,-0.58498 0.2041,6.65076 0.2046,6.65024 0.9111,-6.93239 z m 2.0903,0.86662 h 0.602 0.6025 l 2.1022,0.97048 2.1017,0.97048 -1.6242,4.21525 -1.6242,4.21473 -1.08,0.0139 -1.08,0.0139 v -5.19968 z m -38.8902,2.50372 v 3.08095 3.08095 h -2.0758 -2.0753 l -0.8072,1.57148 -0.8072,1.57148 2.9042,-0.91364 2.9042,-0.91416 -0.896,2.80862 -0.8956,2.80861 h -1.4004 -1.401 l 0.9788,5.36143 0.9787,5.36143 v 5.91437 5.91385 l 3.2763,0.9896 3.2758,0.98909 1.6547,4.36976 1.6546,4.36924 2.127,-0.98185 2.127,-0.98237 v 2.64739 2.6479 l -1.4376,-1.06919 -1.4382,-1.06918 -2.8737,2.42207 -2.8742,2.42207 0.9508,1.14464 0.9514,1.14411 -2.0407,0.0264 -2.0402,0.0269 1.9208,1.46502 1.9213,1.46555 -2.281,1.05316 -2.2815,1.05369 -0.1013,-2.97864 -0.1012,-2.97862 -1.3653,3.46645 -1.3658,3.46594 0.7146,-8.66562 0.7147,-8.66511 -1.5849,3.25769 -1.5844,3.25819 0.9059,9.7405 0.9059,9.73997 -1.5079,-2.59984 -1.5079,-2.59932 0.4976,8.72711 0.4976,8.72763 h -2.3791 -2.3787 l 1.0816,-5.76915 1.0816,-5.76916 -1.9374,1.93425 -1.9373,1.93476 0.7002,2.19522 0.6997,2.19521 -2.2257,2.22312 -2.2262,2.22312 V 182.57921 143.3723 l -0.041,-1.29966 -0.041,-1.29966 7.2435,-0.91468 z m 94.3441,0.57878 7.5619,0.19172 7.5623,0.19172 v 3.0334 3.03289 l -8.7354,0.0625 -8.7354,0.0625 2.6154,-1.39371 2.6158,-1.3932 -7.922,0.74362 -7.922,0.74414 2.1606,-0.97255 2.1601,-0.97306 0.7204,-1.29553 0.7203,-1.29605 3.6008,-0.36897 z m -126.0326,5.29425 1.801,0.87385 1.8004,0.87436 h -3.6014 -3.6008 l 1.8004,-0.87436 z m -5.581,1.66088 0.8702,1.04696 0.8702,1.04697 -2.761,-0.13695 -2.7606,-0.13642 1.8903,-0.91054 z m 139.5356,0.0723 1.8004,0.87385 1.8005,0.87437 h -3.6009 -3.6008 l 1.8004,-0.87437 z m 52.2092,0.13901 0.8067,0.97049 0.8061,0.96997 -1.79,2.13733 -1.7896,2.13786 0.9834,-3.10782 z m -179.682,0.27234 h 1.4407 1.4403 l -3.6009,2.47685 -3.6013,2.47685 h -1.4402 -1.4402 l 3.6008,-2.47685 z m 134.8548,1.24954 0.8702,1.04696 0.8703,1.04697 -2.7606,-0.13695 -2.761,-0.13642 1.8908,-0.91054 z m -151.2693,0.40049 -0.8129,1.58233 -0.8123,1.58182 2.5383,0.79685 2.5384,0.79633 -2.1606,0.17467 -2.1606,0.17466 -1.9213,-1.46554 -1.9214,-1.46555 2.3565,-1.08778 z m 155.6975,2.56005 0.9942,4.33255 0.9943,4.33307 6.1422,0.53743 6.1428,0.53744 0.8196,2.57039 0.8196,2.56986 -0.5499,0.66198 -0.5498,0.66197 -2.6236,-1.76681 -2.6236,-1.76682 -6.2673,0.59996 -6.2673,0.59997 -0.6202,-3.90261 -0.6196,-3.9026 h 1.9606 1.9612 l 0.1431,-3.03289 z m 43.6443,2.77192 3.2634,0.98961 3.2628,0.9896 0.7829,1.52394 0.7829,1.52394 h -1.25 -1.2501 l -2.7962,-2.51355 z m -203.8123,1.56063 h 2.2453 2.2454 l -0.8899,1.73323 -0.8904,1.73323 h -1.3555 -1.3549 v -1.73323 z m 193.0093,0 h 2.6578 2.6572 l 2.607,3.46646 2.6071,3.46593 h 1.9854 1.9849 l 7.5143,4.54133 7.5137,4.54132 0.431,0.45424 0.431,0.45424 -8.9695,10.1694 -8.9695,10.16889 -2.3822,2.59984 -2.3823,2.59932 -3.8427,4.20181 -3.8432,4.20182 V 180.9359 Z m -97.225,1.26711 -2.8804,2.77761 -2.881,2.7776 -1.08,0.0553 -1.0806,0.0548 v -1.73271 -1.73322 h 1.3224 1.3229 l 2.6386,-1.09968 z m 39.7903,0.1049 0.8703,1.04748 0.8702,1.04697 -2.7606,-0.13695 -2.761,-0.13694 1.8908,-0.91002 z m -149.2585,1.22783 -1.9767,3.03289 -1.9766,3.03289 h -0.5441 -0.5437 v -0.65422 -0.65423 l 2.5208,-2.37866 z m 163.482,0.61237 2.5207,0.79271 2.5208,0.7922 h -5.0415 -5.0411 l 2.5208,-0.7922 z m -104.0423,1.98747 19.2526,0.19896 19.2531,0.19947 -5.0416,1.21285 -5.041,1.21284 -3.6008,2.27686 -3.6013,2.27687 -2.6268,2.76159 -2.6272,2.76158 0.4119,-1.68465 0.4118,-1.68465 -2.0923,-3.8995 -2.0924,-3.89951 h -3.9744 -3.9745 v 2.76573 2.7652 l 2.9936,5.05912 2.9936,5.05861 -0.5276,1.90428 -0.5271,1.90479 -1.7151,-4.52944 -1.7152,-4.52944 h -2.1915 -2.1916 l -0.02,-2.16627 -0.02,-2.16628 -0.8687,-3.8995 z m -36.3936,0.44184 -0.7204,1.31155 -0.7198,1.31154 -2.881,0.8661 -2.8804,0.8661 5.041,0.0284 5.0416,0.0279 3.6008,-1.25315 3.6008,-1.25367 -5.0416,-0.9524 z m -10.803,3.0241 v 2.70216 2.70165 l 1.4408,-1.07074 1.4402,-1.07125 v -1.63091 -1.63091 h -1.4402 z m 55.4545,0.86661 2.5208,2.37867 2.5203,2.37867 v 0.65422 0.65423 h -0.5437 -0.5436 l -1.9771,-3.0329 z m 20.8375,1.96423 0.8062,0.96996 0.8061,0.97049 -2.5828,1.18339 -2.5828,1.18287 1.7767,-2.15336 z m 14.6911,0.34571 0.6077,0.73122 0.6077,0.73123 -7.1649,4.69221 -7.1644,4.69171 -0.8496,1.65416 -0.8495,1.65416 h -1.3555 -1.3555 v -0.99063 -0.99012 l 2.1213,-2.5523 2.1214,-2.55282 6.6404,-3.53415 z m -111.1482,1.32964 1.42,1.70842 1.4196,1.70842 h -2.8396 -2.8397 l 1.4201,-1.70842 z m 21.6059,2.22157 -1.4408,1.07125 -1.4402,1.07125 v 1.73323 1.73271 l 1.4402,-1.07074 1.4408,-1.07125 v -1.73323 z m 59.7751,2.4107 1.7906,3.07216 1.7906,3.07269 -0.8904,5.35678 -0.8904,5.35677 h -1.0051 -1.0056 l 0.1054,-8.42945 z m 6.4818,1.05575 v 1.93787 1.93735 l 1.663,-1.23662 1.6629,-1.23662 -1.0278,2.00091 -1.0279,2.00092 h -1.2702 -1.2702 l -0.8289,-1.61334 -0.8289,-1.61334 1.464,-1.08882 z m 157.4467,1.93787 h 0.7204 0.7198 l -2.6071,3.46594 -2.6065,3.46645 h -0.7204 -0.7204 l 2.6071,-3.46645 z m -244.5339,0.1726 6.9531,14.5929 6.9536,14.59343 -16.1572,18.68258 -16.1571,18.68259 -2.7714,0.5643 -2.772,0.56378 2.0294,-5.76347 2.0288,-5.76295 7.907,-21.6638 7.9065,-21.66379 2.0397,-6.41305 z m 13.6281,1.56011 v 4.91081 4.91029 l 0.9602,1.15549 0.9606,1.15548 h 0.5251 0.525 l -0.3395,-6.06629 -0.3395,-6.06578 h -1.1457 z m 234.888,0 h 1.3865 1.387 v 2.5616 2.56108 l 9.5291,24.73493 9.5291,24.73544 4.1543,10.87477 4.1543,10.87533 v 0.8232 0.8232 l -1.0801,-0.2222 -1.0805,-0.22273 -8.2693,-3.63648 -8.2698,-3.63699 -17.6573,-21.36613 -17.6568,-21.36613 11.9367,-13.76919 z m 11.3347,8.18503 1.5058,5.00641 1.5054,5.00641 3.0013,6.61304 3.0014,6.61303 -0.7178,0.86351 -0.7178,0.86352 -4.5449,-11.57397 -4.5444,-11.57346 0.7555,-0.9095 z m -169.6558,1.3472 0.7566,2.2748 h 5e-4 l 0.7565,2.27428 -0.8702,1.04748 -0.8702,1.04697 0.1137,-3.32177 z m 10.0547,0.80977 -0.8041,1.56528 -0.8035,1.56477 1.9973,1.99522 0.495,0.49403 0.864,-1.68207 0.9798,-1.90789 -1.3642,-1.01441 z m 0.8847,5.6193 -0.1163,0.22582 0.2341,-0.108 z m 0.1178,0.11782 1.385,1.38286 3.2819,0.76068 3.2825,0.76067 1.4738,1.77354 1.4744,1.77353 0.7922,-0.0548 0.7922,-0.0548 -3.9807,-4.21473 -3.9801,-4.21473 -2.3776,1.09813 z m 127.7116,0.38551 -1.9772,3.03289 -1.9766,3.03288 h -0.5441 -0.5437 v -0.65422 -0.65422 l 2.5208,-2.37867 z m -140.209,1.73322 0.7266,2.16628 0.7265,2.16627 1.6806,0.0708 1.6805,0.0708 17.9457,10.79572 17.9456,10.79573 -0.4289,16.43 -0.4284,16.43001 -0.4739,0.57878 -0.4738,0.57877 -5.8803,0.9493 -5.8802,0.94877 v -2.16059 -2.16111 l -8.2822,1.15755 -8.2822,1.15808 -4.3212,0.59013 -4.3212,0.59015 -3.2406,-0.80254 -3.2412,-0.802 0.1897,-6.37844 0.1897,-6.37892 1.1389,6.06576 1.139,6.06631 -0.5049,-13.8653 -0.5044,-13.8648 1.0046,6.9324 1.0051,6.9324 1.925,-18.73582 1.9249,-18.7358 -0.8728,-1.05007 -0.8733,-1.05058 -0.167,5.9216 -0.1669,5.92109 -0.6418,-2.92644 -0.6418,-2.92592 -3.1523,-0.73742 -3.1522,-0.73691 3.2411,-0.23616 3.2406,-0.23616 0.1137,-4.7656 z m -14.1847,0.86662 h 0.7204 0.7204 l -2.6071,3.46593 -2.6071,3.46646 h -0.7203 -0.7204 l 2.6071,-3.46646 z m 4.3212,0 h 4.098 4.0979 v 3.28197 3.28197 l -6.474,-0.12299 -6.474,-0.12299 2.376,-3.15898 z m -10.3487,8.3044 0.8697,1.04696 0.8703,1.04697 -2.7606,-0.13694 -2.7606,-0.13643 1.8904,-0.91054 z m 53.8334,2.96054 2.5208,2.37867 2.5208,2.37867 v 0.65422 0.65422 h -0.5437 -0.5441 l -1.9766,-3.03289 z m -44.1373,1.93012 3.7041,2.03088 3.7042,2.03037 v 2.63705 h -5e-4 v 2.63704 h -0.4801 -0.4801 l -0.8702,-1.04748 -0.8703,-1.04696 -8.0119,0.11524 -8.0119,0.11524 v -2.53473 -2.53421 h 2.8805 2.8809 l 0.022,2.16679 0.022,2.16627 1.3963,-2.59984 1.3963,-2.59984 0.044,1.73323 0.044,1.73323 1.3152,-2.50114 z m 191.3345,2.35541 11.1998,28.69645 11.1993,28.69642 -0.5798,0.69815 -0.5798,0.69763 -3.4204,-9.00668 -3.4205,-9.00668 -7.7287,-19.75074 -7.7282,-19.75073 0.5291,-0.63717 z m -182.0938,0.91364 0.6264,3.91966 0.6263,3.91965 -0.6553,3.01274 -0.6558,3.01273 0.03,-6.93239 z m 127.0806,0 2.5208,2.37866 2.5202,2.37867 v 0.65422 0.65423 h -0.5436 -0.5436 l -1.9772,-3.03289 z m -0.7204,5.87251 3.4773,4.86275 3.4774,4.86275 -1.4863,2.15646 -1.4862,2.15646 0.6899,4.34289 0.6899,4.34237 h -0.2972 -0.2971 l -2.3838,-3.16932 -2.3839,-3.16932 v -8.19226 z m 10.8929,1.05988 6.4368,6.85902 6.4363,6.85849 3.5864,3.9734 3.5863,3.97289 -0.7054,-0.0692 -0.7059,-0.0693 -3.7227,-2.4355 -3.7228,-2.43602 -5.5945,-8.32663 z m -40.4802,4.61936 -10.7729,1.15652 -10.773,1.15651 -0.446,8.44548 -0.4465,8.44549 0.817,2.56108 0.817,2.56109 10.4319,-1.23767 10.4325,-1.23764 1.08,-0.77255 1.0806,-0.77206 v -9.3276 -9.32759 l -1.1106,-0.82527 z m -111.3663,0.58032 1.2377,3.46594 1.2381,3.46646 0.1013,-3.03289 0.1013,-3.03341 h 2.0257 2.0257 l -0.7534,3.46646 -0.7535,3.46593 h -6.3138 -6.3138 v -2.80138 -2.80189 l 3.6013,0.82837 3.6008,0.82838 0.1013,-1.92598 z m 60.5203,0 0.7566,2.27429 0.7565,2.27479 -0.8702,1.04696 -0.8702,1.04749 0.1137,-3.32176 z m -2.7739,1.73271 0.6588,3.03289 0.6584,3.03289 -0.6584,3.03341 -0.6588,3.03289 v -6.0663 z m 48.8187,0.50592 0.8702,1.04696 0.8702,1.04697 -2.761,-0.13695 -2.7606,-0.13694 h -3.6008 -3.6008 l 1.8004,-0.87385 1.8004,-0.87436 1.8004,0.87436 1.8004,0.87385 1.8903,-0.91002 z m -96.4577,1.22731 0.7565,2.2748 0.7566,2.27479 -0.8702,1.04697 -0.8703,1.04697 0.1137,-3.32177 z m 101.6858,0 -0.1835,6.79855 -0.1834,6.79854 -2.1606,0.69919 -2.1606,0.69919 1.6831,-1.44693 1.6836,-1.44695 0.6604,-6.05079 z m -186.1747,0.0853 -5.6937,7.32307 -5.6937,7.32307 h 1.1885 1.1891 l -1.6045,2.32596 -1.6041,2.32542 1.0677,1.28521 1.0681,1.28466 -1.4407,-0.42426 -1.4402,-0.42426 -4.0546,2.01279 -4.055,2.01279 h -0.8026 -0.803 l 1.6769,-2.43085 1.6769,-2.43137 -1.1405,-0.75086 -1.1405,-0.75086 1.9105,0.57878 1.9104,0.57877 8.8925,-9.91929 z m 59.756,1.64796 -0.091,3.46594 -0.092,3.46645 -0.9793,2.96932 -0.9792,2.96934 -1.7441,-1.29656 -1.7441,-1.29707 2.8153,-5.13872 z m 105.5585,0 0.6263,3.91966 0.6263,3.91965 -0.6553,3.01273 -0.6552,3.01273 0.029,-6.93238 z m -89.6618,4.08605 2.5038,0.7891 2.5042,0.78859 -5.7614,-0.0351 -5.7619,-0.0346 3.2577,-0.75396 z m -15.6502,2.84634 0.7566,2.2748 0.7565,2.27427 -0.8702,1.04749 -0.8702,1.04695 0.1137,-3.32174 z m 76.4465,0 0.6589,3.0329 0.6584,3.03289 -0.6584,3.03287 -0.6589,3.03289 v -6.06576 z m -67.9767,0.59945 1.773,0.86351 1.773,0.863 -4.3211,-0.0646 -4.3212,-0.0641 2.5481,-0.79891 z m 106.5325,0.26717 h 2.0753 2.0759 l 0.6992,1.36167 0.6997,1.36167 h -2.7751 -2.775 v -1.36167 z m 51.5514,0.0196 0.9053,2.83806 0.9049,2.83758 -0.5488,0.66042 -0.5488,0.6604 -1.7157,-2.48716 -1.7156,-2.48719 1.3596,-1.01132 z m -153.7736,2.57969 1.3963,2.59985 1.3963,2.59982 0.022,-2.16677 0.022,-2.16628 h 2.8809 2.8805 l -0.1008,3.89951 -0.1013,3.89948 -1.2382,-3.46594 -1.2376,-3.46643 -0.1013,2.81326 -0.1013,2.81326 -6.4818,0.15658 -6.4812,0.15605 v -3.40288 -3.40289 h 0.8144 0.8149 l 2.7864,1.79419 2.7859,1.79422 0.022,-2.22726 z m -55.1801,0.96118 -1.2629,0.93895 -1.263,0.93949 0.8289,1.61335 0.8284,1.61332 h 1.3554 1.3555 v -1.44436 -1.44436 l -0.9209,-1.10845 z m 219.3334,0.22842 2.9647,0.93326 2.9646,0.93276 -0.8345,2.61689 -0.8346,2.61692 2.1931,-2.19007 2.1937,-2.19056 v 2.13064 1.75955 h -1.5255 -1.525 l 0.8899,1.73324 0.8904,1.73323 h -0.7069 -0.7075 l -2.9812,-5.03793 z m -153.8872,0.54364 0.7266,2.16627 0.7265,2.16678 -0.7265,2.16628 -0.7266,2.16627 v -4.33255 z m 91.9561,0.57774 1.8004,0.87434 1.8004,0.87387 h -3.6008 -3.6008 l 1.8004,-0.87387 z m -124.5919,1.15546 -1.9771,3.03289 -1.9766,3.0329 h -0.5437 -0.5441 v -0.65421 -0.65424 l 2.5208,-2.37865 z m -73.9613,0.6041 -1.7441,4.03077 -1.7446,4.03076 -0.3473,0.50798 -0.3472,0.50797 -0.8444,-2.6479 -0.8444,-2.64839 2.9362,-1.89035 z m 277.9535,1.63454 0.8702,1.04696 0.8703,1.04695 -2.7606,-0.13692 -2.7605,-0.13644 1.8903,-0.91054 z m -4.3511,0.401 -0.8041,1.56528 -0.8041,1.56477 1.8092,0.87797 1.8097,0.87799 -3.2406,0.13642 -3.2412,0.13695 v -1.73323 -1.36218 l 2.2355,-1.03199 z m -189.2546,3.53105 -0.6801,4.28035 -0.68,4.28038 h -0.5519 -0.5525 v -3.36415 -3.36362 l 1.232,-0.91673 z m 72.8286,0.76171 1.078,11.26496 1.0774,11.26545 -0.6392,1.29966 -0.6397,1.29966 -2.4356,-0.0692 -2.4355,-0.0692 -4.3212,-2.96365 -4.3211,-2.96363 4.6808,-0.54313 4.6814,-0.54311 v -2.48979 -2.48975 h -4.9232 -4.9238 l -2.3207,1.07177 -2.3208,1.07125 2.5631,2.43189 2.5632,2.43189 -5.3398,-2.9223 -5.3397,-2.92229 0.6129,-1.19322 0.6124,-1.19269 10.8489,-2.23295 10.8484,-2.23293 0.1969,-3.65405 z m 126.1887,0.86662 2.6055,0.13179 2.606,0.13176 5.0411,2.3363 5.0415,2.33473 -2.1606,0.0103 -2.1606,0.0109 -2.8809,-1.37149 -2.8805,-1.3715 -1.6552,0.74465 -1.6546,0.74519 -0.9509,-1.85158 z m -122.0339,2.59932 0.7266,2.1668 0.726,2.16628 -0.726,2.16628 -0.7266,2.16627 v -4.33255 z m -74.7908,0.86661 h 0.647 0.6465 l 2.7864,1.79422 2.7859,1.7942 v 1.67224 1.67175 h -4.1864 -4.1863 l 0.7535,-3.46594 z m 182.9175,0.0383 1.3007,0.96737 1.3007,0.96737 -0.7529,1.46505 -0.7524,1.46553 1.8092,0.77721 1.8097,0.77722 -0.909,1.18649 -0.909,1.1865 -2.1606,-2.59985 -2.1601,-2.59985 -1.2046,1.21751 -1.204,1.21698 1.9161,-3.01376 z m 4.715,0.0151 3.6008,0.0951 3.6008,0.0956 2.8809,1.48931 2.8805,1.48932 -4.3212,0.0956 -4.3207,0.0951 -2.1605,-1.68 z m -173.3863,0.14624 -0.4491,3.66387 -0.4496,3.66437 -1.6211,0.6413 -1.621,0.64183 -0.645,-4.05972 -0.6449,-4.05968 2.7156,-0.24599 z m 34.3901,1.24489 1.801,0.87437 1.8004,0.87384 h -3.6014 -3.6008 l 1.8004,-0.87384 z m -58.8904,0.28887 h 1.358 1.3581 v 2.30788 2.30736 l -6.4818,1.7849 -6.4813,1.78438 v -0.45477 -0.45474 l 5.1233,-3.63752 z m 28.6427,0.57775 h 2.1606 2.1605 v 1.58234 1.58231 l 9.7225,-0.89969 9.7229,-0.89966 -5.0416,1.39991 -5.041,1.40041 3.6008,0.25427 3.6008,0.25477 -1.9632,1.49706 -1.9637,1.49654 1.9637,0.93948 v -0.003 l 1.9632,0.93949 -1.4402,-0.003 -1.4407,-0.003 -4.3207,-2.38075 -4.3212,-2.38072 -4.6814,-0.078 -4.6813,-0.0781 v -2.31095 z m -46.5367,2.35333 1.7565,1.30638 1.757,1.30638 -2.2547,2.99723 -2.2541,2.99725 v 2.02983 2.02986 h 2.0753 2.0759 l 0.8898,-1.7327 0.8904,-1.73324 1.7157,0.13642 1.7151,0.13695 -1.8004,0.87437 -1.8004,0.87384 v 1.35186 1.35186 l 8.6424,2.20658 8.6423,2.2071 v 1.20716 1.20716 l -1.8009,-0.0269 -1.8004,-0.0269 -12.5496,-3.46646 -12.5502,-3.46697 -0.7002,-2.19519 -0.7002,-2.19523 2.3373,1.07953 2.3373,1.079 -0.9182,-2.87994 -0.9183,-2.87941 1.0283,0.25424 1.0284,0.25427 2.5125,-1.32345 2.512,-1.32292 -0.9343,-1.81951 z m 234.505,0.83871 7.2021,0.0801 7.2017,0.0796 -7.2017,1.34977 -7.2021,1.3498 -7.2016,-0.0801 -7.2017,-0.0796 7.2017,-1.3498 z m -212.2743,4.53461 0.8702,1.04698 0.8702,1.04696 -2.7605,-0.13642 -2.7611,-0.13695 1.8908,-0.91003 z m 67.5173,0.0724 1.8004,0.87435 1.8004,0.87386 h -3.6008 -3.6008 l 1.8004,-0.87386 z m -76.1597,1.66087 0.8702,1.04696 0.8703,1.04698 -2.7606,-0.13644 -2.7606,-0.13693 1.8904,-0.91053 z m 39.025,0.36121 0.9229,0.0465 0.9225,0.047 11.5233,5.05553 11.5228,5.0555 -10.0826,0.12041 -10.0826,0.12091 -2.9626,0.95756 -2.9626,0.95758 0.5995,-6.18051 z m -6.2787,0.86662 0.079,2.59932 0.079,2.59985 -1.3963,2.59932 -1.3963,2.59984 0.079,-1.73323 0.08,-1.7327 1.2376,-3.46647 z m 58.0445,1.73273 0.7266,2.16678 0.7266,2.16627 -0.7266,2.16628 -0.7266,2.16627 v -4.33255 z m -77.8376,0.86659 h 3.5161 3.516 v 2.49753 2.49751 l -1.0805,0.76533 -1.0801,0.76534 -3.3336,-1.51517 -3.3331,-1.51513 0.8976,-1.74771 z m 9.9126,0 h 2.2608 2.2609 l -0.4605,3.76362 -0.4599,3.76409 -1.8009,0.71313 -1.8004,0.71366 v -4.47725 z m 43.0413,0 0.8904,1.73323 0.8898,1.73323 -0.4449,-0.0269 -0.4449,-0.0265 -2.1606,-1.68 -2.1606,-1.67999 1.7151,-0.0269 z m 5.6539,3.10732 2.6593,1.85983 2.6597,1.85984 -4.2493,0.0527 -4.2488,0.0527 1.5895,-1.91254 z m 20.4427,5.15884 v 1.77716 1.77715 l -11.883,0.98909 -11.883,0.98856 -16.9246,0.57828 -16.924,0.57824 v -1.20197 -1.202 l 21.2452,-1.14258 21.2457,-1.14255 7.5619,-0.99944 z m -79.2205,0.1106 1.8004,0.87437 1.8009,0.87384 h -3.6013 -3.6008 l 1.8004,-0.87384 z m 10.0624,5.26841 1.4506,1.079 1.4505,1.07849 v 3.26181 3.26131 l -1.4505,1.07899 -1.4506,1.0785 -0.864,-2.70939 -0.864,-2.70941 0.864,-2.70992 z m -7.5556,2.28772 -3.2267,0.98806 2.5203,0.20516 0.7064,0.0574 z m 68.1519,1.295 c -0.038,-0.003 -0.1096,0.01 -0.2067,0.0424 0.2254,0.0138 0.2857,-0.0384 0.2067,-0.0424 z m -4.5031,0.0414 c 0,0.0614 0.011,0.1226 0.016,0.18396 0.01,0.005 0.01,0.004 0.01,0.008 -0.01,-0.064 -0.016,-0.12861 -0.026,-0.19222 z m -75.1938,1.83348 -0.038,0.36534 c 0.075,-0.0929 0.16,-0.16312 0.2486,-0.22117 -0.07,-0.048 -0.1367,-0.0939 -0.2103,-0.14417 z m -88.636,2.52542 c -0.041,0 -0.094,0.007 -0.1178,0.0206 -0.057,0.0329 -0.1282,0.0628 -0.1994,0.0935 0.1213,-0.0314 0.2424,-0.0639 0.3617,-0.10232 0.026,-0.008 0,-0.013 -0.044,-0.0119 z m -1.5611,0.65474 c -0.123,-0.003 -0.2311,0.0392 -0.3586,0.16743 -0.052,0.32027 -0.1587,0.69892 -0.1241,0.57827 h 0.1535 c 0.1631,-0.0946 0.319,-0.17952 0.3685,-0.19484 0.028,-0.009 0.058,-0.0172 0.087,-0.0269 0.02,-0.15455 0.1101,-0.31367 0.2248,-0.46096 -0.135,-0.0333 -0.253,-0.0618 -0.3514,-0.063 z m 1.0284,0.22945 c 0.018,0.0839 0.039,0.162 0.062,0.23357 0.083,-0.0877 0.078,-0.16703 -0.062,-0.23357 z m -0.6806,0.094 c 0.02,-0.0222 -0.058,0.0228 -0.075,0.0465 -0.013,0.018 -0.028,0.048 -0.043,0.0796 0.04,-0.0416 0.075,-0.0774 0.1184,-0.12608 z m -9.1969,4.55631 c -0.024,-0.0127 0.066,0.0812 0.041,0.0708 -0.028,-0.0116 -0.047,-0.0196 -0.074,-0.0305 l -0.044,0.12816 c 0.06,-0.034 0.1197,-0.0672 0.1886,-0.0997 -0.037,-0.023 -0.073,-0.0483 -0.1111,-0.0687 z m 5.6576,1.89601 c 0,0.019 -0.01,0.0381 -0.014,0.0574 0.01,0.0435 0.013,0.0813 0.015,0.11419 l 0.1209,-0.1638 c -0.038,-0.003 -0.087,-0.005 -0.1214,-0.008 z m 97.3635,0.24183 c 10e-5,0 0,0.018 -0.01,0.0243 0,-0.008 0,-0.0161 0.01,-0.0243 z m -0.018,0.0749 c -0.01,0.0333 -0.01,0.0406 -0.015,0.0605 2e-4,0 0,-2.7e-4 5e-4,0.003 0,-0.0204 0.01,-0.0411 0.014,-0.0615 0,0 0,0 0,-0.003 z m 23.5469,0.26252 c -0.018,0 -0.1233,0.17081 -0.07,0.18656 0.01,0.003 0.019,0.004 0.028,0.007 0.015,-0.0642 0.029,-0.11224 0.044,-0.18293 0,-0.008 5e-4,-0.0109 0,-0.0109 z m -26.7741,2.27893 c 0.012,-0.0416 -0.055,0.0858 -0.035,0.12507 0.011,-0.038 0.013,-0.0453 0.035,-0.12507 z m 14.0705,16.60983 h 1.3947 1.3953 l -0.8289,2.59985 -0.8294,2.59985 h -0.5658 -0.5659 v -2.59985 z m -2.1694,38.44314 -3.1874,3.10525 -3.1869,3.10523 6.0178,0.10025 6.0182,0.0997 -1.9162,-1.4247 -1.9161,-1.42523 -0.9147,-1.78027 z m 2.3389,8.35091 -3.3254,0.0265 -3.3259,0.0269 2.1606,1.68 2.1606,1.68 0.2749,0.0269 0.2749,0.0269 0.8904,-1.7332 z"
       style="fill:#000000;stroke-width:1.57997"
       id="path467" />
    <path
       id="path753"
       d="m -325.4857,16.238983 c 2.16291,-1.257811 4.63686,-1.849383 7.06043,-2.471149 2.16625,-0.555752 4.33698,-1.152911 6.35437,-2.118128 0.3925,-0.187791 0.783,-0.390871 1.20637,-0.4913 0.21168,-0.05021 0.43078,-0.07405 0.64753,-0.0554 0.21676,0.01865 0.43132,0.08072 0.61725,0.193678 0.30131,0.183047 0.51348,0.493376 0.61673,0.830472 0.10325,0.337095 0.10387,0.699459 0.0458,1.047196 -0.11614,0.695473 -0.4569,1.331113 -0.66253,2.005567 -0.20908,0.685779 -0.27664,1.405265 -0.35303,2.118128 -0.2413,2.251661 -0.58186,4.493702 -1.05905,6.707407 -0.53531,2.483334 -1.24171,4.927578 -1.76512,7.413449 -0.56605,2.688391 -0.91638,5.417244 -1.41208,8.119491 -0.78305,4.268744 -1.92718,8.462505 -2.82416,12.70877 -0.82061,3.884716 -1.43518,7.816798 -2.47115,11.649705 -0.78833,2.916673 -1.82133,5.772503 -3.1772,8.472514 -0.76455,1.522491 -1.64235,3.009128 -2.82416,4.236257 -0.63769,0.662147 -1.37382,1.263163 -1.78495,2.085397 -0.20556,0.411117 -0.32197,0.875385 -0.27391,1.332509 0.0481,0.457125 0.2726,0.904426 0.64678,1.171371 0.1978,0.141114 0.43078,0.228904 0.6699,0.272019 0.23913,0.04312 0.48463,0.04263 0.7263,0.01748 0.48335,-0.0503 0.95077,-0.197621 1.42796,-0.289502 1.04443,-0.201099 2.12208,-0.134206 3.17719,0 1.12045,0.142518 2.27546,0.378923 3.1772,1.059063 0.79854,0.602302 1.32962,1.502746 2.11812,2.11813 0.33459,0.261127 0.70919,0.465768 1.05905,0.706044 0.98943,0.679515 1.78499,1.671035 2.11815,2.82417 0.32893,1.138499 0.1992,2.355175 0.35301,3.530214 0.11152,0.852007 0.3724,1.679293 0.70604,2.47115 0.53014,1.258222 1.29417,2.485166 2.47115,3.17719 0.21329,0.12541 0.43896,0.232139 0.67732,0.298525 0.23836,0.06638 0.49013,0.09165 0.73476,0.0545 0.38008,-0.05772 0.72613,-0.26385 1.00522,-0.528241 0.27909,-0.264392 0.49747,-0.585702 0.69981,-0.912587 0.20234,-0.326885 0.39156,-0.662997 0.62286,-0.970072 0.2313,-0.307075 0.50911,-0.58725 0.84931,-0.766293 0.37406,-0.196861 0.80734,-0.261931 1.22956,-0.241928 0.42223,0.02 0.83644,0.121392 1.24159,0.241928 1.01571,0.302183 2.00783,0.736379 2.82417,1.412087 1.16217,0.961964 1.90849,2.389223 2.11812,3.883233 0.11591,0.826072 0.0786,1.683402 0.35303,2.471152 0.14397,0.41334 0.37044,0.79575 0.49429,1.21556 0.0619,0.2099 0.0976,0.42965 0.0811,0.64788 -0.0165,0.21822 -0.0875,0.43531 -0.22232,0.60771 -0.15973,0.20428 -0.39911,0.33439 -0.64792,0.40746 -0.2488,0.0731 -0.50945,0.094 -0.7679,0.11525 -0.25844,0.0212 -0.51912,0.0435 -0.76716,0.11917 -0.24804,0.0756 -0.48572,0.20966 -0.64121,0.41718 -0.13823,0.18448 -0.20346,0.41784 -0.20455,0.64836 -0.001,0.23052 0.0592,0.45846 0.15225,0.66936 0.18613,0.4218 0.49718,0.77349 0.75834,1.15343 0.80698,1.17401 1.13148,2.6073 1.76511,3.88324 0.53932,1.08602 1.3022,2.05647 1.76512,3.17719 0.41551,1.00593 0.57437,2.09682 0.70604,3.17719 0.0716,0.58725 0.13545,1.18922 0,1.76511 -0.15076,0.641 -0.54631,1.21092 -1.05596,1.62789 -0.50964,0.41697 -1.12845,0.68742 -1.76823,0.84326 -0.6957,0.16946 -1.41695,0.20784 -2.11812,0.35302 -1.40027,0.28993 -2.67789,0.99572 -3.88324,1.76511 -1.11604,0.71238 -2.23201,1.50483 -3.5302,1.7651 -0.45868,0.092 -0.93148,0.1149 -1.38098,0.24453 -0.22475,0.0648 -0.4434,0.15683 -0.63506,0.29092 -0.19166,0.13408 -0.3558,0.31185 -0.45512,0.52362 -0.10321,0.22008 -0.13325,0.47196 -0.096,0.71217 0.0373,0.2402 0.14037,0.46844 0.28685,0.66242 0.29297,0.38796 0.74862,0.62956 1.22122,0.74353 0.51658,0.12458 1.05607,0.10921 1.586,0.0698 0.52992,-0.0394 1.0608,-0.10214 1.5912,-0.0698 0.74636,0.0455 1.46905,0.27805 2.1628,0.55705 0.69374,0.279 1.3683,0.60633 2.07347,0.85504 1.13455,0.40016 2.33265,0.59115 3.5302,0.70604 0.46607,0.0447 0.93843,0.0792 1.3832,0.22555 0.22238,0.0732 0.43671,0.17444 0.62565,0.31268 0.18893,0.13823 0.35211,0.31429 0.46231,0.52084 0.16723,0.31343 0.20537,0.68657 0.14283,1.03628 -0.0625,0.3497 -0.22099,0.6773 -0.42463,0.96839 -0.40728,0.58219 -0.98543,1.01866 -1.48332,1.52554 -0.82565,0.84055 -1.42641,1.87035 -2.11812,2.82417 -0.9307,1.28338 -2.0312,2.4348 -3.1772,3.53022 -0.25575,0.24446 -0.51589,0.48858 -0.71887,0.77836 -0.20298,0.28978 -0.34722,0.63301 -0.3402,0.98674 0.008,0.39371 0.20609,0.76969 0.49338,1.039 0.28729,0.26932 0.65716,0.43888 1.03899,0.53514 0.76367,0.19252 1.56804,0.10475 2.35087,0.19097 1.02784,0.1132 1.9998,0.52437 2.91558,1.00459 0.91578,0.48021 1.79341,1.03427 2.73277,1.46656 1.45643,0.67024 3.03112,1.03455 4.58928,1.41209 2.13716,0.51784 4.26846,1.06904 6.35439,1.7651 2.36561,0.78939 4.66901,1.7638 7.06043,2.47115 1.7519,0.51819 3.54428,0.89099 5.29532,1.41209 1.78343,0.53074 3.5182,1.21358 5.29531,1.7651 2.24091,0.69546 4.55489,1.18428 6.7074,2.11813 1.99169,0.86408 3.86016,2.11247 6.00137,2.47115 0.74347,0.12454 1.50869,0.13878 2.23075,0.3553 0.36103,0.10827 0.71011,0.26831 1.00505,0.50299 0.29494,0.23469 0.53394,0.5474 0.64743,0.90682 0.12396,0.39259 0.0925,0.82551 -0.05,1.21177 -0.14245,0.38627 -0.39106,0.72777 -0.68756,1.01338 -0.59302,0.57123 -1.36021,0.91736 -2.08661,1.30506 -1.3542,0.72277 -2.60673,1.61861 -3.88323,2.47115 -1.09987,0.73457 -2.24575,1.44976 -3.53022,1.76511 -0.8086,0.19852 -1.64738,0.23201 -2.47115,0.35302 -2.62804,0.38606 -5.03257,1.64644 -7.41345,2.82417 -1.27484,0.63061 -2.56012,1.24334 -3.88324,1.76511 -1.59679,0.62969 -3.24976,1.12639 -4.94228,1.41209 -1.18528,0.20008 -2.39911,0.29925 -3.53023,0.70604 -1.09154,0.39256 -2.07179,1.06036 -3.17717,1.41208 -0.79568,0.25318 -1.63635,0.33567 -2.47116,0.35303 -1.17681,0.0245 -2.35571,-0.0774 -3.53023,0 -1.66137,0.10942 -3.28246,0.57517 -4.94228,0.70604 -1.76049,0.13881 -3.53228,-0.10143 -5.29532,0 -2.76981,0.15935 -5.4138,1.15163 -8.11951,1.76511 -2.66426,0.60408 -5.39628,0.84145 -8.11948,1.05906 -3.2928,0.26313 -6.58775,0.49965 -9.88459,0.70604 -3.54327,0.22182 -7.10027,0.41018 -10.59067,1.05907 -3.79119,0.7048 -7.47615,1.94818 -11.29667,2.47115 -3.27366,0.44811 -6.59854,0.36037 -9.8846,0.70604 -3.56009,0.37449 -7.0475,1.25453 -10.59063,1.7651 -3.28017,0.47267 -6.59879,0.62738 -9.8846,1.05907 -1.30514,0.17147 -2.60614,0.38692 -3.88323,0.70604 -3.79904,0.94932 -7.304,2.79171 -10.94367,4.23626 -4.01463,1.59337 -8.20041,2.70455 -12.35575,3.88323 -3.68885,1.04635 -7.36628,2.1501 -10.94367,3.53022 -2.75397,1.06245 -5.44255,2.28634 -8.11948,3.53021 -4.64086,2.15644 -9.26672,4.38115 -14.12087,6.00136 -3.49636,1.16701 -7.09299,2.01403 -10.59063,3.1772 -4.85612,1.61495 -9.48786,3.82762 -14.12087,6.00136 -3.48416,1.63472 -6.98163,3.25258 -10.59064,4.58928 -4.43247,1.64169 -9.01825,2.85367 -13.41479,4.58928 -4.12877,1.62991 -8.0884,3.72039 -12.35575,4.94229 -2.61841,0.74975 -5.36858,1.17955 -7.76648,2.47115 -1.86911,1.00677 -3.44116,2.49617 -5.29531,3.53022 -2.08474,1.16265 -4.44569,1.70788 -6.7074,2.47115 -2.65098,0.89464 -5.18523,2.09773 -7.76648,3.17719 -2.88577,1.20681 -5.83487,2.26073 -8.82554,3.17719 -3.88026,1.18907 -7.83394,2.14812 -11.64971,3.53022 -3.22599,1.16848 -6.33628,2.63324 -9.53157,3.88323 -4.44806,1.74008 -9.06253,3.06269 -13.76783,3.88324 -2.70694,0.47206 -5.44568,0.77882 -8.1195,1.41208 -2.25009,0.53291 -4.44342,1.29466 -6.7074,1.76512 -2.20394,0.45799 -4.45746,0.63609 -6.7074,0.70604 -1.76449,0.0549 -3.53053,0.0438 -5.29532,0 -2.00386,-0.0498 -4.00807,-0.14191 -6.00139,-0.35303 -0.86107,-0.0912 -1.756,-0.21781 -2.47112,-0.70604 -0.42283,-0.28867 -0.75862,-0.68974 -1.03497,-1.12072 -0.27635,-0.43097 -0.49753,-0.89436 -0.73015,-1.35043 -0.69831,-1.36906 -1.51867,-2.71928 -1.76511,-4.23626 -0.0948,-0.58345 -0.10119,-1.18273 0,-1.7651 0.19965,-1.14902 0.80337,-2.18243 1.41208,-3.1772 1.02229,-1.67065 2.08945,-3.3135 3.17719,-4.9423 1.54332,-2.31099 3.13206,-4.59896 4.94231,-6.7074 2.44023,-2.84219 5.26187,-5.33387 7.76648,-8.11949 2.56928,-2.85754 4.79484,-6.01313 7.41344,-8.82554 2.95169,-3.17015 6.36762,-5.86721 9.53159,-8.82553 3.34412,-3.12677 6.40314,-6.54202 9.53156,-9.8846 1.14506,-1.22345 2.30928,-2.44981 3.17719,-3.88324 0.40919,-0.67582 0.7486,-1.39165 1.05908,-2.11813 1.22459,-2.86535 2.03571,-5.96322 3.88323,-8.47251 1.23958,-1.68359 2.88959,-3.01884 4.58928,-4.23625 2.49539,-1.78734 5.1354,-3.36147 7.76647,-4.9423 2.12783,-1.27847 4.25226,-2.5629 6.35437,-3.88324 2.10238,-1.3205 4.18397,-2.67783 6.35439,-3.88324 0.43516,-0.24168 0.87715,-0.47863 1.35232,-0.62691 0.47516,-0.14829 0.99005,-0.20424 1.47184,-0.0791 0.5334,0.13851 0.98906,0.4875 1.37418,0.88168 0.38511,0.39419 0.71453,0.83967 1.09698,1.23645 0.86914,0.9017 1.9938,1.53361 2.82416,2.47115 0.41767,0.47159 0.75138,1.01015 1.1252,1.51721 0.37383,0.50705 0.79983,0.99297 1.34596,1.30696 0.50527,0.29049 1.09487,0.41968 1.67767,0.41347 0.58279,-0.006 1.15941,-0.14395 1.70135,-0.3584 1.08388,-0.42891 2.02011,-1.15216 2.97537,-1.82017 1.90348,-1.3311 3.93412,-2.47118 6.00136,-3.53022 2.53185,-1.29706 5.12424,-2.47605 7.76647,-3.53021 3.63362,-1.4497 7.36155,-2.66359 10.94367,-4.23626 3.61454,-1.58691 7.05983,-3.52994 10.59064,-5.29532 4.71424,-2.35708 9.58016,-4.39698 14.47387,-6.35439 4.89532,-1.95805 9.83822,-3.84264 14.47387,-6.35438 3.80612,-2.06227 7.45776,-4.56805 11.64971,-5.64834 1.51699,-0.39094 3.08215,-0.58763 4.58035,-1.04535 1.49819,-0.45772 2.96891,-1.21927 3.89216,-2.48486 0.79729,-1.09291 1.11545,-2.45816 1.32265,-3.79501 0.20721,-1.33686 0.32582,-2.70279 0.79548,-3.97147 0.53518,-1.44568 1.49764,-2.68795 2.47115,-3.88323 1.31609,-1.61591 2.68429,-3.19838 4.23627,-4.58928 1.348,-1.20809 2.86206,-2.28259 4.58928,-2.82417 0.87456,-0.27422 1.78595,-0.40647 2.68575,-0.58085 0.89979,-0.17439 1.80291,-0.3961 2.60957,-0.83124 0.46465,-0.25065 0.90109,-0.57335 1.41208,-0.70604 0.63769,-0.16559 1.32379,-0.0117 1.91356,0.282 0.58977,0.29366 1.10192,0.71883 1.61664,1.13009 0.91579,0.73171 1.88169,1.45794 2.47116,2.47115 0.45112,0.77541 0.65203,1.67172 1.05907,2.47115 0.15469,0.30381 0.34008,0.59427 0.57384,0.84244 0.23376,0.24817 0.51773,0.45342 0.83824,0.56964 0.37513,0.13603 0.78918,0.14562 1.18031,0.0666 0.39113,-0.079 0.76106,-0.24366 1.10474,-0.44642 0.68737,-0.40552 1.27473,-0.96181 1.9512,-1.38527 0.85452,-0.53492 1.82826,-0.84423 2.79649,-1.12507 0.96824,-0.28085 1.95049,-0.54151 2.85186,-0.99305 0.90188,-0.4518 1.69924,-1.08292 2.53955,-1.64095 0.8403,-0.55804 1.75528,-1.05459 2.75576,-1.18322 0.61068,-0.0785 1.2308,-0.0168 1.84511,-0.0583 0.30715,-0.0207 0.61438,-0.0678 0.90517,-0.16889 0.29078,-0.10108 0.56543,-0.25805 0.77995,-0.47886 0.21389,-0.22017 0.36278,-0.49865 0.45172,-0.79245 0.0889,-0.29379 0.11961,-0.60296 0.11606,-0.9099 -0.007,-0.61388 -0.1486,-1.21752 -0.21477,-1.82786 -0.16838,-1.55298 0.15586,-3.1273 0.70604,-4.58928 0.48668,-1.29326 1.16101,-2.53356 2.11812,-3.53021 0.81741,-0.85118 1.81745,-1.50239 2.82419,-2.11813 0.85938,-0.52561 1.73663,-1.03403 2.68217,-1.38153 0.94554,-0.3475 1.96941,-0.52946 2.96616,-0.38358 0.4181,0.0612 0.82721,0.17907 1.24753,0.22246 0.42032,0.0434 0.86744,0.005 1.22362,-0.22246 0.34522,-0.22034 0.56922,-0.60038 0.65851,-1.00008 0.0893,-0.3997 0.0544,-0.81846 -0.0347,-1.21821 -0.17818,-0.79948 -0.56986,-1.55366 -0.62378,-2.37098 -0.0619,-0.9382 0.33157,-1.851208 0.84015,-2.642028 0.50858,-0.790819 1.13743,-1.500006 1.63101,-2.300277 0.94217,-1.527617 1.35263,-3.31893 2.11812,-4.9423 1.01738,-2.157549 2.63574,-3.968182 3.88324,-6.001361 1.62633,-2.650584 2.60006,-5.639845 3.88323,-8.472514 1.36845,-3.020929 3.09093,-5.866886 4.58928,-8.825534 1.30794,-2.582662 2.44621,-5.253342 3.88324,-7.766471 1.36279,-2.383299 2.98869,-4.614851 4.23627,-7.060427 1.1028,-2.161774 1.89676,-4.464781 2.82416,-6.707407 1.14686,-2.773312 2.49899,-5.456709 3.88324,-8.119491 1.48155,-2.849968 3.00171,-5.68021 4.58927,-8.472514 1.30243,-2.2908 2.65843,-4.573646 3.53021,-7.060428 0.50824,-1.449772 0.86408,-2.991953 1.76511,-4.236256 0.64099,-0.885184 1.5264,-1.56872 2.47116,-2.118129 z"
       style="fill:none;stroke:#000000;stroke-width:0.264583px;stroke-linecap:butt;stroke-linejoin:miter;stroke-opacity:1" />
  </g>
</svg>
